<svg id="Layer_1" data-name="Layer 1" xmlns="http://www.w3.org/2000/svg" viewBox="0 0 93.14 81.29"><defs><style>.cls-1{fill:#fff;}.cls-2{fill:#ffe400;}</style></defs><title>filling</title><path class="cls-1" d="M347.61,237.07l-.34-5.1q-.36-5.46,3.43-6.35a3.7,3.7,0,0,1,1.44-.08,2.47,2.47,0,0,1,1.09.45,2.91,2.91,0,0,1,.77.93,5.29,5.29,0,0,1,.49,1.32,10.1,10.1,0,0,1,.23,1.65l.09,1.33-2.61.61-.09-1.42c0-.28,0-.52-.06-.72a5.86,5.86,0,0,0-.12-.68,2.34,2.34,0,0,0-.21-.59.85.85,0,0,0-.34-.34.69.69,0,0,0-.51-.06q-1.15.27-1,2.54l.45,6.65q.15,2.27,1.3,2a1,1,0,0,0,.56-.36,1.65,1.65,0,0,0,.29-.73,6.25,6.25,0,0,0,.08-.86c0-.28,0-.59,0-.94l-.11-1.58,2.59-.61.08,1.3a13.23,13.23,0,0,1,0,1.65,7.79,7.79,0,0,1-.28,1.53,4.91,4.91,0,0,1-.58,1.34,3.76,3.76,0,0,1-1,1,4,4,0,0,1-1.45.64,3.65,3.65,0,0,1-1.53.07,2.47,2.47,0,0,1-1.13-.52,3.15,3.15,0,0,1-.78-1,5.84,5.84,0,0,1-.49-1.39A11.58,11.58,0,0,1,347.61,237.07Z" transform="translate(-303.37 -215.54)"/><path class="cls-1" d="M356.66,240.19l-1-15.4,2.65-.62.42,6.32,1.9-.44-.42-6.31,2.66-.62,1,15.4-2.66.62-.46-6.87-1.9.44.46,6.87Z" transform="translate(-303.37 -215.54)"/><path class="cls-1" d="M364.92,233.12l-.34-5.18q-.36-5.46,3.46-6.35t4.2,4.57l.34,5.1a11.93,11.93,0,0,1,0,1.73,7.4,7.4,0,0,1-.3,1.58,5,5,0,0,1-.63,1.36,3.8,3.8,0,0,1-1,1,4.44,4.44,0,0,1-1.49.64,3.8,3.8,0,0,1-1.53.07,2.45,2.45,0,0,1-1.14-.5,3.1,3.1,0,0,1-.79-1,5.67,5.67,0,0,1-.5-1.37A10.77,10.77,0,0,1,364.92,233.12Zm5.06-.47-.44-6.66q-.15-2.28-1.34-2a1.09,1.09,0,0,0-.59.35,1.49,1.49,0,0,0-.33.66,4.32,4.32,0,0,0-.12.76,5.72,5.72,0,0,0,0,.79l.44,6.66q.15,2.27,1.33,2T370,232.65Z" transform="translate(-303.37 -215.54)"/><path class="cls-1" d="M373.8,231l-.35-5.18q-.36-5.46,3.46-6.35t4.2,4.57l.34,5.1a12.07,12.07,0,0,1,0,1.73,7.26,7.26,0,0,1-.3,1.58,5.09,5.09,0,0,1-.63,1.36,3.91,3.91,0,0,1-1,1,4.43,4.43,0,0,1-1.5.63,3.75,3.75,0,0,1-1.52.07,2.46,2.46,0,0,1-1.14-.5,3.13,3.13,0,0,1-.79-1,5.69,5.69,0,0,1-.5-1.37A10.9,10.9,0,0,1,373.8,231Zm5.06-.47-.44-6.66q-.15-2.28-1.34-2a1.09,1.09,0,0,0-.59.35,1.49,1.49,0,0,0-.33.66,4.37,4.37,0,0,0-.12.76,5.88,5.88,0,0,0,0,.79l.44,6.66q.15,2.27,1.33,2T378.86,230.58Z" transform="translate(-303.37 -215.54)"/><path class="cls-1" d="M382.45,229.7l2.64-1.23c0,.32,0,.59.07.83a6.93,6.93,0,0,0,.13.77,2.93,2.93,0,0,0,.21.65,1,1,0,0,0,.33.38.57.57,0,0,0,.47.08c.53-.12.76-.58.71-1.36a3.9,3.9,0,0,0-1.76-2.86l-.88-.63c-.28-.2-.5-.36-.67-.5a6.62,6.62,0,0,1-.59-.57,3.71,3.71,0,0,1-.55-.73,4.72,4.72,0,0,1-.37-.91,5.25,5.25,0,0,1-.21-1.19,4.81,4.81,0,0,1,.81-3.2,4.25,4.25,0,0,1,2.61-1.72,2.59,2.59,0,0,1,2.44.61,3.61,3.61,0,0,1,1.16,2.58v.11c0,.08,0,.16,0,.26l-2.71,1.08c0-.06,0-.16,0-.3s0-.25,0-.33a4.54,4.54,0,0,0-.08-.58,3,3,0,0,0-.16-.54.8.8,0,0,0-.29-.39.53.53,0,0,0-.43-.07.87.87,0,0,0-.63.55,2.15,2.15,0,0,0-.16,1,2.9,2.9,0,0,0,.19.87,2.21,2.21,0,0,0,.44.69,5.17,5.17,0,0,0,.52.49c.16.13.36.27.62.45s.44.3.55.39a9.71,9.71,0,0,1,1,.87,6.9,6.9,0,0,1,.8,1,4.77,4.77,0,0,1,.6,1.27,6.83,6.83,0,0,1,.28,1.57,4.28,4.28,0,0,1-.81,2.88,3.9,3.9,0,0,1-2.32,1.59,3.08,3.08,0,0,1-1.64,0,2.52,2.52,0,0,1-1.21-.8,4.58,4.58,0,0,1-.77-1.34A6.83,6.83,0,0,1,382.45,229.7Z" transform="translate(-303.37 -215.54)"/><path class="cls-1" d="M390.85,232.22l-1-15.4,5.46-1.27.14,2.14-2.81.66.28,4.19,2-.47.15,2.19-2,.46.32,4.74,2.82-.66.14,2.14Z" transform="translate(-303.37 -215.54)"/><path class="cls-2" d="M325.76,280.53a5.62,5.62,0,0,1-.68-2.49c-.16-3.38,2.38-7.24,6.92-8.85.38-8.15,1.31-13.38,2.41-16.76l-.76.21c-5.08,1.38-10.37.28-17.52,2.23-6.63,1.81-9.67,9-9.4,14.75.23,4.78,2.76,8.55,7.49,7.27s6.26-5.88,6-10.57c0-.74-.1-1.47-.21-2.24l3.08-1.51c.11.81.22,1.61.26,2.44.29,6-1.87,12-9,13.93-7,1.9-10.67-2.85-11-9-.34-7,3.85-15.82,12.69-18.23,7.46-2,13.56-.31,17.87-1.49.59-.16,1.07-.33,1.51-.5a7.55,7.55,0,0,1,3-3.56l1.3,1.53a7.39,7.39,0,0,1-2.57,3.37c-.61,2.58-1.32,7.45-1.7,17a13.53,13.53,0,0,0,2.41-1.45,36.2,36.2,0,0,1,1.26-4.22l2,.64a7.87,7.87,0,0,1-1.88,4.56c-.08,2-.14,5.09,0,8.42l-2.49.68a34.64,34.64,0,0,1,.55-7.41,15.46,15.46,0,0,1-1.94,1.07c-1.09,18.74-7,24.64-12.27,26.09-5.63,1.53-8.16-1.7-8.34-5.49-.18-3.58,1.73-7.65,5.07-8.6l.28,3.72c-1.52.42-2.4,2.49-2.3,4.47.12,2.39,1.66,4.64,5.28,3.65s7.67-4.76,8.77-22.59c-2.26,1-4,2.59-3.87,5.14a7.18,7.18,0,0,0,.37,1.82Z" transform="translate(-303.37 -215.54)"/><path class="cls-2" d="M345.78,261.35c-.9,6.75-1.67,11.8-1.5,15.18.06,1.19.45,1.3.76,1.21.9-.25,1.92-2.86,3.21-8,.17,0,1,0,1,.27v0c-1.29,5.11-2.27,10.21-5.1,11-1.86.51-2.58-1.38-2.72-4.22-.22-4.57,1-11.53,1.42-14.66Zm-2.74-3.8c-.07-1.48.74-3.5,2.26-3.91,1.14-.31,1.67.54,1.73,1.7.07,1.48-.74,3.46-2.26,3.87C343.66,259.5,343.09,258.66,343,257.55Z" transform="translate(-303.37 -215.54)"/><path class="cls-2" d="M356.39,267.51c.17,0,.84.11.85.31v0c-1.72,7.14-3.16,10.67-5.4,11.28-2.07.57-3-1.64-3.22-5.92a89.67,89.67,0,0,1,.54-12c1.05-10.76,3-16,5-16.55,1.8-.49,2.4,1.1,2.5,3.2a31.14,31.14,0,0,1-.71,6.91,48.08,48.08,0,0,1-4.55,12.84c-.09,1.82-.11,3.45,0,4.77.13,2.76.69,3.48,1.49,3.27C353.94,275.4,355.13,272.49,356.39,267.51Zm-1.64-20.17c-.93.26-2.54,9.71-3.17,17.64,1.55-4.21,3.77-11.79,3.56-16.82C355.11,247.58,354.92,247.3,354.75,247.34Z" transform="translate(-303.37 -215.54)"/><path class="cls-2" d="M364.54,265.3c.17,0,.85.1.86.31v0c-1.72,7.14-3.16,10.66-5.4,11.27-2.07.56-3-1.64-3.23-5.92a89.87,89.87,0,0,1,.54-12c1.05-10.76,3-16,5-16.55,1.8-.49,2.4,1.1,2.5,3.2a31.26,31.26,0,0,1-.71,6.91,48.17,48.17,0,0,1-4.55,12.84c-.09,1.82-.11,3.46,0,4.77.13,2.76.69,3.48,1.49,3.26C362.09,273.18,363.28,270.27,364.54,265.3Zm-1.64-20.17c-.93.25-2.54,9.7-3.17,17.64,1.54-4.22,3.77-11.79,3.56-16.83C363.26,245.36,363.07,245.08,362.9,245.13Z" transform="translate(-303.37 -215.54)"/><path class="cls-2" d="M369,255c-.9,6.75-1.67,11.8-1.5,15.18.06,1.19.45,1.3.76,1.21.9-.24,1.92-2.86,3.21-8,.17,0,1,0,1,.27v0c-1.29,5.11-2.27,10.22-5.1,11-1.86.51-2.58-1.38-2.72-4.23-.22-4.57,1-11.53,1.43-14.66Zm-2.74-3.81c-.07-1.48.74-3.5,2.26-3.91,1.14-.31,1.67.55,1.73,1.7.07,1.48-.74,3.46-2.26,3.87C366.89,253.18,366.32,252.33,366.27,251.22Z" transform="translate(-303.37 -215.54)"/><path class="cls-2" d="M370.57,273.63a41.3,41.3,0,0,1,.95-7.18c.46-4.84.85-9.16,1.12-12.41l3-.81-.25,2.87c1-2.28,2.33-3.89,3.78-4.29,1.21-.33,2,.4,2.14,2.38.19,3.83-1.82,9.34-1.66,12.72.06,1.2.45,1.3.76,1.21.9-.24,1.93-2.86,3.21-8,.21-.06,1,.07,1,.31-1.29,5.11-2.61,10.31-5.44,11.08-1.21.33-2.4-.51-2.53-3-.21-4.45,1.81-9.63,1.66-12.6,0-.45-.21-.77-.59-.67-.87.24-2.29,2.58-3.15,8.7l-1,8.9Z" transform="translate(-303.37 -215.54)"/><path class="cls-2" d="M396.5,257.14v0a37,37,0,0,1-4.63,10.65l-.5,5.52c-.39,4.32-1.55,7.72-3.76,8.33-1.56.42-2.71-.35-2.82-2.53-.14-2.84,2-5.79,4.37-9.41.15-1.29.22-2.65.37-4-.77,2.09-1.85,3.63-3.27,4-1.69.46-2.49-1.58-2.64-4.58-.28-5.81,2-15.1,5.24-16,1.07-.29,1.69.29,2,1.67l.23-1.86,2.83-.77c-.33,1.93-1.09,9.9-1.78,16.72a31.82,31.82,0,0,0,3.35-8.09C395.82,256.78,396.49,256.89,396.5,257.14Zm-10,6.85c.06,1.28.31,2.09.83,1.95,1.59-.43,3.23-7.68,3-11.51-.07-1.52-.44-2.51-1.2-2.3C387.74,252.51,386.33,260.24,386.51,264Zm1,15.51c.59-.16.82-1.06,1-2.39l.48-4.59c-1.36,2.2-2.29,4.08-2.19,6.06C386.77,279.36,387.13,279.59,387.47,279.5Z" transform="translate(-303.37 -215.54)"/></svg>