<svg id="Layer_1" data-name="Layer 1" xmlns="http://www.w3.org/2000/svg" viewBox="0 0 106 106"><defs><style>.cls-1{fill:#ffe500;}.cls-2{fill:#231f20;}.cls-3{fill:#fff;}</style></defs><title>sauces-icon</title><path d="M27.39,44.25h0a3.07,3.07,0,0,1-2.61-2.6,1.61,1.61,0,0,0,0-.25s0-.08,0-.12v.1a1.58,1.58,0,0,0-1.46-1.46,1.65,1.65,0,0,0-1.48,1.78v.11a3.07,3.07,0,0,1-2.58,2.44h-.16a3.65,3.65,0,0,0-3.72,3.57V62.2a3.65,3.65,0,0,0,3.72,3.57h8.31a3.65,3.65,0,0,0,3.72-3.57V47.82A3.65,3.65,0,0,0,27.39,44.25Z"/><path class="cls-1" d="M26,42.27a1.1,1.1,0,0,1-1.12,1.08h-3a1.1,1.1,0,0,1-1.12-1.08v-2a1.1,1.1,0,0,1,1.12-1.08h3A1.1,1.1,0,0,1,26,40.23Z"/><path class="cls-2" d="M24.84,43.54h-3a1.3,1.3,0,0,1-1.31-1.28v-2A1.3,1.3,0,0,1,21.84,39h3a1.3,1.3,0,0,1,1.31,1.28v2A1.3,1.3,0,0,1,24.84,43.54Zm-3-4.19a.9.9,0,0,0-.93.88v2a.9.9,0,0,0,.93.88h3a.9.9,0,0,0,.93-.88v-2a.9.9,0,0,0-.93-.88Z"/><path class="cls-3" d="M20.72,40s-.1.85.88.85"/><path class="cls-2" d="M21.59,41a1.06,1.06,0,0,1-.85-.33,1,1,0,0,1-.22-.73l.38,0a.62.62,0,0,0,.13.43.7.7,0,0,0,.56.2Z"/><path class="cls-3" d="M26,40s.1.85-.88.85"/><path class="cls-2" d="M25.08,41v-.4a.71.71,0,0,0,.56-.2.62.62,0,0,0,.13-.42l.38,0a1,1,0,0,1-.22.73A1.06,1.06,0,0,1,25.08,41Z"/><path class="cls-3" d="M20.72,41.49s-.1.85.88.85"/><path class="cls-2" d="M21.6,42.53a1.06,1.06,0,0,1-.85-.33,1,1,0,0,1-.22-.74l.38,0a.63.63,0,0,0,.13.43.71.71,0,0,0,.56.19Z"/><path class="cls-3" d="M26,41.49s.1.85-.88.85"/><path class="cls-2" d="M25.08,42.53v-.4a.7.7,0,0,0,.56-.2.62.62,0,0,0,.13-.43l.38,0a1,1,0,0,1-1.07,1.07Z"/><path class="cls-1" d="M27.44,49.88l.45-1.77L27.61,48a8.52,8.52,0,0,0-4.29-1.16A9.07,9.07,0,0,0,18.86,48l-.27.17.51,1.76a11.91,11.91,0,0,0-1.77.59l-.25.11.24,10.79h11.8l.28-10.79-.26-.11a14.06,14.06,0,0,0-1.71-.59Z"/><path class="cls-2" d="M18.45,56.35V53h-.53v-.59H19.7V53h-.52v3.31Z"/><path class="cls-2" d="M19.56,56.35l.78-3.9H21l.78,3.9H21l-.15-.84h-.47l-.14.84ZM20.48,55h.38l-.18-1.45Z"/><path class="cls-2" d="M21.9,56.35v-3.9h.73v1.6h.53v-1.6h.74v3.9h-.74V54.61h-.53v1.74Z"/><path class="cls-2" d="M24.23,56.35v-3.9H25v3.9Z"/><path class="cls-2" d="M25.29,56.35v-3.9h.53l.79,2v-2h.61v3.9h-.51l-.79-2.16v2.16Z"/><path class="cls-2" d="M27.55,56.35v-3.9h.73v3.9Z"/><rect class="cls-2" x="18.02" y="56.88" width="10.31" height="0.34"/><rect class="cls-2" x="17.91" y="51.37" width="10.31" height="0.34"/><path d="M89.19,44.05h0a3.07,3.07,0,0,1-2.6-2.61,2.11,2.11,0,0,0,0-.25s0-.08,0-.12v.1a1.58,1.58,0,0,0-1.46-1.46,1.65,1.65,0,0,0-1.48,1.78v.11A3.08,3.08,0,0,1,81,44.05h-.16a3.64,3.64,0,0,0-3.71,3.57V62a3.64,3.64,0,0,0,3.71,3.57h8.31A3.65,3.65,0,0,0,92.9,62V47.62A3.65,3.65,0,0,0,89.19,44.05Z"/><path class="cls-1" d="M87.75,42.07a1.1,1.1,0,0,1-1.12,1.08h-3a1.1,1.1,0,0,1-1.12-1.08V40A1.1,1.1,0,0,1,83.63,39h3A1.1,1.1,0,0,1,87.75,40Z"/><path class="cls-2" d="M86.63,43.34h-3a1.3,1.3,0,0,1-1.31-1.28V40a1.3,1.3,0,0,1,1.31-1.28h3A1.3,1.3,0,0,1,87.95,40v2A1.3,1.3,0,0,1,86.63,43.34Zm-3-4.19a.9.9,0,0,0-.93.88v2a.9.9,0,0,0,.93.88h3a.91.91,0,0,0,.93-.88V40a.91.91,0,0,0-.93-.88Z"/><path class="cls-3" d="M82.51,39.8s-.1.85.88.85"/><path class="cls-2" d="M83.39,40.84a1.06,1.06,0,0,1-.85-.33,1,1,0,0,1-.22-.74l.38,0a.62.62,0,0,0,.13.43.71.71,0,0,0,.56.2Z"/><path class="cls-3" d="M87.75,39.8s.1.85-.88.85"/><path class="cls-2" d="M86.87,40.84v-.4a.72.72,0,0,0,.56-.2.63.63,0,0,0,.13-.43l.38,0a1,1,0,0,1-.22.74A1.07,1.07,0,0,1,86.87,40.84Z"/><path class="cls-3" d="M82.51,41.29s-.1.85.88.85"/><path class="cls-2" d="M83.39,42.33a1.06,1.06,0,0,1-.85-.33,1,1,0,0,1-.22-.74l.38,0a.63.63,0,0,0,.13.43.71.71,0,0,0,.56.2Z"/><path class="cls-3" d="M87.75,41.29s.1.85-.88.85"/><path class="cls-2" d="M86.87,42.33v-.4a.7.7,0,0,0,.56-.2.61.61,0,0,0,.13-.43l.38,0a1,1,0,0,1-.22.74A1.06,1.06,0,0,1,86.87,42.33Z"/><path class="cls-1" d="M89.23,49.68l.45-1.77-.27-.16a8.5,8.5,0,0,0-4.29-1.16,9,9,0,0,0-4.46,1.17l-.27.17.51,1.75a11.36,11.36,0,0,0-1.77.59l-.25.11.25,10.79h11.8l.27-10.79-.25-.11a14.62,14.62,0,0,0-1.71-.59Z"/><path class="cls-2" d="M91.11,61.37H78.93l-.25-11.12.36-.16a11.35,11.35,0,0,1,1.61-.55l-.5-1.71.4-.25a9.19,9.19,0,0,1,4.56-1.2,8.67,8.67,0,0,1,4.39,1.19l.4.23-.44,1.73a14.71,14.71,0,0,1,1.55.54l.38.16ZM79.3,61H90.74L91,50.51l-.13-.05a14.67,14.67,0,0,0-1.69-.58L89,49.82,89.46,48l-.14-.08a8.31,8.31,0,0,0-4.2-1.14,8.93,8.93,0,0,0-4.36,1.14l-.14.09.52,1.81-.19.05a11.63,11.63,0,0,0-1.73.58l-.14.06Z"/><path class="cls-2" d="M79.7,56.65l.85-4.21h.7l.84,4.21h-.78l-.16-.9h-.51l-.15.9Zm1-1.42h.4l-.2-1.56Z"/><path class="cls-2" d="M82.1,55.45l.8-.17c0,.09,0,.16,0,.23a1.47,1.47,0,0,0,0,.21.73.73,0,0,0,0,.19.32.32,0,0,0,.09.12.19.19,0,0,0,.14.05c.16,0,.24-.11.24-.32a1.23,1.23,0,0,0-.46-.88l-.25-.22-.19-.18-.16-.19a1.24,1.24,0,0,1-.15-.23,1.16,1.16,0,0,1-.09-.27,1.35,1.35,0,0,1,0-.33,1,1,0,0,1,1.11-1.11.92.92,0,0,1,.71.32,1.1,1.1,0,0,1,.29.77v.1l-.82.12s0,0,0-.08,0-.07,0-.09a1,1,0,0,0,0-.16.78.78,0,0,0,0-.15.26.26,0,0,0-.08-.12.18.18,0,0,0-.13,0,.21.21,0,0,0-.2.11.5.5,0,0,0-.07.26.8.8,0,0,0,0,.25.79.79,0,0,0,.12.21l.14.16.17.16.15.14a2.88,2.88,0,0,1,.28.3,2,2,0,0,1,.22.31,1.44,1.44,0,0,1,.15.38,1.73,1.73,0,0,1,.05.44,1,1,0,0,1-.3.72,1,1,0,0,1-.71.28,1,1,0,0,1-.48-.11.91.91,0,0,1-.34-.29,1.45,1.45,0,0,1-.2-.41A1.89,1.89,0,0,1,82.1,55.45Z"/><path class="cls-2" d="M84.42,56.65V52.44h.79v4.21Z"/><path class="cls-2" d="M85.35,56.65l.85-4.21h.7l.85,4.21H87l-.16-.9h-.51l-.15.9Zm1-1.42h.41l-.2-1.56Z"/><path class="cls-2" d="M87.89,56.65V52.44h.57l.86,2.2v-2.2H90v4.21h-.55l-.86-2.34v2.34Z"/><rect class="cls-2" x="79.71" y="51.43" width="10.31" height="0.34"/><rect class="cls-2" x="79.82" y="57.28" width="10.31" height="0.34"/><path class="cls-3" d="M76.48,42.64h0a3.47,3.47,0,0,1-2.94-2.94,2.42,2.42,0,0,0,0-.28s0-.09,0-.13v.11a1.79,1.79,0,0,0-1.65-1.65,1.87,1.87,0,0,0-1.67,2v.13a3.48,3.48,0,0,1-2.92,2.76h-.18a4.12,4.12,0,0,0-4.2,4V62.93a4.12,4.12,0,0,0,4.2,4h9.39a4.12,4.12,0,0,0,4.2-4V46.68A4.12,4.12,0,0,0,76.48,42.64Z"/><path class="cls-2" d="M76.48,67.26H67.08a4.41,4.41,0,0,1-4.48-4.33V46.68a4.41,4.41,0,0,1,4.48-4.33h.16a3.19,3.19,0,0,0,2.66-2.5v-.1a2.15,2.15,0,0,1,2-2.3,2.05,2.05,0,0,1,1.91,1.83h0s0,.07,0,.1h0a2.49,2.49,0,0,1,0,.28,3.19,3.19,0,0,0,2.69,2.68A4.41,4.41,0,0,1,81,46.68V62.93A4.41,4.41,0,0,1,76.48,67.26ZM67.08,42.93a3.84,3.84,0,0,0-3.92,3.75V62.93a3.84,3.84,0,0,0,3.92,3.75h9.39a3.84,3.84,0,0,0,3.92-3.75V46.68a3.84,3.84,0,0,0-3.92-3.75h0a3.76,3.76,0,0,1-3.18-3.19v0a2,2,0,0,0,0-.24v0h0A1.51,1.51,0,0,0,71.86,38a1.58,1.58,0,0,0-1.39,1.72v.18a3.75,3.75,0,0,1-3.15,3h-.22Z"/><path class="cls-1" d="M74.86,40.39a1.24,1.24,0,0,1-1.27,1.22H70.2a1.24,1.24,0,0,1-1.27-1.22V38.09a1.24,1.24,0,0,1,1.27-1.22h3.4a1.24,1.24,0,0,1,1.27,1.22Z"/><path class="cls-2" d="M73.59,41.84H70.2a1.46,1.46,0,0,1-1.49-1.44V38.09a1.47,1.47,0,0,1,1.49-1.44h3.4a1.47,1.47,0,0,1,1.49,1.44v2.31A1.47,1.47,0,0,1,73.59,41.84Zm-3.4-4.74a1,1,0,0,0-1,1v2.31a1,1,0,0,0,1,1h3.4a1,1,0,0,0,1.05-1V38.09a1,1,0,0,0-1.05-1Z"/><path class="cls-3" d="M68.93,37.82s-.11,1,1,1"/><path class="cls-2" d="M69.92,39a1.2,1.2,0,0,1-1-.37,1.16,1.16,0,0,1-.25-.83l.43.05-.22,0,.22,0a.72.72,0,0,0,.15.48.8.8,0,0,0,.63.22Z"/><path class="cls-3" d="M74.86,37.82s.11,1-1,1"/><path class="cls-2" d="M73.86,39v-.45a.8.8,0,0,0,.63-.22.71.71,0,0,0,.15-.48l.43-.05a1.16,1.16,0,0,1-.25.83A1.2,1.2,0,0,1,73.86,39Z"/><path class="cls-3" d="M68.93,39.51s-.11,1,1,1"/><path class="cls-2" d="M69.92,40.69a1.19,1.19,0,0,1-1-.37,1.17,1.17,0,0,1-.25-.83l.43.05-.22,0,.22,0a.71.71,0,0,0,.15.49.8.8,0,0,0,.63.22Z"/><path class="cls-3" d="M74.86,39.51s.11,1-1,1"/><path class="cls-2" d="M73.86,40.69v-.45A.8.8,0,0,0,74.5,40a.71.71,0,0,0,.15-.49l.43-.05a1.18,1.18,0,0,1-.25.83A1.2,1.2,0,0,1,73.86,40.69Z"/><path class="cls-1" d="M76.53,50.2l.5-2L76.72,48a9.6,9.6,0,0,0-4.85-1.32,10.26,10.26,0,0,0-5,1.33l-.3.19.58,2a13.07,13.07,0,0,0-2,.67l-.28.12.28,12.2H78.44L78.75,51l-.29-.12a16.79,16.79,0,0,0-1.93-.67Z"/><path class="cls-2" d="M78.65,63.42H64.88l-.28-12.57.41-.18A13.37,13.37,0,0,1,66.82,50l-.56-1.93.45-.28a10.51,10.51,0,0,1,5.16-1.36,9.84,9.84,0,0,1,5,1.34l.46.26-.5,2a17.45,17.45,0,0,1,1.75.62l.43.18ZM65.3,63H78.23l.3-11.83-.15-.06a17.15,17.15,0,0,0-1.91-.66l-.21-.06.52-2-.16-.09a9.39,9.39,0,0,0-4.75-1.29,10,10,0,0,0-4.93,1.29l-.16.1.59,2-.22.05a13.27,13.27,0,0,0-2,.65l-.15.07Z"/><path class="cls-2" d="M65.91,55.66v-1c0-.72.28-1.09.83-1.09a.85.85,0,0,1,.31.05.64.64,0,0,1,.23.14.7.7,0,0,1,.15.22,1.22,1.22,0,0,1,.09.28,2.08,2.08,0,0,1,0,.33v.26H67v-.28c0-.05,0-.1,0-.14a.87.87,0,0,0,0-.14.45.45,0,0,0,0-.12.23.23,0,0,0-.07-.08.18.18,0,0,0-.11,0c-.16,0-.25.15-.25.45v1.32c0,.3.09.45.25.45a.17.17,0,0,0,.12,0,.27.27,0,0,0,.07-.13.92.92,0,0,0,0-.17,1.71,1.71,0,0,0,0-.18v-.31h.56v.26a2,2,0,0,1,0,.32,1.33,1.33,0,0,1-.08.29.83.83,0,0,1-.15.24.68.68,0,0,1-.23.15.82.82,0,0,1-.32.06.9.9,0,0,1-.33-.06.63.63,0,0,1-.24-.15A.79.79,0,0,1,66,56.3a1.23,1.23,0,0,1-.08-.29A2.11,2.11,0,0,1,65.91,55.66Z"/><path class="cls-2" d="M67.72,56.68V53.63h.58v1.25h.41V53.63h.58v3.06h-.58V55.32H68.3v1.36Z"/><path class="cls-2" d="M69.55,56.68V53.63h.57v3.06Z"/><path class="cls-2" d="M70.38,56.68V53.63h.69a.64.64,0,0,1,.54.22,1,1,0,0,1,.17.64,1.63,1.63,0,0,1,0,.36.81.81,0,0,1-.1.25.51.51,0,0,1-.17.16.8.8,0,0,1-.22.09l-.28,0v1.31ZM71,54.94H71l.06,0,0,0,0,0,0,0,0-.06s0,0,0-.07,0-.06,0-.08v-.12s0-.08,0-.1a.79.79,0,0,0,0-.09.27.27,0,0,0,0-.08l0-.06,0,0-.07,0H71Z"/><path class="cls-2" d="M71.88,55.68v-1c0-.72.28-1.09.83-1.09s.83.36.83,1.09v1a2.26,2.26,0,0,1,0,.34,1.19,1.19,0,0,1-.09.29.84.84,0,0,1-.16.24.64.64,0,0,1-.24.15,1,1,0,0,1-.65,0,.64.64,0,0,1-.24-.15.76.76,0,0,1-.15-.23A1.31,1.31,0,0,1,71.9,56,2.11,2.11,0,0,1,71.88,55.68Zm1.09.14V54.5c0-.3-.09-.45-.26-.45a.2.2,0,0,0-.13,0,.23.23,0,0,0-.08.11.76.76,0,0,0,0,.14,1.23,1.23,0,0,0,0,.15v1.32c0,.3.08.45.25.45S73,56.12,73,55.82Z"/><path class="cls-2" d="M74,56.68V54.09h-.42v-.46H75v.46h-.41v2.59Z"/><path class="cls-2" d="M75.1,56.68V53.63h.57v2.63h.57v.42Z"/><path class="cls-2" d="M76.34,56.68V53.63h1.19v.43h-.61v.83h.43v.44h-.43v.94h.61v.42Z"/><rect class="cls-2" x="65.89" y="52.46" width="11.66" height="0.38"/><rect class="cls-2" x="66.01" y="57.45" width="11.66" height="0.38"/><path class="cls-3" d="M42.69,42.64h0a3.47,3.47,0,0,1-2.95-2.94,2.62,2.62,0,0,0,0-.28s0-.09,0-.13v.11a1.79,1.79,0,0,0-1.65-1.65,1.87,1.87,0,0,0-1.68,2v.13a3.47,3.47,0,0,1-2.91,2.76H33.3a4.12,4.12,0,0,0-4.2,4V62.93a4.12,4.12,0,0,0,4.2,4h9.39a4.12,4.12,0,0,0,4.2-4V46.68A4.12,4.12,0,0,0,42.69,42.64Z"/><path class="cls-2" d="M42.69,67.26H33.3a4.41,4.41,0,0,1-4.48-4.33V46.68a4.41,4.41,0,0,1,4.48-4.33h.16a3.19,3.19,0,0,0,2.66-2.5v-.1a2.15,2.15,0,0,1,2-2.3A2.05,2.05,0,0,1,40,39.28h0s0,.06,0,.09v0a2.71,2.71,0,0,1,0,.28,3.19,3.19,0,0,0,2.69,2.68,4.41,4.41,0,0,1,4.46,4.33V62.93A4.41,4.41,0,0,1,42.69,67.26ZM33.3,42.93a3.84,3.84,0,0,0-3.92,3.75V62.93a3.84,3.84,0,0,0,3.92,3.75h9.39a3.84,3.84,0,0,0,3.92-3.75V46.68a3.84,3.84,0,0,0-3.92-3.75h0a3.76,3.76,0,0,1-3.18-3.19v0c0-.08,0-.17,0-.25v0h0A1.51,1.51,0,0,0,38.07,38a1.58,1.58,0,0,0-1.39,1.72v.18a3.75,3.75,0,0,1-3.15,3H33.3Z"/><path class="cls-1" d="M41.07,40.39a1.24,1.24,0,0,1-1.27,1.22h-3.4a1.24,1.24,0,0,1-1.27-1.22V38.09a1.24,1.24,0,0,1,1.27-1.22h3.4a1.24,1.24,0,0,1,1.27,1.22Z"/><path class="cls-2" d="M39.8,41.84h-3.4a1.46,1.46,0,0,1-1.48-1.44V38.09a1.47,1.47,0,0,1,1.48-1.44h3.4a1.47,1.47,0,0,1,1.48,1.44v2.31A1.46,1.46,0,0,1,39.8,41.84Zm-3.4-4.74a1,1,0,0,0-1,1v2.31a1,1,0,0,0,1,1h3.4a1,1,0,0,0,1-1V38.09a1,1,0,0,0-1-1Z"/><path class="cls-3" d="M35.14,37.82s-.11,1,1,1"/><path class="cls-2" d="M36.14,39a1.2,1.2,0,0,1-1-.37,1.16,1.16,0,0,1-.25-.83l.43.05-.21,0,.21,0a.72.72,0,0,0,.15.48.81.81,0,0,0,.63.22Z"/><path class="cls-3" d="M41.07,37.82s.11,1-1,1"/><path class="cls-2" d="M40.07,39v-.45a.8.8,0,0,0,.63-.22.71.71,0,0,0,.14-.48l.43-.05a1.17,1.17,0,0,1-.25.83A1.2,1.2,0,0,1,40.07,39Z"/><path class="cls-3" d="M35.14,39.51s-.11,1,1,1"/><path class="cls-2" d="M36.14,40.69a1.09,1.09,0,0,1-1.21-1.21l.43.05-.22,0,.22,0a.71.71,0,0,0,.15.49.8.8,0,0,0,.63.22Z"/><path class="cls-3" d="M41.07,39.51s.11,1-1,1"/><path class="cls-2" d="M40.07,40.69v-.45a.81.81,0,0,0,.63-.22.71.71,0,0,0,.15-.49l.43-.05a1.17,1.17,0,0,1-.25.83A1.2,1.2,0,0,1,40.07,40.69Z"/><path class="cls-1" d="M42.74,47.2l.51-1-.31-.09a18.08,18.08,0,0,0-4.86-.64,18.87,18.87,0,0,0-5,.64l-.31.09.58,1c-1.23.15-2,.32-2,.32l-.28.06.28,5.92H44.66L45,47.59l-.29-.06c-.62-.12-1.27-.23-1.93-.32Z"/><path class="cls-2" d="M44.86,53.74H31.1l-.3-6.33.46-.1s.61-.14,1.69-.29l-.55-.92.58-.18a19.33,19.33,0,0,1,5.11-.65,18.27,18.27,0,0,1,4.91.65l.58.16-.49.94c.55.08,1.1.17,1.63.28l.48.1Zm-13.35-.45H44.45l.29-5.52-.1,0c-.63-.13-1.28-.24-1.92-.32l-.31,0,.53-1h0a17.89,17.89,0,0,0-4.8-.63,18.82,18.82,0,0,0-5,.63h0l.6,1-.34,0c-1.24.16-2,.32-2,.32l-.1,0Z"/><path class="cls-2" d="M32.28,51.65V48.77h.65a.6.6,0,0,1,.51.21,1,1,0,0,1,.16.61,1.54,1.54,0,0,1,0,.34.77.77,0,0,1-.1.24.49.49,0,0,1-.16.15.66.66,0,0,1-.21.08,1.18,1.18,0,0,1-.26,0v1.23ZM32.82,50h.08L33,50l0,0,0,0a.11.11,0,0,0,0,0v-.05a.48.48,0,0,0,0-.07s0-.05,0-.07v-.12s0-.07,0-.09,0,0,0-.08a.29.29,0,0,0,0-.07l0-.06a.11.11,0,0,0,0,0l-.07,0h-.09Z"/><path class="cls-2" d="M34,51.65V48.77h.54v2.88Z"/><path class="cls-2" d="M35.11,51.65V48.77h.54v2.48h.53v.4Z"/><path class="cls-2" d="M36.59,51.65V48.77h.54v2.88Z"/><path class="cls-2" d="M38.52,51.65V48.77h.65a.6.6,0,0,1,.51.21,1,1,0,0,1,.16.61,1.33,1.33,0,0,1,0,.34.79.79,0,0,1-.1.24.5.5,0,0,1-.16.15.68.68,0,0,1-.21.08,1.21,1.21,0,0,1-.27,0v1.23ZM39.06,50h.08l.06,0,0,0,0,0a.09.09,0,0,0,0,0v-.05a.48.48,0,0,0,0-.07.65.65,0,0,0,0-.07v-.21a.78.78,0,0,0,0-.08.21.21,0,0,0,0-.07l0-.06,0,0-.07,0h-.1Z"/><path class="cls-2" d="M40.27,51.65V48.77h.54v2.88Z"/><path class="cls-2" d="M41.36,51.65V48.77h.54v2.48h.53v.4Z"/><path class="cls-2" d="M42.83,51.65V48.77h.54v2.88Z"/><path d="M38.18,56.75s-2.65-.23-1.62,1.82-1.51,5.59-.78,5.08S41.25,57.38,38.18,56.75Z"/><polygon points="37.8 57 37.6 55.61 38.18 55.62 38.04 56.95 37.8 57"/><path d="M61,39.5h0a4.33,4.33,0,0,1-3.67-3.67,3,3,0,0,0,0-.35c0-.05,0-.11,0-.16v.14a2.23,2.23,0,0,0-2-2.05,2.32,2.32,0,0,0-2.09,2.5v.16a4.34,4.34,0,0,1-3.64,3.44H49.3a5.14,5.14,0,0,0-5.23,5V64.78a5.14,5.14,0,0,0,5.23,5H61a5.14,5.14,0,0,0,5.24-5V44.53A5.14,5.14,0,0,0,61,39.5Z"/><path class="cls-1" d="M59,36.7a1.55,1.55,0,0,1-1.58,1.52H53.18A1.55,1.55,0,0,1,51.6,36.7V33.83a1.55,1.55,0,0,1,1.58-1.52h4.23A1.55,1.55,0,0,1,59,33.83Z"/><path class="cls-2" d="M57.41,38.5H53.18a1.83,1.83,0,0,1-1.85-1.8V33.83A1.83,1.83,0,0,1,53.18,32h4.23a1.83,1.83,0,0,1,1.85,1.8V36.7A1.83,1.83,0,0,1,57.41,38.5Zm-4.23-5.91a1.28,1.28,0,0,0-1.31,1.24V36.7a1.28,1.28,0,0,0,1.31,1.24h4.23a1.28,1.28,0,0,0,1.31-1.24V33.83a1.28,1.28,0,0,0-1.31-1.24Z"/><path class="cls-3" d="M51.6,33.5s-.14,1.19,1.24,1.19"/><path class="cls-2" d="M52.84,35a1.5,1.5,0,0,1-1.2-.46,1.46,1.46,0,0,1-.31-1l.54.07-.27,0,.27,0a.89.89,0,0,0,.18.61,1,1,0,0,0,.79.28Z"/><path class="cls-3" d="M59,33.5s.14,1.19-1.24,1.19"/><path class="cls-2" d="M57.75,35v-.56a1,1,0,0,0,.79-.28.88.88,0,0,0,.18-.6l.54-.07a1.46,1.46,0,0,1-.31,1A1.5,1.5,0,0,1,57.75,35Z"/><path class="cls-3" d="M51.6,35.6s-.14,1.19,1.24,1.19"/><path class="cls-2" d="M52.84,37.07a1.5,1.5,0,0,1-1.2-.46,1.45,1.45,0,0,1-.31-1l.54.07-.27,0,.27,0a.89.89,0,0,0,.18.61,1,1,0,0,0,.79.27Z"/><path class="cls-3" d="M59,35.6s.14,1.19-1.24,1.19"/><path class="cls-2" d="M57.75,37.07v-.56a1,1,0,0,0,.79-.27.89.89,0,0,0,.18-.61l.54-.06a1.47,1.47,0,0,1-.31,1A1.5,1.5,0,0,1,57.75,37.07Z"/><path class="cls-3" d="M61.07,49.38l.63-2.22-.38-.2a13.12,13.12,0,0,0-6-1.46A13.9,13.9,0,0,0,49,47l-.38.21.72,2.2a17.37,17.37,0,0,0-2.5.74l-.35.14.35,13.53H63.45l.38-13.54-.36-.14a22.38,22.38,0,0,0-2.41-.74Z"/><path class="cls-2" d="M63.72,64.07H46.55l-.36-14,.53-.21h0A17.47,17.47,0,0,1,49,49.18L48.27,47l.58-.32a14.07,14.07,0,0,1,6.41-1.5,13.37,13.37,0,0,1,6.17,1.49L62,47l-.62,2.16c.72.19,1.45.41,2.16.68l.54.21Zm-16.63-.56h16.1l.37-13.07-.17-.06A22.4,22.4,0,0,0,61,49.65l-.28-.07.65-2.28-.18-.09a12.87,12.87,0,0,0-5.93-1.43,13.47,13.47,0,0,0-6.15,1.44l-.18.1.74,2.27-.29.07a17.79,17.79,0,0,0-2.45.73l-.18.07Z"/><path class="cls-2" d="M48.89,60.25V52.16h1.55a5.17,5.17,0,0,1,.74,0,2.43,2.43,0,0,1,.63.18,1.5,1.5,0,0,1,.51.37,1.75,1.75,0,0,1,.32.61,2.93,2.93,0,0,1,.12.89,1.61,1.61,0,0,1-.28,1,1.83,1.83,0,0,1-.87.58,1.83,1.83,0,0,1,1.34,2,2.58,2.58,0,0,1-.54,1.8,2.17,2.17,0,0,1-1.66.59Zm1.51-4.91h.26a.65.65,0,0,0,.35-.09.52.52,0,0,0,.22-.25,1.47,1.47,0,0,0,.1-.36,3,3,0,0,0,0-.44,2,2,0,0,0,0-.36,2,2,0,0,0-.06-.25.38.38,0,0,0-.11-.17l-.14-.1a.59.59,0,0,0-.19,0l-.2,0h-.23Zm0,3.75h.14A1.32,1.32,0,0,0,51,59a.55.55,0,0,0,.28-.25,1.2,1.2,0,0,0,.13-.41,4.52,4.52,0,0,0,0-.61,2,2,0,0,0-.21-1,.75.75,0,0,0-.71-.35h-.15Z"/><path class="cls-2" d="M53.24,60.25V52.16h1.55a5.13,5.13,0,0,1,.74,0,2.45,2.45,0,0,1,.63.18,1.5,1.5,0,0,1,.51.37,1.72,1.72,0,0,1,.32.61,2.89,2.89,0,0,1,.12.89,1.6,1.6,0,0,1-.28,1,1.82,1.82,0,0,1-.86.58,1.83,1.83,0,0,1,1.34,2,2.58,2.58,0,0,1-.54,1.8,2.16,2.16,0,0,1-1.66.59Zm1.51-4.91H55a.66.66,0,0,0,.35-.09.53.53,0,0,0,.21-.25,1.39,1.39,0,0,0,.1-.36,2.92,2.92,0,0,0,0-.44,2.1,2.1,0,0,0,0-.36,1.57,1.57,0,0,0-.06-.25.39.39,0,0,0-.11-.17l-.14-.1a.56.56,0,0,0-.18,0l-.2,0h-.24Zm0,3.75h.14a1.31,1.31,0,0,0,.48-.07.56.56,0,0,0,.28-.25,1.32,1.32,0,0,0,.13-.41,4.6,4.6,0,0,0,0-.61,2,2,0,0,0-.21-1,.75.75,0,0,0-.7-.35h-.15Z"/><path class="cls-2" d="M57.48,57.59V54.87a5.52,5.52,0,0,1,.07-.92,3.24,3.24,0,0,1,.23-.79,2.07,2.07,0,0,1,.41-.62,1.75,1.75,0,0,1,.63-.4,2.67,2.67,0,0,1,1.74,0,1.73,1.73,0,0,1,.63.4,2,2,0,0,1,.41.62,3.29,3.29,0,0,1,.23.79,5.53,5.53,0,0,1,.07.92v2.68A3.16,3.16,0,0,1,61,60c.08.19.33.29.74.29v1a1.8,1.8,0,0,1-1.67-.91l-.41,0a2.19,2.19,0,0,1-1-.21,1.75,1.75,0,0,1-.69-.59,2.79,2.79,0,0,1-.39-.89A4.54,4.54,0,0,1,57.48,57.59Zm2.91.36V54.46a2.7,2.7,0,0,0,0-.41,1.8,1.8,0,0,0-.1-.38.67.67,0,0,0-.22-.3.62.62,0,0,0-.7,0,.64.64,0,0,0-.22.3A2,2,0,0,0,59,54a2.81,2.81,0,0,0,0,.41V58c0,.79.23,1.19.7,1.19S60.39,58.74,60.39,58Z"/></svg>