<?xml version="1.0" encoding="utf-8"?>
<!-- Generator: Adobe Illustrator 21.1.0, SVG Export Plug-In . SVG Version: 6.00 Build 0)  -->
<svg version="1.1" id="Layer_1" xmlns="http://www.w3.org/2000/svg" xmlns:xlink="http://www.w3.org/1999/xlink" x="0px" y="0px"
	 viewBox="0 0 106 106" style="enable-background:new 0 0 106 106;" xml:space="preserve">
<style type="text/css">
	.st0{fill:#231F20;}
	.st1{fill:#FFFFFF;}
	.st2{fill:#FFE500;}
</style>
<title>toppings-icon</title>
<path class="st0" d="M46.6,31.5c0,0,1.5,6.8,15.5,9s11.7-12.8,10.3-14C72.4,26.5,52.4,26,46.6,31.5z"/>
<path class="st1" d="M64.7,41.1L64.7,41.1c-0.9,0-1.8-0.1-2.7-0.2c-7.3-1.2-11.2-3.6-13.1-5.4c-1.2-1-2.1-2.4-2.6-3.9v-0.2l0.1-0.1
	c4.8-4.6,18.8-5.1,24.5-5.1h1.6l0.1,0.1c0.8,0.7,1.8,5.4,0.5,9.3C72.2,38.1,70.1,41.1,64.7,41.1z M47,31.6c0.5,1.3,1.3,2.5,2.4,3.4
	c1.9,1.8,5.7,4.1,12.8,5.2c0.9,0.1,1.7,0.2,2.6,0.2c5,0,7-2.8,7.8-5.1c1.2-3.5,0.4-7.7-0.2-8.5h-1.4C66.5,26.8,51.9,27.2,47,31.6z"
	/>
<path class="st2" d="M47.4,29.7c0,0,1.7-0.5,1.7-1.8s8.8-2.5,11.7-3s15-1.7,11.4,5.2s-10.8,8-16.7,5.1s-6.7-1.9-7.1-1.8
	S45.3,31.3,47.4,29.7z"/>
<path class="st1" d="M61.7,37.1c-2.2,0-4.3-0.5-6.3-1.5c-2.7-1.3-4.7-2-5.9-2c-0.3,0-0.6,0-0.8,0.1c-0.1,0-0.2,0.1-0.2,0.1h-0.1
	c-0.9-0.3-1.7-1.1-2-2c-0.3-0.9,0.1-1.8,0.9-2.3l0,0h0c0,0,1.4-0.4,1.4-1.5s2.7-1.9,10.7-3.1l1.3-0.2c1.7-0.3,3.3-0.4,5-0.4
	c3.8,0,6.2,0.8,7.1,2.3c0.6,1,0.5,2.3-0.3,3.8C70.4,34.5,66.2,37.1,61.7,37.1z M49.5,32.9c1.3,0,3.4,0.7,6.2,2.1
	c1.9,0.9,3.9,1.4,6,1.5C66,36.5,70,34,71.9,30c0.7-1.3,0.8-2.4,0.4-3.2c-0.9-1.6-4.1-2-6.5-2c-1.6,0-3.3,0.1-4.9,0.4l-1.3,0.2
	c-1.8,0.3-4.3,0.7-6.4,1.1c-3.5,0.8-3.8,1.3-3.8,1.3c0,1.4-1.5,2-1.8,2.1c-0.5,0.3-0.7,0.9-0.6,1.4c0.2,0.7,0.7,1.3,1.4,1.7h0.1
	C48.8,32.9,49.1,32.9,49.5,32.9L49.5,32.9z"/>
<path class="st0" d="M57.8,32.2c0,0-0.9-5.9,4.9-5.9s5.8,3.5,4.4,4.7C65.7,32.1,62.4,35.6,57.8,32.2z"/>
<path class="st1" d="M61.7,34c-1.5,0-2.9-0.6-4.1-1.5l-0.1-0.1v-0.1c-0.2-1.6,0.1-3.3,1.1-4.6c1-1.2,2.6-1.8,4.1-1.7h0.1
	c3.8,0,4.9,1.5,5.2,2.4c0.3,1,0,2.2-0.8,2.9l-0.4,0.3C65.9,32.4,64.1,34,61.7,34z M58.1,32c1,0.8,2.3,1.3,3.6,1.3
	c2.1,0,3.8-1.5,4.8-2.3l0.4-0.3c0.6-0.5,0.8-1.4,0.6-2.1c-0.4-1.3-2.1-2-4.6-2h-0.1C61.4,26.5,60,27,59.1,28
	C58.3,29.2,57.9,30.6,58.1,32z"/>
<path class="st2" d="M27,52.2c0.1,0.1,0.3,0.1,0.5-0.1c1-1,2.2-1.8,3.6-2.3c0.3-0.1,0.5,0,0.8,0.1c0.2,0.1,0.4,0.4,0.5,0.6l0.7,2.5
	c0,0.2,0.2,0.3,0.4,0.3c0.2,0,0.3-0.2,0.3-0.3l0.7-2.5c0.1-0.3,0.2-0.5,0.5-0.6c0.2-0.1,0.5-0.2,0.8-0.1c1.4,0.5,2.6,1.3,3.6,2.3
	c0.1,0.1,0.3,0.1,0.5,0.1c0.1-0.1,0.2-0.3,0.2-0.4c-0.1-0.8-0.5-1.5-1.1-2.1c-1-0.9-2.1-1.5-3.4-1.7l-0.4-0.1
	c-0.2,0-0.4-0.2-0.5-0.3c-0.1-0.2-0.1-0.4,0-0.6l0.7-1.2c0.1-0.2,0.1-0.5,0-0.7c-0.1-0.2-0.3-0.4-0.6-0.4c-0.3,0-0.6,0.2-0.7,0.5
	l-1,2c-0.2,0.4-0.7,0.8-1.2,0.8c-0.2,0-0.4,0.1-0.6,0.1c-1.4,0.3-2.6,1-3.5,2c-0.4,0.5-0.7,1.1-0.8,1.8C26.9,52,26.9,52.2,27,52.2
	L27,52.2z"/>
<path d="M75,60.6l-12.2,8c0,0,1.4,10.7,1.7,10.5c0.3-0.2,16-2.2,16-2.2l3.6-0.8L83,70.3l-1.9-4l1-3l0.2-2.9l-3.5-0.8L75,60.6z"/>
<path d="M40.3,50.5c0.2,0.4,0.3,0.7,0.3,1.1c0.1,0.5-0.2,1.1-0.6,1.3c-0.5,0.3-1.1,0.2-1.4-0.2c-0.9-0.9-2-1.6-3.2-2.1
	c-0.1,0-0.1,0-0.1,0c0,0-0.1,0.1-0.1,0.1l-0.7,2.5c-0.1,0.7-0.8,1.1-1.5,0.9c-0.5-0.1-0.8-0.5-0.9-0.9l-0.6-2.5c0,0,0-0.1-0.1-0.1
	h-0.1c-1.2,0.4-2.4,1.1-3.3,2.1c-0.2,0.2-0.5,0.4-0.9,0.4c-0.2,0-0.4,0-0.6-0.1c-0.5-0.3-0.7-0.8-0.7-1.3c0-0.3,0.1-0.5,0.2-0.8
	c-2.5,1.8-3.9,4.7-3.8,7.8c-0.1,6.3,4.9,11.5,11.2,11.6c0,0,0,0,0,0c6.3-0.1,11.3-5.3,11.2-11.6c0,0,0,0,0,0
	C44.9,55.3,43.2,52.2,40.3,50.5L40.3,50.5z M24.8,62.2c-0.5,0-0.9-0.4-0.9-0.9c0-0.5,0.4-0.9,0.9-0.9s0.9,0.4,0.9,0.9c0,0,0,0,0,0
	C25.7,61.8,25.3,62.2,24.8,62.2z M26.1,55.4c-0.7,1.1-0.9,2.3-0.8,3.6c0,0.5-0.3,0.9-0.8,1l0,0c-0.5,0-0.8-0.4-0.9-0.9
	c-0.2-1.7,0.2-3.3,1.2-4.7c0.3-0.4,0.8-0.5,1.2-0.2c0,0,0,0,0,0C26.4,54.5,26.5,55.1,26.1,55.4L26.1,55.4z"/>
<path class="st2" d="M84.1,66.2l-0.9-4.7c-1.6-2.9-5.7-2.4-7.7-2c-0.6,0.1-1,0.2-1,0.2l-14.8,10l0.6,3.2l0.2-0.1
	c0.7-0.1,1.3,0.3,1.5,1c0,0,0,0,0,0c0.1,0.7-0.3,1.4-1,1.5h-0.2l1.3,6.7l5-1c-0.1-0.7,0.4-1.4,1.1-1.6c0.7-0.1,1.4,0.3,1.6,1
	l16.4-3.4l-1.4-7.2c-0.9-0.1-1.6-0.8-1.7-1.6C82.9,67.4,83.3,66.5,84.1,66.2L84.1,66.2z M67.7,75.8c-0.3,0.1-0.6-0.2-0.7-0.5
	c-0.1-0.3,0.1-0.7,0.5-0.7c0.3-0.1,0.6,0.1,0.7,0.5c0,0,0,0,0,0C68.2,75.4,68,75.8,67.7,75.8z M68.2,70.7c-0.5,0.6-1.4,0.6-2,0
	c-0.2-0.2-0.4-0.5-0.4-0.8c-0.2-0.8,0.3-1.6,1.1-1.7c0.5-0.1,1,0.1,1.4,0.5c0.2-0.3,0.5-0.4,0.9-0.5c0.8-0.2,1.7,0.3,1.9,1.2
	c0,0,0,0,0,0c0.2,0.9-0.4,1.7-1.2,1.9C69.2,71.5,68.6,71.2,68.2,70.7L68.2,70.7z M72.1,76.5c-0.4,0.1-0.8-0.2-0.9-0.6c0,0,0,0,0,0
	c-0.1-0.4,0.2-0.8,0.6-0.9c0.4-0.1,0.8,0.2,0.9,0.6c0,0,0,0,0,0C72.8,76,72.5,76.4,72.1,76.5z M78.1,74c-1.3,0.2-2.6-0.6-2.8-1.9
	c0,0,0,0,0-0.1c-0.3-1.3,0.6-2.6,1.9-2.9c1.3-0.2,2.6,0.6,2.8,1.9c0,0,0,0,0,0C80.3,72.3,79.5,73.7,78.1,74C78.1,74,78.1,74,78.1,74
	L78.1,74z M83,75.4c-0.3,0.1-0.6-0.1-0.7-0.5c0,0,0,0,0,0c-0.1-0.3,0.1-0.6,0.4-0.7c0.3-0.1,0.6,0.1,0.7,0.5c0,0,0,0,0,0
	C83.5,75,83.3,75.3,83,75.4L83,75.4z M66.3,66.5l8.7-5.9c0.2,0,0.4-0.1,0.8-0.2c1.3-0.3,4.3-0.7,5.9,0.7L66.3,66.5z"/>
</svg>
