<svg id="Layer_1" data-name="Layer 1" xmlns="http://www.w3.org/2000/svg" viewBox="0 0 93.97 76.97"><defs><style>.cls-1{fill:#fff;}.cls-2{fill:#ffe400;}</style></defs><title>topping</title><path class="cls-1" d="M643.25,271.76l-.34-5q-.36-5.39,3.39-6.26a3.62,3.62,0,0,1,1.42-.08,2.39,2.39,0,0,1,1.08.45,2.86,2.86,0,0,1,.76.92,5.33,5.33,0,0,1,.48,1.3,10.32,10.32,0,0,1,.23,1.63l.09,1.31-2.57.6-.09-1.4c0-.28,0-.51-.06-.71a5.56,5.56,0,0,0-.12-.67,2.36,2.36,0,0,0-.21-.58.85.85,0,0,0-.34-.34.68.68,0,0,0-.5-.05q-1.13.27-1,2.51l.44,6.56c.1,1.49.53,2.15,1.28,2a1,1,0,0,0,.55-.36,1.61,1.61,0,0,0,.29-.72,6.66,6.66,0,0,0,.08-.85c0-.27,0-.58,0-.93l-.11-1.56,2.56-.6.08,1.28a12.89,12.89,0,0,1,0,1.63,7.83,7.83,0,0,1-.27,1.51,4.92,4.92,0,0,1-.58,1.32,3.74,3.74,0,0,1-1,1,4,4,0,0,1-1.43.63,3.61,3.61,0,0,1-1.51.06,2.43,2.43,0,0,1-1.12-.51,3.12,3.12,0,0,1-.77-1,5.72,5.72,0,0,1-.48-1.37A11,11,0,0,1,643.25,271.76Z" transform="translate(-603.26 -250.52)"/><path class="cls-1" d="M652.18,274.83l-1-15.2,2.61-.61.41,6.23,1.87-.44-.41-6.23,2.63-.61,1,15.2-2.63.61-.45-6.78-1.87.44.46,6.78Z" transform="translate(-603.26 -250.52)"/><path class="cls-1" d="M660.33,267.86l-.34-5.11q-.36-5.39,3.42-6.27t4.14,4.51l.34,5a11.89,11.89,0,0,1,0,1.71,7.3,7.3,0,0,1-.29,1.56,5.05,5.05,0,0,1-.62,1.34,3.83,3.83,0,0,1-1,1,4.37,4.37,0,0,1-1.48.63,3.67,3.67,0,0,1-1.5.07,2.42,2.42,0,0,1-1.13-.49,3.11,3.11,0,0,1-.78-1,5.61,5.61,0,0,1-.49-1.36A10.46,10.46,0,0,1,660.33,267.86Zm5-.46-.44-6.57q-.15-2.24-1.32-2a1.07,1.07,0,0,0-.58.35,1.51,1.51,0,0,0-.32.65,4.53,4.53,0,0,0-.12.75,6.43,6.43,0,0,0,0,.77l.44,6.57c.1,1.49.54,2.15,1.31,2S665.42,268.89,665.32,267.4Z" transform="translate(-603.26 -250.52)"/><path class="cls-1" d="M669.09,265.82l-.34-5.11q-.36-5.39,3.42-6.27t4.14,4.51l.33,5a11.61,11.61,0,0,1,0,1.71,7.16,7.16,0,0,1-.29,1.56,4.9,4.9,0,0,1-.62,1.34,3.78,3.78,0,0,1-1,1,4.33,4.33,0,0,1-1.48.63,3.74,3.74,0,0,1-1.5.07,2.43,2.43,0,0,1-1.13-.49,3.09,3.09,0,0,1-.78-1,5.67,5.67,0,0,1-.49-1.36A10.79,10.79,0,0,1,669.09,265.82Zm5-.46-.44-6.57q-.15-2.25-1.32-2a1.08,1.08,0,0,0-.58.35,1.46,1.46,0,0,0-.32.65,4.55,4.55,0,0,0-.12.75,5.87,5.87,0,0,0,0,.77l.44,6.57q.15,2.24,1.31,2T674.09,265.36Z" transform="translate(-603.26 -250.52)"/><path class="cls-1" d="M677.62,264.49l2.61-1.22c0,.31,0,.58.07.82a6.47,6.47,0,0,0,.13.76,2.79,2.79,0,0,0,.21.65,1,1,0,0,0,.32.38.56.56,0,0,0,.46.08q.77-.18.7-1.35a3.84,3.84,0,0,0-1.74-2.82l-.87-.62c-.27-.19-.49-.36-.66-.49a6.79,6.79,0,0,1-.59-.56,3.66,3.66,0,0,1-.54-.72,4.6,4.6,0,0,1-.37-.9,5.29,5.29,0,0,1-.21-1.17,4.77,4.77,0,0,1,.8-3.16,4.2,4.2,0,0,1,2.58-1.69,2.56,2.56,0,0,1,2.41.6,3.57,3.57,0,0,1,1.15,2.55v.11l0,.26-2.67,1.07c0-.06,0-.16,0-.29s0-.24,0-.33a4.29,4.29,0,0,0-.07-.57,3.41,3.41,0,0,0-.16-.53.8.8,0,0,0-.28-.38.52.52,0,0,0-.43-.07.87.87,0,0,0-.62.55,2.14,2.14,0,0,0-.15,1,2.91,2.91,0,0,0,.18.86,2.23,2.23,0,0,0,.43.68,4.9,4.9,0,0,0,.51.49c.15.12.36.27.61.44l.54.38a9.35,9.35,0,0,1,1,.86,6.5,6.5,0,0,1,.79,1,4.59,4.59,0,0,1,.6,1.25,6.55,6.55,0,0,1,.28,1.55,4.2,4.2,0,0,1-.79,2.84,3.85,3.85,0,0,1-2.29,1.57,3.06,3.06,0,0,1-1.62,0,2.48,2.48,0,0,1-1.19-.79,4.55,4.55,0,0,1-.75-1.32A6.88,6.88,0,0,1,677.62,264.49Z" transform="translate(-603.26 -250.52)"/><path class="cls-1" d="M685.92,267l-1-15.2,5.39-1.26.14,2.11-2.78.65.27,4.14,2-.46.14,2.16-2,.46.31,4.68,2.78-.65.14,2.11Z" transform="translate(-603.26 -250.52)"/><path class="cls-2" d="M636.58,282.52a6.73,6.73,0,0,1-2.34,3.08c-.56,2.4-1.2,6.89-1.54,15.75C632,320,626.43,325.67,621.38,327s-7.46-1.55-7.63-5c-.16-3.28,1.58-7,4.64-7.86l.26,3.4c-1.39.38-2.19,2.27-2.1,4.08.11,2.18,1.52,4.24,4.83,3.34,3.47-.95,7.35-4.63,8.14-22.77.31-7.48,1.2-12.3,2.2-15.4l-.7.19c-4.64,1.27-9.48.26-16,2-6.06,1.65-8.84,8.25-8.59,13.48.21,4.37,2.52,7.82,6.84,6.64s5.72-5.37,5.51-9.66c0-.68-.1-1.35-.2-2l2.81-1.38c.1.74.2,1.47.24,2.22.27,5.5-1.71,11-8.24,12.73-6.37,1.73-9.75-2.61-10-8.18-.31-6.4,3.52-14.46,11.6-16.66,6.82-1.86,12.39-.29,16.33-1.36.54-.14,1-.3,1.38-.45a6.91,6.91,0,0,1,2.72-3.26Z" transform="translate(-603.26 -250.52)"/><path class="cls-2" d="M618.94,327.49c-3.7,0-5.15-2.82-5.28-5.46-.15-3.21,1.56-7.06,4.7-7.95l.1,0,.27,3.58-.07,0c-1.43.39-2.12,2.35-2,4s1,3.47,3.25,3.47a5.63,5.63,0,0,0,1.47-.21c3.34-.91,7.28-4.31,8.07-22.69.27-6.47,1-11.61,2.15-15.27l-.55.15a30.47,30.47,0,0,1-6.65.8,41.31,41.31,0,0,0-9.36,1.24c-5.88,1.6-8.78,8.1-8.52,13.39.16,3.28,1.59,6.79,5.12,6.79a6.15,6.15,0,0,0,1.61-.23c3.71-1,5.69-4.5,5.45-9.57,0-.67-.1-1.34-.2-2v-.06l3-1.46,0,.12c.1.72.2,1.47.24,2.23.19,3.89-.64,10.74-8.3,12.82a10.38,10.38,0,0,1-2.72.39A6.61,6.61,0,0,1,605.3,309a10.62,10.62,0,0,1-2-6.11,17.66,17.66,0,0,1,2.67-10,15.27,15.27,0,0,1,9-6.79,31.39,31.39,0,0,1,8.44-1l1.92,0,1.69,0a16.63,16.63,0,0,0,4.28-.41c.5-.14.91-.28,1.35-.44a7.24,7.24,0,0,1,2.74-3.26l.06,0,1.27,1.49,0,0a6.82,6.82,0,0,1-2.35,3.1,94.65,94.65,0,0,0-1.53,15.7c-.33,8.45-1.69,15-4.05,19.36-1.85,3.44-4.31,5.6-7.33,6.42A9.41,9.41,0,0,1,618.94,327.49Zm-.63-13.21c-3,.92-4.63,4.64-4.48,7.74.12,2.55,1.53,5.29,5.11,5.29a9.25,9.25,0,0,0,2.41-.35c3-.81,5.4-2.94,7.23-6.34,2.34-4.37,3.7-10.85,4-19.28.28-7.24.8-12.54,1.54-15.77v0l0,0a6.65,6.65,0,0,0,2.29-3l-1.11-1.3a7.21,7.21,0,0,0-2.62,3.19v0h0c-.45.16-.87.31-1.39.46a16.73,16.73,0,0,1-4.33.42l-1.69,0-1.92,0a31.19,31.19,0,0,0-8.4,1c-7.91,2.16-11.85,10.15-11.53,16.57.2,4.1,2.2,8.48,7.24,8.48a10.22,10.22,0,0,0,2.68-.38c7.54-2.05,8.36-8.8,8.17-12.64,0-.71-.13-1.42-.22-2.1l-2.65,1.3c.09.68.15,1.34.19,2,.25,5.16-1.78,8.72-5.58,9.75a6.32,6.32,0,0,1-1.65.24c-3,0-5.09-2.73-5.29-7a15.43,15.43,0,0,1,1.94-8.13A11.11,11.11,0,0,1,615,289a41.4,41.4,0,0,1,9.39-1.25,30.45,30.45,0,0,0,6.62-.79l.85-.23,0,.15c-1.18,3.66-1.92,8.83-2.19,15.37-.8,18.5-4.8,21.93-8.2,22.86a5.79,5.79,0,0,1-1.51.22c-2.39,0-3.34-1.88-3.42-3.64s.62-3.7,2.1-4.15Z" transform="translate(-603.26 -250.52)"/><path class="cls-2" d="M646.69,302.53a9.62,9.62,0,0,1-3.44,5.47c-.94,3-2.47,5.1-4.49,5.65-2.18.59-3.26-1.86-3.42-5.29a27.37,27.37,0,0,1,.65-7l1.15,0c.21-3,1.41-5.88,3.65-6.49s3.36,2,3.52,5.41a25.22,25.22,0,0,1-.53,5.64,6.9,6.9,0,0,0,2-3.75C646,302.2,646.68,302.31,646.69,302.53Zm-6.31,6.29c-1.35-.24-2.28-1.52-2.81-3.2a15.42,15.42,0,0,0,0,1.65c.11,2.22.69,3.63,1.48,3.41a.73.73,0,0,0,.25-.11A3.83,3.83,0,0,0,640.38,308.83Zm-1.55-5.72c.1,2,.7,3.86,2.14,4a24.54,24.54,0,0,0,.85-6.95c-.08-1.69-.49-2.88-1.37-2.64-.06,0-.16.08-.22.1C639.31,298.06,638.7,300.7,638.82,303.11Z" transform="translate(-603.26 -250.52)"/><path class="cls-2" d="M638.13,313.83c-1.66,0-2.71-2-2.88-5.46a27.54,27.54,0,0,1,.65-7v-.07l1.14,0c.21-2.71,1.28-5.82,3.71-6.48a2.23,2.23,0,0,1,.6-.09c1.68,0,2.87,2.19,3,5.58a24.9,24.9,0,0,1-.48,5.41,7.32,7.32,0,0,0,1.78-3.54v0h.19c.23,0,.85.09.87.38h0a9.8,9.8,0,0,1-3.46,5.51c-1,3.17-2.55,5.14-4.54,5.68A2.48,2.48,0,0,1,638.13,313.83Zm-2.08-12.34a27.42,27.42,0,0,0-.63,6.87c.16,3.36,1.15,5.29,2.71,5.29a2.3,2.3,0,0,0,.6-.08c1.93-.53,3.46-2.46,4.43-5.59v0l0,0a9.59,9.59,0,0,0,3.41-5.41c0-.09-.39-.21-.7-.21h-.06a7.07,7.07,0,0,1-2,3.74l-.18.15,0-.24a25.61,25.61,0,0,0,.53-5.61c-.16-3.29-1.29-5.41-2.87-5.41a2.13,2.13,0,0,0-.55.08c-2.36.64-3.4,3.73-3.59,6.41v.08Zm2.82,9.3h0c-.76,0-1.3-1.35-1.41-3.52a15.27,15.27,0,0,1,0-1.65l0-.46.14.44c.4,1.28,1.2,2.87,2.74,3.14l.11,0,0,.1a3.76,3.76,0,0,1-1.13,1.79.8.8,0,0,1-.26.11h0Zm-1.24-4.72c0,.42,0,.82,0,1.19.1,2,.59,3.35,1.24,3.35h0l.13,0h0a.67.67,0,0,0,.21-.09,3.49,3.49,0,0,0,1-1.61C639.12,308.64,638.22,307.68,637.63,306.08Zm3.39,1.08H641c-1.29-.09-2.1-1.56-2.22-4-.11-2.29.44-5.09,1.44-5.61h0l.09,0,.12-.05a.88.88,0,0,1,.24,0c.73,0,1.16,1,1.24,2.75a24.76,24.76,0,0,1-.85,7Zm-.78-9.5c-.83.45-1.46,3-1.34,5.44.05,1.11.36,3.68,2,3.87a24.58,24.58,0,0,0,.83-6.84c0-1-.25-2.59-1.07-2.59l-.2,0-.09,0Z" transform="translate(-603.26 -250.52)"/><path class="cls-2" d="M649,293.09l-.15,2.1c.75-1.73,1.65-2.89,2.66-3.16,1.76-.48,2.63,1.53,2.77,4.43a26.66,26.66,0,0,1-2.46,12c2.71-1.5,4-5.18,5-9.19.19-.05.9.06.91.29-1.23,4.95-2.95,9.77-6.83,10.82a2.64,2.64,0,0,1-3.29-1.28l-1.2,13.52-2.11.58c0-.11,0-.22,0-.37a48.3,48.3,0,0,1,.84-9.65c.64-7.35,1.43-16.79,1.49-19.4Zm-4.57,28.55c0,.23,0,.47,0,.54S644.43,321.91,644.45,321.64Zm.08-1a3,3,0,0,0,0,.47A3.83,3.83,0,0,1,644.53,320.67ZM648,304.8a5.3,5.3,0,0,0,0,.72c.06,1.2.37,2.26,1.22,2,1.45-.39,2.48-6.93,2.31-10.39-.07-1.39-.3-2.32-.81-2.18-.95.26-1.83,2.56-2.44,6.5Z" transform="translate(-603.26 -250.52)"/><path class="cls-2" d="M644.25,323.27v-.11c0-.07,0-.14,0-.21v-.16a49.77,49.77,0,0,1,.84-9.67c.94-10.81,1.44-17.33,1.49-19.39v-.07l2.54-.69-.13,1.75c.76-1.6,1.6-2.53,2.52-2.78a2,2,0,0,1,.52-.08c1.38,0,2.21,1.63,2.36,4.59A26.93,26.93,0,0,1,652,308.19c2.61-1.63,3.86-5.44,4.73-9v-.05h0l.15,0c.23,0,.85.09.87.38h0c-1.25,5-2.95,9.81-6.89,10.88a3.89,3.89,0,0,1-1,.14,2.54,2.54,0,0,1-2.24-1.23l-1.18,13.32Zm.13-1.09c0,.2,0,.4,0,.6V323l2-.53,1.22-13.75.13.25a2.4,2.4,0,0,0,2.23,1.37,3.75,3.75,0,0,0,1-.14c3.85-1,5.53-5.78,6.76-10.74,0-.09-.38-.21-.69-.21h-.06c-.91,3.67-2.22,7.62-5,9.19l-.25.14.13-.26a26.49,26.49,0,0,0,2.45-11.91c-.13-2.81-.93-4.42-2.19-4.42a1.85,1.85,0,0,0-.48.07c-.93.25-1.83,1.33-2.61,3.12l-.2.46.18-2.48-2.19.6c-.06,2.13-.56,8.63-1.49,19.34a54.57,54.57,0,0,0-.87,8.49h.16c0,.12,0,.22,0,.3a2.19,2.19,0,0,0,0,.23h-.12Zm0-1h0a1.67,1.67,0,0,1,0-.33s0-.06,0-.09v-.05l.17,0v.13a2.68,2.68,0,0,0,0,.32h-.17Zm4.6-13.46h0c-.64,0-1-.74-1.08-2.15a5.14,5.14,0,0,1,0-.74l.29-3.32c.61-4,1.5-6.3,2.5-6.57l.12,0c.46,0,.72.75.8,2.28.16,3.28-.82,10.06-2.37,10.48A1,1,0,0,1,649,307.68Zm1.82-12.62h-.07c-.92.25-1.78,2.59-2.37,6.43l-.29,3.31a5.43,5.43,0,0,0,0,.71c0,.74.2,2,.91,2l.2,0c1.37-.37,2.42-6.79,2.25-10.31C651.37,295.33,651,295.06,650.83,295.06Z" transform="translate(-603.26 -250.52)"/><path class="cls-2" d="M660.09,290.07l-.15,2.1c.75-1.73,1.65-2.89,2.66-3.16,1.77-.48,2.63,1.53,2.77,4.43a26.67,26.67,0,0,1-2.46,12c2.71-1.5,4-5.18,5-9.19.19-.05.9.06.91.29-1.23,5-2.95,9.76-6.83,10.82a2.64,2.64,0,0,1-3.29-1.28l-1.2,13.52-2.11.57c0-.11,0-.22,0-.37a48.41,48.41,0,0,1,.84-9.65c.63-7.34,1.43-16.79,1.49-19.4Zm-4.56,28.55c0,.23,0,.47,0,.54S655.5,318.9,655.52,318.63Zm.08-1a2.78,2.78,0,0,0,0,.47A3.14,3.14,0,0,1,655.61,317.65Zm3.48-15.86a5.31,5.31,0,0,0,0,.73c.06,1.2.37,2.26,1.22,2,1.45-.39,2.48-6.93,2.31-10.39-.07-1.39-.3-2.32-.81-2.18-.95.26-1.83,2.56-2.44,6.5Z" transform="translate(-603.26 -250.52)"/><path class="cls-2" d="M655.33,320.26v-.15c0-.1,0-.2,0-.33a50,50,0,0,1,.84-9.67c1-11,1.44-17.34,1.49-19.39v-.07l2.54-.69-.13,1.75c.75-1.57,1.62-2.53,2.52-2.78a2,2,0,0,1,.52-.07c1.38,0,2.21,1.63,2.36,4.59a27,27,0,0,1-2.34,11.74c2.61-1.63,3.86-5.45,4.73-9v0l0,0,.16,0c.23,0,.85.09.86.38h0c-1.25,5-3,9.81-6.89,10.89a3.82,3.82,0,0,1-1,.14,2.54,2.54,0,0,1-2.24-1.23l-1.18,13.32Zm.13-1.09c0,.2,0,.4,0,.6V320l2-.53,1.22-13.75.13.26a2.41,2.41,0,0,0,2.23,1.37,3.72,3.72,0,0,0,1-.14c3.85-1.05,5.53-5.78,6.76-10.74,0-.09-.38-.21-.69-.21H668c-.91,3.67-2.22,7.62-5.05,9.19l-.25.13.13-.26a26.54,26.54,0,0,0,2.45-11.91c-.14-2.81-.94-4.42-2.19-4.42a1.77,1.77,0,0,0-.48.07c-.93.25-1.83,1.33-2.6,3.12l-.2.46.18-2.48-2.19.6c-.06,2.12-.55,8.45-1.49,19.34a54.3,54.3,0,0,0-.87,8.49h.16c0,.1,0,.2,0,.27s0,.21,0,.26h-.12Zm0-1v0a2.25,2.25,0,0,1,0-.31s0-.06,0-.09v-.05l.17,0a.46.46,0,0,0,0,.05v.07a3,3,0,0,0,0,.31v0Zm4.61-13.46h0c-.64,0-1-.74-1.08-2.15a5,5,0,0,1,0-.74l.29-3.32c.61-4,1.5-6.3,2.5-6.58l.12,0c.46,0,.72.75.8,2.28.16,3.28-.82,10.06-2.37,10.48A1,1,0,0,1,660.08,304.67ZM661.91,292h-.08c-.92.25-1.78,2.59-2.37,6.43l-.29,3.32a5.24,5.24,0,0,0,0,.71c0,.74.2,2,.91,2h0l.21,0c1.37-.37,2.42-6.79,2.25-10.3C662.44,292.32,662.1,292,661.91,292Z" transform="translate(-603.26 -250.52)"/><path class="cls-2" d="M672,286.83c-.82,6.17-1.53,10.79-1.37,13.88.05,1.09.41,1.19.69,1.11.82-.22,1.76-2.62,2.94-7.32.16,0,.9,0,.91.25v0c-1.18,4.67-2.07,9.34-4.66,10-1.71.46-2.36-1.27-2.49-3.86-.2-4.18.9-10.54,1.3-13.4Z" transform="translate(-603.26 -250.52)"/><path class="cls-2" d="M670,305c-1.23,0-1.92-1.35-2.05-4A70.75,70.75,0,0,1,669,289l.22-1.46v-.06l2.86-.78,0,.13q-.15,1.15-.3,2.23c-.68,5-1.21,8.93-1.08,11.63,0,.69.19,1,.47,1l.12,0c.77-.21,1.71-2.58,2.88-7.26v0h0l.17,0s.83,0,.85.34v.05h0l-.34,1.36c-1,4.16-2,8.1-4.38,8.74A2.07,2.07,0,0,1,670,305Zm-.59-17.35c-.06.4-.13.88-.21,1.41A70.39,70.39,0,0,0,668.12,301c.12,2.55.75,3.85,1.88,3.85a1.89,1.89,0,0,0,.5-.07c2.29-.62,3.25-4.51,4.26-8.62l.34-1.35v0c0-.08-.35-.18-.68-.18h-.08c-1.21,4.84-2.14,7.1-3,7.33-.48.13-.76-.28-.8-1.19-.13-2.71.4-6.66,1.08-11.66l.28-2.1Z" transform="translate(-603.26 -250.52)"/><path class="cls-2" d="M673.44,303.83a37.83,37.83,0,0,1,.87-6.57c.43-4.43.78-8.37,1-11.34l2.71-.74-.22,2.62c.92-2.08,2.13-3.55,3.45-3.92,1.1-.3,1.87.37,2,2.17.17,3.5-1.66,8.54-1.51,11.63.05,1.09.41,1.18.69,1.11.82-.22,1.76-2.62,2.94-7.32.19-.05.9.06.91.29-1.18,4.67-2.39,9.42-5,10.13-1.1.3-2.19-.47-2.31-2.77-.2-4.07,1.65-8.8,1.52-11.51,0-.41-.19-.71-.54-.62-.79.21-2.09,2.36-2.87,8l-.89,8.14Z" transform="translate(-603.26 -250.52)"/><path class="cls-2" d="M673.35,303.95v-.12a38,38,0,0,1,.87-6.59c.41-4.24.77-8.27,1-11.32v-.06l2.89-.79-.19,2.26c.95-2,2.11-3.2,3.31-3.53a2,2,0,0,1,.51-.07c.93,0,1.49.83,1.56,2.32a27.43,27.43,0,0,1-.79,6.19,24.72,24.72,0,0,0-.72,5.44c0,.69.19,1,.46,1l.12,0c.77-.21,1.71-2.58,2.88-7.26v0h0l.15,0c.23,0,.85.09.87.38h0c-1.18,4.66-2.4,9.47-5,10.19a1.78,1.78,0,0,1-.47.06c-1.13,0-1.86-1.09-1.94-2.91a28.34,28.34,0,0,1,.86-6.9,20.89,20.89,0,0,0,.66-4.62c0-.16-.06-.55-.33-.55H680c-.66.18-2,2-2.81,7.88l-.89,8.19Zm2.05-18c-.25,3-.61,7-1,11.28a38.18,38.18,0,0,0-.86,6.44l2.58-.7.88-8.08c.78-5.54,2.07-7.79,2.94-8,.37-.1.62.17.65.69a21,21,0,0,1-.66,4.66,28.2,28.2,0,0,0-.86,6.85c.09,1.72.75,2.75,1.78,2.75a1.63,1.63,0,0,0,.43-.06c2.54-.69,3.75-5.45,4.91-10a1.07,1.07,0,0,0-.7-.21h-.06c-1.21,4.84-2.13,7.1-3,7.33-.48.13-.76-.28-.8-1.19a25,25,0,0,1,.73-5.48,27.3,27.3,0,0,0,.79-6.14c-.07-1.41-.55-2.16-1.39-2.16a1.82,1.82,0,0,0-.46.07c-1.23.34-2.44,1.71-3.4,3.87l-.21.46.26-3Z" transform="translate(-603.26 -250.52)"/><path class="cls-2" d="M697.14,288.76v0a33.88,33.88,0,0,1-4.23,9.73l-.46,5c-.35,3.95-1.42,7.06-3.43,7.61-1.42.38-2.48-.32-2.58-2.31-.12-2.6,1.79-5.29,4-8.6.14-1.18.2-2.42.34-3.64-.71,1.91-1.69,3.32-3,3.67-1.55.42-2.28-1.44-2.41-4.19-.26-5.31,1.79-13.8,4.79-14.62,1-.27,1.55.27,1.83,1.52l.21-1.7,2.59-.7c-.3,1.76-1,9-1.62,15.28a29.1,29.1,0,0,0,3.06-7.39C696.51,288.43,697.13,288.53,697.14,288.76ZM688,295c.06,1.17.28,1.91.76,1.78,1.45-.39,3-7,2.78-10.52-.07-1.39-.4-2.29-1.1-2.11C689.13,284.53,687.84,291.59,688,295Zm.88,14.18c.54-.14.75-1,.89-2.18l.44-4.2c-1.25,2-2.09,3.73-2,5.54C688.24,309.07,688.57,309.28,688.89,309.2Z" transform="translate(-603.26 -250.52)"/><path class="cls-2" d="M688.31,311.37c-1.18,0-1.87-.89-2-2.5-.12-2.48,1.62-5.08,3.63-8.09l.37-.55c.07-.6.12-1.22.17-1.82,0-.39.07-.79.1-1.18-.76,1.79-1.71,2.85-2.82,3.15a1.69,1.69,0,0,1-.44.06c-1.2,0-1.94-1.54-2.08-4.33-.25-5.2,1.72-13.85,4.85-14.71.89-.24,1.49.14,1.82,1.17l.16-1.32,2.77-.75,0,.13c-.25,1.48-.79,6.95-1.32,12.24-.09.88-.18,1.76-.26,2.63a28.63,28.63,0,0,0,2.86-7v0l0,0a1,1,0,0,1,.26,0c.3,0,.75.09.76.36v.05h0a33.75,33.75,0,0,1-4.23,9.74l-.46,5c-.4,4.45-1.64,7.18-3.5,7.69A2.74,2.74,0,0,1,688.31,311.37ZM690.93,296l-.07.69c-.07.6-.12,1.21-.16,1.79s-.1,1.24-.17,1.85v0l-.39.58c-2,3-3.72,5.56-3.6,8,.07,1.5.71,2.33,1.78,2.33a2.66,2.66,0,0,0,.69-.1c1.78-.49,3-3.16,3.37-7.53l.46-5.07v0a33.62,33.62,0,0,0,4.22-9.7v0c0-.08-.28-.19-.59-.19h-.16a29.25,29.25,0,0,1-3.06,7.37l-.2.35,0-.4c.1-1,.2-2,.3-3,.51-5.14,1-10.46,1.3-12.12l-2.4.65-.26,2.12-.11-.48c-.28-1.26-.82-1.71-1.73-1.46-3,.81-5,9.37-4.73,14.53.13,2.69.8,4.16,1.91,4.16a1.52,1.52,0,0,0,.4-.05c1.16-.31,2.17-1.57,2.93-3.62Zm-2.17,13.35h0c-.14,0-.59-.07-.64-.95-.09-1.8.71-3.47,2-5.59l.19-.31-.47,4.57c-.12,1.07-.31,2.09-1,2.26Zm1.33-6.12c-1.17,1.94-1.88,3.51-1.79,5.17,0,.49.2.78.46.78l.11,0c.43-.12.67-.75.82-2.11Zm-1.42-6.28h0c-.44,0-.68-.62-.74-1.88-.17-3.43,1.13-10.56,2.51-10.94l.2,0c.59,0,.93.77,1,2.21.16,3.38-1.29,10.19-2.85,10.61Zm2-12.67-.16,0c-1.21.33-2.56,7.15-2.38,10.76.05,1.1.26,1.71.57,1.71h.08c1.37-.37,2.89-6.88,2.72-10.43C691.4,285,691.11,284.23,690.63,284.23Z" transform="translate(-603.26 -250.52)"/></svg>