<svg id="Layer_1" data-name="Layer 1" xmlns="http://www.w3.org/2000/svg" viewBox="0 0 227.69 353.05"><defs><style>.cls-1{fill:#ffe400;}.cls-2{fill:none;}.cls-2,.cls-3{stroke:#444;stroke-miterlimit:10;stroke-width:9px;}.cls-3{fill:#fff;}</style></defs><title>map-illustration</title><path class="cls-1" d="M751.58,455.58a106.09,106.09,0,1,0-208.07,18.66h0L590.1,654.57h0a39.79,39.79,0,0,0,74.67,6.52h0l77.09-169.46h0A105.87,105.87,0,0,0,751.58,455.58Z" transform="translate(-524.3 -335.76)"/><path class="cls-2" d="M740.58,455.58a106.09,106.09,0,1,0-208.07,18.66h0L579.1,654.57h0a39.79,39.79,0,0,0,74.67,6.52h0l77.09-169.46h0A105.87,105.87,0,0,0,740.58,455.58Z" transform="translate(-524.3 -335.76)"/><circle class="cls-3" cx="111.7" cy="112.24" r="70.5"/></svg>