<svg id="Layer_1" data-name="Layer 1" xmlns="http://www.w3.org/2000/svg" viewBox="0 0 296.19 350.37"><defs><style>.cls-1{fill:#ffe400;}.cls-2,.cls-4{fill:none;stroke:#444;stroke-miterlimit:10;}.cls-2{stroke-width:9px;}.cls-3{fill:#d8bf05;}.cls-4{stroke-width:6px;}</style></defs><title>menu-illustration</title><rect class="cls-1" x="518.23" y="368.95" width="219" height="291" rx="20" ry="20" transform="translate(-589.35 -189.29) rotate(-12.43)"/><rect class="cls-2" x="527.77" y="375.05" width="219" height="291" rx="20" ry="20" transform="translate(-590.43 -187.09) rotate(-12.43)"/><circle class="cls-3" cx="555.17" cy="515.09" r="15.5" transform="translate(-591.18 -204.9) rotate(-12.43)"/><circle class="cls-4" cx="562.22" cy="514.56" r="15.5" transform="translate(-590.91 -203.39) rotate(-12.43)"/><circle class="cls-3" cx="574.13" cy="571.72" r="15.5" transform="translate(-710.04 411.32) rotate(-57.43)"/><circle class="cls-4" cx="568.99" cy="570.03" r="15.5" transform="matrix(0.54, -0.84, 0.84, 0.54, -710.99, 406.21)"/><circle class="cls-3" cx="585.31" cy="631.72" r="15.5" transform="translate(-755.45 448.45) rotate(-57.43)"/><circle class="cls-4" cx="583.63" cy="636.43" r="15.5" transform="matrix(0.54, -0.84, 0.84, 0.54, -760.2, 449.21)"/><rect class="cls-3" x="601.51" y="496.99" width="31" height="12" transform="translate(-587.13 -191.87) rotate(-12.43)"/><rect class="cls-3" x="613.79" y="552.66" width="31" height="12" transform="translate(-598.83 -187.92) rotate(-12.43)"/><rect class="cls-3" x="615.56" y="615.16" width="55" height="12" transform="translate(-611.96 -183.49) rotate(-12.43)"/><rect class="cls-3" x="682.95" y="600.3" width="55" height="12" transform="translate(-607.18 -169.33) rotate(-12.43)"/><rect class="cls-3" x="654.25" y="545.78" width="31" height="12" transform="translate(-596.4 -179.37) rotate(-12.43)"/><rect class="cls-3" x="693.86" y="535" width="31" height="12" transform="translate(-593.15 -171.09) rotate(-12.43)"/><rect class="cls-3" x="642.63" y="493.05" width="31" height="12" transform="translate(-585.32 -183.11) rotate(-12.43)"/><rect class="cls-3" x="687.23" y="477.07" width="31" height="12" transform="translate(-580.83 -173.88) rotate(-12.43)"/><circle class="cls-3" cx="539.88" cy="445.76" r="15.5" transform="translate(-576.62 -209.81) rotate(-12.43)"/><circle class="cls-4" cx="546.93" cy="445.23" r="15.5" transform="translate(-576.34 -208.31) rotate(-12.43)"/><rect class="cls-3" x="586.23" y="427.66" width="31" height="12" transform="translate(-572.56 -196.78) rotate(-12.43)"/><rect class="cls-3" x="624.97" y="412.97" width="31" height="12" transform="translate(-568.49 -188.79) rotate(-12.43)"/><rect class="cls-3" x="671.95" y="407.74" width="31" height="12" transform="translate(-566.26 -178.8) rotate(-12.43)"/><rect class="cls-1" x="561" y="348" width="219" height="291" rx="20" ry="20" transform="translate(-505.18 -319.96) rotate(-1.4)"/><rect class="cls-2" x="72.69" y="4.5" width="219" height="291" rx="20" ry="20"/><circle class="cls-3" cx="103.19" cy="127" r="15.5"/><circle class="cls-4" cx="110.19" cy="128" r="15.5"/><circle class="cls-3" cx="602.83" cy="522.88" r="15.5" transform="translate(-686.47 242.91) rotate(-45)"/><circle class="cls-4" cx="598.17" cy="520.12" r="15.5" transform="translate(-685.89 238.81) rotate(-45)"/><circle class="cls-3" cx="600.83" cy="583.88" r="15.5" transform="translate(-730.19 259.36) rotate(-45)"/><circle class="cls-4" cx="598.17" cy="588.12" r="15.5" transform="translate(-733.97 258.73) rotate(-45)"/><rect class="cls-3" x="150.69" y="122.5" width="31" height="12"/><rect class="cls-3" x="150.69" y="179.5" width="31" height="12"/><rect class="cls-3" x="138.69" y="243.5" width="55" height="12"/><rect class="cls-3" x="207.69" y="243.5" width="55" height="12"/><rect class="cls-3" x="191.69" y="181.5" width="31" height="12"/><rect class="cls-3" x="232.69" y="179.5" width="31" height="12"/><rect class="cls-3" x="191.69" y="127.5" width="31" height="12"/><rect class="cls-3" x="238.69" y="121.5" width="31" height="12"/><circle class="cls-3" cx="103.19" cy="56" r="15.5"/><circle class="cls-4" cx="110.19" cy="57" r="15.5"/><rect class="cls-3" x="150.69" y="51.5" width="31" height="12"/><rect class="cls-3" x="191.69" y="45.5" width="31" height="12"/><rect class="cls-3" x="238.69" y="50.5" width="31" height="12"/></svg>