<?xml version="1.0" encoding="utf-8"?>
<!-- Generator: Adobe Illustrator 17.1.0, SVG Export Plug-In . SVG Version: 6.00 Build 0)  -->
<!DOCTYPE svg PUBLIC "-//W3C//DTD SVG 1.1//EN" "http://www.w3.org/Graphics/SVG/1.1/DTD/svg11.dtd">
<svg version="1.1" id="Layer_1" xmlns="http://www.w3.org/2000/svg" xmlns:xlink="http://www.w3.org/1999/xlink" x="0px" y="0px"
	 viewBox="0 0 307.2 239.2" enable-background="new 0 0 307.2 239.2" xml:space="preserve">
<g>
	<path fill-rule="evenodd" clip-rule="evenodd" fill="#FFE400" d="M71.5,191.9c-0.8-6.1-5.4-23.5-6.1-26c0,0,0-0.1-0.1-0.2
		c4.9-0.1,16.8-1.1,28.4-7.7c15.2-8.6,31.6-27,27.3-51.1c-4.3-24.1-35.4-38.2-61.9-31.7c-26.4,6.5-47.6,25.1-55.8,43.2
		c0,0-3.7,7.5-3.4,10.7c0,0,0,0.7,1.1,1.1c1.1,0.4,2.3,1.7,2.3,1.7s0.5,1.2,2,0.6c1.6-0.6,3.1-0.1,4.5-1.3
		c1.4-1.2,18.7-21.9,25.5-26.4l14.4,51.2c0,0-9.5-0.6-13.6-1.2c-4.2-0.6-5,0.6-5.1,1.2c0,0-1.7,0.7-1.2,1.8
		c0.5,1.1,12.3,7.8,22.6,7.7c0,0,4.5,16.3,10.2,30.6c5.6,14.4,12.7,32.3,15,32.6c2.3,0.2,2.2-3,0-12.2
		C75.4,207.1,72.3,198,71.5,191.9z M48.1,104.7c-0.7-2.5-1.8-5.4-2.6-6.6c0,0,11.2-8,24.4-10.2c13.2-2.2,26.3,3.8,30.2,10.3
		c3.8,6.5,7.8,18.3,4.1,29.6c-3.6,10.9-21.4,27.6-41.5,28.3C57.9,139.2,48.7,106.6,48.1,104.7z"/>
	<path fill-rule="evenodd" clip-rule="evenodd" fill="#FFE400" d="M215.5,121.2c3.8-15.2,4.7-30.6,4.3-36.6
		c-0.3-6-2.3-12.2-3.3-13.9c-1-1.7-2.3-3-3.5-3c-1.2,0-3-1.8-3-1.8c-4.7-1.7-9-1.5-11,0c-2,1.5-2.2,3.5-3.3,4.5
		c-1.2,1-1.2,3.3-1.2,3.3c-3,2.6-9,15.3-11,19.1c-2,3.8-3.3,9-4.2,13.9c-0.8,4.8-4,16.4-5.5,27.6c-1.5,11.2-2.5,35.1-0.2,49.6
		c1.1,6.7,2.5,11.6,4.1,15.4c-5.9,10.5-11,12.8-13.9,13.5c-3.5,0.8-7.7-5-8.9-7.7c-1.2-2.7,0-10.9,0-10.9
		c6.5-24.1,6.1-62.3,7.1-69.9c1.2-8.8,3.2-44.4,3.2-46.9c0-2.5-2.3-6.5-2.3-8.2c0-1.7-3.7-5.7-7.9-5.7c-4.2,0-12.1-0.3-17.7,13.9
		c-5.5,14.2-3.7,50.6-3,54.9c0.7,4.3,1.3,4,1.7,5.8c0.3,1.8,0.8,5,3.3,18c2.5,12.9,6.6,30.3,6.7,30.5c0.1,2,0.1,4.8-0.3,8.6
		c-1.1,9.6-6.9,17.5-7.9,17.4c-1-0.1-3-1.7-5.3-8.7c-2.3-7-9.5-40-10.6-46.6c-1.1-6.6-3.8-5.3-5.2-4.5c-1.3,0.8-1.4,4.3-1.3,5.3
		c0.1,1-1.3,3-0.8,7.3c0.5,4.3,1.8,25.6,2.1,36c0.2,10.4-3,16.3-4.5,16.4c-1.6,0.1-5.5-7.6-10.7-21c-5.2-13.4-6.7-24.1-7-25.1
		c-0.3-1-1.2-1.5-1.2-1.5c-0.5-0.9-2.3-1.4-3.1-1.3c-0.8,0.1-1.1-0.4-1.1-0.4c-3.8,0.3-3.3,3.8-2.6,7.3c0.7,3.6,6.5,24,10.7,34.1
		c4.1,10,9.6,14.3,16.5,13.9c6.9-0.4,10.2-13.8,10-14.6c-0.1-0.9,0.6-1.2,1.1-0.1c0.5,1.1,4.6,11,16.4,8.7c3.1-0.6,5.3-2.6,7-5.4
		c1.3,1.2,3.4,2.5,6.4,4.5c4.4,3,12.8,2.8,20.3-3.2c2.6-2.1,5-4.1,7.3-6.4c0.4,0.7,0.8,1.3,1.2,1.9c3,4.7,8.7,8.5,14.4,7.5
		c5.7-1,9.2-5,10.2-6.8c1-1.8-0.3-2.5-1.6-1.3c-1.3,1.2-7.6,4.2-9.7,4.3c-2,0.1-6.7-5.7-9.4-11.2c2.6-3.4,5.2-7.8,8.1-13.7
		C202.4,172.9,211.7,136.4,215.5,121.2z M150.1,70.6c2.2-2,2.8,0,2.7,1.3c-0.2,1.3,0.8,2.3,1.8,5.3c1,3-0.8,10.5-2.5,40.9
		c-0.9,16.7-2.2,35.8-3.2,49.6c-2.5-9.9-6.3-28.6-6.4-50.6C142.4,84.3,147.9,72.6,150.1,70.6z M187.1,101.6c6.5-24,14-28.1,15.4-28
		c1.3,0.1,2.3,4.3,3.3,13.1c1,8.8-1.7,27.1-3.5,34.7c-1.8,7.7-3.5,10.7-5.2,16.4c-1.6,5.4-7.6,33.2-14.5,50.7
		c-1.3-6.1-2.4-14-2.4-23.7C180.1,147.4,180.6,125.7,187.1,101.6z"/>
	<path fill-rule="evenodd" clip-rule="evenodd" fill="#FFE400" d="M229,153.4c1.7,0.2,3.7-1.7,3.8-6.7c0.2-5,0.2-10.2,0-11.2
		c-0.2-1-1-1.8-2-1.3c0,0-2.2-1.3-4,0c0,0-1.2,0.7-1.2,1.8c0,1.2,0.2,10.4,0,12C225.5,149.7,227.4,153.2,229,153.4z"/>
	<path fill-rule="evenodd" clip-rule="evenodd" fill="#FFE400" d="M305.6,93c-0.2-0.1-0.5-0.2-0.8-0.4l0,0v0
		c-0.4-0.1-0.9-0.3-1.5-0.4c0,0-3.7-1.8-6.3,1.3c-2.6,3-32.7,66-38.8,78.5c-1.8-2.9-5.8-6.4-9.8-7.4c0,0,0,0,0,0s-8.8-2.7-15.3,1.9
		c-6.4,4.7-11.3,16.4-13.4,28.1c-2.2,11.7-0.6,19.6,3.8,22.3c0,0,0,0,0,0c1.3,1,2.9,1.7,5,1.8c0.3,0,0.6,0,0.9,0c0,0,0,0,0,0
		c0,0,8.8,2.3,22-12.3c-1,4.3-2.2,10.5-2.6,17.2c-0.4,8,3.3,13.9,9.4,14.4c0.8,0.4,1.5,0.8,2.1,1c2.6,0.9,7.1-2.2,9.3-4.9
		c2-1.8,1.8-3.3,1.1-3c-1.3-1.9-3-0.9-7.8,0.8c-4.8,1.8-5.3-3.6-4.4-8.4c0.9-4.7,3.2-16.5,5.8-25.3c2.5-8.8,7.9-25.4,13.5-38.9
		c5.6-13.5,13-29.9,16-36.2c3.1-6.3,5.8-10.8,8.1-17.1c2.3-6.3,5.4-12.6,5.4-12.6L305.6,93z M251.9,186.3c-4,7.7-5.4,10.2-6.6,12.9
		c-0.3,0.6-0.5,1.3-0.9,2c-0.1,0.1-7,9.8-12.8,10.6c-1.8,0-2.8-0.9-3.1-2.3c0-0.1,0-0.2,0-0.3c0-0.1,0-0.1,0-0.2
		c-0.3-3.8,0.3-10,1.7-18.2c2.2-13.2,8.3-23,13.9-23.7c1.7-0.2,3.1,0.7,4.4,2.1C249,169.9,255.8,178.8,251.9,186.3z"/>
	<path fill-rule="evenodd" clip-rule="evenodd" fill="#FFE400" d="M110,22.3c0.2,1.8,0.6,3.2,0.9,4.9c0.2,1,0.3,2.1,0.6,2.8
		c0.2,0.4,0.7,0.8,1.1,1.3c0.3,0.4,0.3,1,0.6,1.3c0,0,0.1,0.1,0.2,0.1c0.3,0.2,0.6,0.6,0.8,0.7c0.2,0.1,0.2,0.2,0.4,0.3
		c0.1,0.1,0.1,0.2,0.2,0.2c0.5,0,0.7,0.3,1.2,0.2c0.2,0.2,0.6,0.6,0.9,0.5c0.2,0,0.1,0.1,0.2,0.1c0.1,0,0.3-0.1,0.4-0.1
		c0.1,0,0.1,0.2,0.2,0.2c0.1,0,0.5,0,0.7,0c0.2,0,0.5,0,0.7,0c0.3,0,0.4,0.1,0.6,0.2c0.8,0.1,1.3-0.2,2.2-0.4
		c0.7-0.2,1.4-0.4,1.5-0.6c0,0,0.4-0.2,0.4-0.2c0.4-0.2,0.3-0.2,0.5-0.4c0.3-0.3,0.7-0.7,0.9-1c0.1-0.2,0.2-0.5,0.3-0.8
		c0.1-0.1,0.2-0.2,0.2-0.3c0.1-0.2,0.1-0.3,0.2-0.5c0.1-0.2,0-0.3,0.1-0.4c0-0.1,0.2-0.2,0.3-0.3c0.1-0.2,0.2-0.5,0.2-0.6
		c0.1-0.1,0-0.1,0.1-0.3c0-0.1,0.2-0.2,0.3-0.3c0.1-0.2,0-0.5,0.1-0.6c0.1-0.4,0-0.7,0-1.1c-0.1-0.3-0.4-0.2-0.5-0.5
		c-0.4,0.1-0.2-0.5-0.5-0.5c0.1,0.2-0.2,0.1-0.3,0.2c-0.1,0.1,0,0.2-0.1,0.3c-0.2,0.2-0.7,0.2-0.9,0.3c0,0,0,0.1,0,0.1
		c0,0-0.2,0-0.3,0c0,0,0,0.1,0,0.1c0,0.1-0.3,0-0.3,0.1c-0.1,0-0.1,0.2-0.1,0.3c-0.1,0.1-0.3,0.1-0.4,0.2c-0.1,0.1-0.1,0.3-0.2,0.5
		c-0.4,0.5-0.7,0.9-1,1.3c-0.1,0.1-0.1,0.2-0.1,0.3c0,0.1-0.2,0-0.3,0.1c-0.1,0.1-0.1,0.3-0.2,0.3c-0.2,0-0.1,0.1-0.1,0.2
		c-0.3,0.2-0.7,0.5-1.1,0.6c-0.5-0.2-0.8-0.5-1.1-0.9c-0.4-0.5-0.7-1.5-0.8-1.8c0-0.1,0-0.2-0.1-0.3c0-0.1-0.3-0.1-0.3-0.2
		c-0.1-0.1-0.1-0.2-0.2-0.4c-0.3-0.6-0.2-0.8-0.3-1.5c0,0-0.2-0.1-0.2-0.1c0-0.1,0-0.2-0.1-0.3c0-0.1,0.1-0.1,0.1-0.2
		c0-0.1-0.2-0.1-0.2-0.2c0,0,0.2,0,0.1-0.2c0-0.1-0.2,0.1,0-0.1c0.1-0.1-0.2-0.4-0.2-0.4c-0.1-0.5,0.1-0.4,0-0.8
		c0-0.1-0.2-0.1-0.2-0.1c-0.1-0.4,0-0.7-0.1-1.1c0-0.4-0.2-0.8-0.2-1.2c0-0.1,0.1-0.1,0.1-0.2c0-0.1-0.2-0.1-0.2-0.1
		c0-0.2,0.1-0.3,0-0.6c-0.1-0.8-0.4-1.6-0.1-2c0,0,0-0.2-0.1-0.3c0-0.2-0.1-0.3,0.1-0.4c0,0-0.1-0.2-0.1-0.3c0.1-0.3,0.1-0.7,0.1-1
		c0-0.4,0-1,0.1-1.4c0,0,0.1,0,0.2,0c0,0-0.1-0.2-0.1-0.3c0.1-0.4,0.2-1,0.3-1.2c0.1-0.2,0.1-0.2,0.3-0.3c0,0-0.1-0.2-0.1-0.3
		c0,0,0.1,0,0.2,0c0,0-0.1-0.2-0.1-0.3c0.1-0.2,0.3-0.3,0.4-0.5c0,0,0-0.1,0-0.1c0-0.2,0.3-0.5,0.4-0.6c0.2-0.3,0.4-0.5,0.5-0.8
		c0.3-0.4,0.4-0.9,0.6-1.1c0.1-0.1,0.3,0,0.3-0.1c0.1,0,0-0.3,0.1-0.3c0.1-0.1,0.4,0,0.5-0.1c0.1,0,0.1-0.3,0.1-0.3
		c0.1,0,0.4-0.2,0.5-0.2c0.4-0.1,0.3-0.6,0.7-0.5c0.8,0.3,0.7,1.7,1.2,2.5c-0.3,0.2-0.1,0.6-0.2,0.9c0,0.1-0.2,0.2-0.3,0.3
		c-0.1,0.2,0,0.4-0.1,0.6c-0.2,0.6-0.3,1.3-0.7,1.8c0.1,0.5-0.6,0.6-0.4,1.2c0.5,0.1,0.9,0.4,1.3,0.2c0.1,0,0.1-0.2,0.1-0.2
		c0.2-0.1,0.6,0,0.8-0.1c0,0,0.2-0.3,0.3-0.3c0.3-0.3,0.6-0.6,0.7-0.8c0.1-0.1,0.1-0.2,0.1-0.3c0.1-0.1,0.2-0.2,0.3-0.3
		c0.2-0.3,0.3-0.5,0.4-0.8c0.1-0.2,0-0.4,0.1-0.6c0-0.1,0.2-0.2,0.3-0.3c0.1-0.2,0.1-0.3,0.1-0.4c0.1-0.3,0.2-0.4,0.2-0.7
		c0-0.1,0.1-0.1,0.1-0.2c0.1-0.3,0.1-0.7,0.2-1c0-0.3-0.1-0.7,0-1.1c0-0.3,0.2-0.5,0.2-0.7c0-0.1,0.1-0.1,0.1-0.2
		c0.2-0.8-0.1-1.3-0.3-2.1c-0.6-0.3-1.2-0.3-1.7-0.4c-0.6-0.1-1.4-0.5-2.1-0.4c-0.1,0-0.2-0.1-0.2-0.1c-1.1,0.1-2.1,0.3-2.6,0.4
		c-0.5,0.1-0.8,0.2-1,0.3c-0.2,0.1-0.3,0.2-0.5,0.2c-0.2,0.1-0.2,0.1-0.3,0.2c0,0-0.3,0-0.3,0.1c-0.1,0.1-0.2,0.3-0.3,0.3
		c-0.2,0.1-0.5,0.3-0.8,0.4c0,0,0,0.1,0,0.1c0,0-0.3,0-0.3,0.1c-0.6,0.3-1.1,0.6-1.3,1c0,0.1-0.3,0-0.3,0.1
		c-0.2,0.2-0.3,0.6-0.5,0.7c-0.2,0-0.3,0.5-0.4,0.6c0,0.1-0.3,0-0.3,0.1c0,0,0.1,0.2,0.1,0.3c0,0.1-0.3,0-0.3,0.1
		c-0.5,0.5-0.5,0.8-0.7,1.3c0,0-0.1,0-0.2,0c0,0,0.1,0.2,0.1,0.3c-0.1,0.1-0.2,0.2-0.3,0.3c-0.2,0.3-0.4,0.6-0.5,0.8
		c-0.1,0.1-0.2,0.2-0.3,0.3c0,0.1-0.1,0.4-0.1,0.4c0,0.2-0.1,0.1-0.1,0.2c-0.1,0.3-0.2,0.7-0.3,0.8c0,0,0.1,0.2,0.1,0.3
		c0,0-0.1,0-0.2,0c0,0,0,0.5,0,0.6c-0.2,0.4-0.2,0.6-0.3,1c-0.1,0.4-0.2,1.3-0.3,1.5c-0.1,0.1,0.1,0.4,0.1,0.5
		c0,0.1-0.1,0.2-0.1,0.2c0,0.5,0,1,0,1.6C109.9,20.6,109.8,21.4,110,22.3z"/>
	<path fill-rule="evenodd" clip-rule="evenodd" fill="#FFE400" d="M65.2,35.9c0.4,0,0.8-0.3,1-0.1c0.1,0.5,0.2,1,0.3,1.4
		c0,0.2,0.1,0.4,0.1,0.7c0,0-0.1,0-0.1,0.1c0,0,0.1,0.3,0.2,0.4c0,0.1-0.1,0.2-0.1,0.2c0.1,0.2,0.3,0.3,0.4,0.6
		c0.1,0.2-0.1,0.2,0,0.4c0,0.1,0.2,0.1,0.2,0.1c0.1,0.1-0.1,0.2,0,0.3c0.1,0.5,0.4,0.9,0.5,1.3c0,0.1-0.1,0.2,0,0.3
		c0,0.3,0.2,0.4,0.1,0.6c-0.2,0.3,0.4,0.5,0.2,0.8c0,0,0.1,0.2,0.1,0.3c0.3,1.3,1.1,3,1.4,4c0.4,1.1,0.9,2,1.5,3
		c0.5,0.2,1.1,0.1,1.5,0.1c0.5,0,1.1,0,1.7-0.3c0.4-0.2,0.5-0.3,0.6-0.4c0.3-0.2,0.6-0.2,0.8-0.3c0,0,0.1-0.3,0.2-0.4
		c0,0,0.2-0.2,0.2-0.2c0.2-0.1,0-0.1,0.1-0.2c0.2-0.3,0.3-0.4,0.4-0.6c0-0.1,0.2-0.1,0.3-0.1c0.1-0.1,0.1-0.3,0.2-0.4
		c0.1-0.2,0.2-0.3,0.3-0.4c0.3-0.6,0.2-0.9,0.5-0.8c0.4,0.2,0.7,0.1,1,0.2c0.1,0,0,0.1,0.2,0.1c0.1,0,0.4,0,0.5,0
		c0.2-0.1,0.1,0.1,0.2,0.1c0.3,0,0.7,0,0.9-0.1c0.9-0.1,1.2-0.2,2-0.6c0.4-0.2,0.7-0.3,0.9-0.5c0.2-0.2,0.3-0.5,0.4-0.6
		c0.2-0.1,0-0.1,0.1-0.2c0.1-0.3,0.6-1,0.5-1.2c-0.1-0.2,0.2-0.4,0.1-0.6c0-0.1,0.1-0.1,0.1-0.2c0-0.2-0.1-0.4-0.2-0.5
		c0-0.1,0.1-0.2,0.1-0.2c-0.1-0.9-0.3-1.6-0.4-2.4c-0.2-1.1-0.2-2.3-0.4-3.1c-0.3-1-0.8-1.8-0.8-2.8c0.6-0.1,0.8-0.4,1.3-0.6
		c0.6-0.1,0.7-0.7,1.1-0.5c-0.1,0.5,0.5,0.6,0.6,0.9c0.2,0.4,0.5,1.1,0.5,1.4c0,0.4,0.2,0.5,0.3,0.9c0.1,0.2,0,0.5,0,0.6
		c0,0.1,0.2,0.1,0.2,0.1c0.1,0.4,0,0.6,0.2,0.7c0.3,0.1,0.1,0.7,0.1,0.7c0.2,0.7,0.5,1.2,0.6,1.8c0.2,0.9,0.3,1.7,0.7,2.5
		c0.1,0.2,0.2,0.2,0.3,0.3c0.1,0.2,0.1,0.4,0.2,0.5c0,0,0.3,0.1,0.4,0.2c0.1,0.1,0.1,0.4,0.2,0.5c0.4-0.3,0.6,0,0.8,0
		c0.2,0,0.4,0,0.6-0.1c0.6-0.1,1.9-0.4,2.2-0.7c0,0,0-0.3,0.1-0.3c0.1-0.1,0.3-0.2,0.4-0.3c0-0.1,0-0.4,0-0.4c0-0.2,0-0.3,0-0.4
		c0-0.1,0.2-0.3,0.2-0.4c0.1-0.2-0.1-0.4,0.2-0.5c-0.1-0.4-0.1-0.4-0.1-0.7c0-0.1,0.1-0.1,0.1-0.2c0-0.3,0-0.7,0.4-0.8
		c0.1,0.4,0.6,0.9,0.8,1.1c0.4,0.3,1,1,1.4,0.9c0.2-0.1,0.5,0.1,0.6,0.1c0.2,0,0.3,0.1,0.5,0.1c0.2,0,0.3,0,0.5,0
		c0.3,0,0.5,0.1,0.8,0.1c0.1,0,0.1,0.1,0.2,0.1c1,0,2-0.5,3-0.7c0.8-0.7,1.1-2,1.2-3.5c0-0.1,0.1,0,0.1-0.2c0-0.1-0.1-0.2-0.1-0.3
		c0-1.1,0.1-2.5-0.2-3.5c0-0.1,0.1-0.2,0.1-0.2c0-0.4-0.1-0.7-0.1-1.1c0-0.3-0.1-0.8-0.1-1.1c-0.2-1.6-0.4-3.5-0.7-5
		c0-0.2,0-0.4,0-0.6c0-0.3-0.2-0.2-0.1-0.4c0.2-0.3-0.4-0.9-0.4-0.9c-0.2-0.4-0.1-0.5-0.3-0.6c-0.1,0,0-0.2-0.1-0.3
		c-0.1-0.1-0.6-0.3-0.6-0.4c0-0.1-0.1,0-0.2-0.1c-0.3-0.2-0.4-0.4-0.8-0.4c-0.2,0-0.1,0-0.2-0.1c-0.3-0.1-0.4-0.3-0.6-0.4
		c-0.4,0.1-0.5,0.4-0.7,0.6c-0.2,0.2-0.4,0.4-0.5,0.6c0,0.1,0.1,0.2,0.1,0.3c-0.1,0.1-0.2,0.2-0.2,0.3c-0.1,0.2-0.1,0.3-0.2,0.5
		c0,0.1-0.2,0.2-0.2,0.4c-0.1,0.2,0,0.4,0,0.6c-0.1,0.8-0.1,1.7,0,2.4c0,0.2,0,0.4,0,0.6c0.1,0.9,0.3,1.4,0.5,2.2
		c0,0-0.1,0.1-0.1,0.2c0,0.2,0.1,0.5,0.2,0.7c0,0.1-0.1,0.2-0.1,0.2c0.1,0.4,0.2,0.7,0.3,0.9c0,0.1-0.1,0.2-0.1,0.2
		c0.1,0.4,0.2,0.7,0.3,0.9c0,0.1-0.1,0.2-0.1,0.2c0.1,0.4,0.2,0.7,0.3,1.1c0,0-0.1,0.1-0.1,0.2c0,0.2,0.1,0.5,0.2,0.7
		c0,0.1-0.1,0.2-0.1,0.2c0,0.2,0.1,0.4,0.2,0.5c0,0.2,0,0.4,0,0.6c0.1,0.4,0.4,0.7,0.2,1.1c-0.7-0.4-0.8-1.7-1.3-1.9
		c-0.1,0-0.1-0.4-0.2-0.5c-0.1-0.2-0.4-0.5-0.5-0.6c-0.2-0.2-0.4-0.5-0.5-0.7c-0.5-0.9-0.6-1.9-1-2.9c-0.3-0.7-0.9-1.1-1-1.9
		c-0.4,0.3-0.9-0.1-1.3,0c-0.5,0.1-0.9,0.3-1.4,0.6c0.1,0.3-0.2,0.6-0.2,0.9c0,0.3,0.2,0.7,0.2,1.1c0,0.7,0,1.4,0,2.2
		c0,0.4,0.1,0.5,0.1,0.7c0,0,0,0.1,0,0.1c0,0.1-0.1,0.1-0.1,0.2c0,0.4,0.2,0.7,0.2,1.1c0,0.3,0,0.7,0,1c0.1,0.5,0.2,1.1,0.1,1.3
		c0,0,0.1,0.2,0.1,0.3c0,0.4-0.1,0.7-0.1,1.1c0,0.5,0.1,1-0.1,1.5c-0.2-0.2-0.3-0.5-0.4-0.7c-0.1-0.1,0.1-0.2,0.1-0.3
		c0-0.2-0.2-0.1-0.3-0.3c-0.2-0.5-0.4-1.7-0.7-1.8c0,0-0.2-0.5-0.2-0.5c0-0.4-0.2-0.5-0.3-0.9c-0.5-1.5-0.6-2.8-1.2-3.8
		c0.3-0.2,0.1-0.5,0.1-0.8c0-0.4,0-0.8,0-1.1c0-0.2,0-0.3,0-0.4c-0.1-0.9-0.4-1.7-0.7-2.7c-0.2,0-0.6,0.3-0.8,0.2c0,0,0-0.3-0.1-0.3
		c-0.5,0-1.8,0.1-2.5,0.5c0,0,0,0.1,0,0.1c0,0-0.3,0.1-0.3,0.1c0,0,0.1,0.1,0,0.1c0,0.1-0.3,0-0.3,0.1c-0.1,0.1-0.1,0.2-0.2,0.4
		c0,0.1,0.1,0.2,0.1,0.3c-0.1,0.2-0.2,0.3-0.3,0.5c-0.1,0.2-0.1,0.5-0.3,0.7c0,0.1-0.2,0.1-0.3,0.1c0,0,0,0.3-0.1,0.3
		c-0.1,0.1-0.2,0-0.3,0.1c0,0,0,0.3-0.1,0.3c-0.1,0.1-0.2,0-0.3,0.1c0,0,0,0.3-0.1,0.3c-0.1,0.1-0.3,0.3-0.5,0.3
		c-0.6-0.3-1-0.9-1.6-1.2c-0.6,0.1-1.4-0.1-2.2,0.1c-0.9,0.2-2.5,1-2.6,1.3c0,0.1-0.3,0.1-0.3,0.1c-0.1,0.1,0,0.2,0,0.3
		c-0.3,0.5-0.5,1-0.6,1.4c0,0.1-0.2,0.3-0.2,0.4c0,0.2,0.1,0.4,0.1,0.6c0,0.2-0.1,0.4-0.1,0.6c0,0.4,0.1,0.9,0.2,1.4
		c0.1,0.5,0.1,0.9,0.2,1.4c0.1,0.5,0.3,1,0.4,1.5c0.2,1,0.2,1.9,0.5,2.8c0,0,0.1-0.1,0.1-0.1c0,0,0,0.4,0.1,0.6
		c0.3,0.9,0.4,1.6,0.8,2.1c-1.6,0.6-2,1.7-3,2.6c-0.1-0.9-0.7-2-0.7-2.5c0-0.1-0.1-0.3-0.2-0.4c-0.2-0.6-0.2-0.8-0.3-1.2
		c-0.1-0.4-0.2-0.8-0.2-1c0-0.1-0.1-0.3-0.2-0.4c-0.1-0.6-0.3-1.3-0.5-1.9c-0.2-0.8-0.1-1.7-0.4-2.5c-0.2-0.8-0.8-1.7-0.5-2.2
		c0,0-0.1-0.2-0.1-0.3c-0.1-0.9-0.3-2.2-0.6-3.1c-0.2-0.5-0.3-2-0.2-2.3c0-0.2,0.1-0.3,0.1-0.5c0.1-0.5,0.6-1.2,0.8-1.5
		c0-0.1-0.1-0.2-0.1-0.3c0-0.1,0.2-0.2,0.3-0.2c0-0.1-0.1-0.2-0.1-0.3c0.1-0.1,0.3-0.3,0.4-0.4c0.1-0.2,0-0.5,0.1-0.6
		c0.1-0.3,0.4-0.6,0.5-0.9c0-0.1,0.1-0.3,0.1-0.3c-0.1-0.2,0.2-0.3,0.2-0.5c0-0.1,0.1-0.1,0.1-0.2c0.1-0.3,0.1-0.7,0.1-1.1
		c0-0.4,0.1-0.9,0.1-1.2c-0.2-0.9-0.7-1.8-1.2-2.7c-1.1,0-2.4,0-3.7,0.7c-0.3,0.1-0.8,0.4-0.9,0.5c0,0,0.1,0.1,0.1,0.1
		c0,0.1-0.3,0.1-0.3,0.1c-0.2,0.2-0.2,0.6-0.3,0.7c0,0.1-0.2,0.4-0.2,0.5c0,0.1-0.1,0.1-0.1,0.2c0,0.2,0,0.3,0,0.4
		c0,0.1-0.2,0.3-0.2,0.4c0,0.2,0,0.3,0,0.4c-0.1,0.8-0.5,1.9-0.4,2.4c0,0.2,0,0.3,0,0.4c0,0.2,0,0.2,0,0.3c0,0,0,0.5,0,0.4
		c0,0.2,0,0.2,0,0.3c0,0,0.1,0.2,0.1,0.3c0,0.5,0,1,0.1,1.5c0,0.4,0,0.6,0.1,1c0.2,0.7,0.3,1.5,0.4,2.1c0,0.4-0.1,0.8-0.1,1
		c0,0.1,0.1,0.2,0.1,0.3c0,0.1-0.1,0.3-0.2,0.4c-0.2,0.6-0.6,0.9-0.8,1.4c-0.1,0.2-0.3,0.5-0.2,0.8C64.9,35.6,65,35.9,65.2,35.9z
		 M78.8,34.6c0,0.3,0.3,0.3,0.4,0.6c0,0-0.1,0.2,0,0.3c0,0,0.1-0.1,0.2,0.1c0.1,0.4,0,0.8,0.3,1.3c0,0,0.3,0,0.2,0.1
		c-0.2,0.2,0.1,0.2,0.2,0.6c0.2,0.6,0.1,1.2,0.2,1.8c0.1,0.6,0.3,1.2,0.3,1.8c0.2,1.1,0.4,2.3-0.1,3.3c-0.3,0.1-0.2-0.3-0.5-0.4
		c-0.2,0-0.3-0.1-0.4-0.3c0,0-0.1-0.2-0.1-0.3c0,0-0.1,0.1-0.1,0.1c-0.2-0.3-0.4-0.9-0.6-1.5c0-0.2,0-0.5-0.1-0.7
		c-0.1-0.5-0.4-1-0.5-1.4c-0.1-0.3,0-0.7-0.1-1.1c-0.1-0.9-0.4-2.1-0.6-3c0-0.2-0.2-0.3-0.2-0.5c0,0,0.1-0.1,0.1-0.2
		c0,0-0.1-0.1,0-0.1c0-0.2,0.1-0.4,0-0.6C77.9,34.3,78.3,34.5,78.8,34.6z"/>
	<path fill-rule="evenodd" clip-rule="evenodd" fill="#FFE400" d="M205.2,34.5c0.1,0.5,0.2,0.8,0.1,1.3c0.3,0.2,0.4,0.5,0.6,0.8
		c0.1,0.1,0.3,0,0.3,0.2c0,0.1,0.1,0.4,0.2,0.5c0,0.1,0.2,0,0.3,0.1c0.4,0.5,0.5,1.2,1,1.7c0.3,0.1,0.4-0.3,0.5-0.3
		c0.1-0.1,0.2-0.2,0.4-0.3c0.1-0.1,0.2-0.2,0.4-0.4c0.2-0.2,0.4-0.3,0.5-0.5c0.2-0.2,0.3-0.3,0.5-0.5c0.1-0.1,0.2-0.3,0.4-0.3
		c0.2-0.1,0.1-0.1,0.2-0.2c0,0,0-0.1,0-0.1c0.3-0.2,0.3-0.6,0.5-1c0.2-0.4,0.4-0.7,0.5-1c0.2-0.4,0.3-0.8,0.4-1.2
		c0.1-0.5,0.2-0.4,0.1-0.5c-0.1-0.1,0.1-0.4,0.2-0.4c0.3,0.1,0.2,0.5,0.3,0.8c0.3,1.2,0.7,2.5,1,3.6c0,0.1,0.1,0,0.1,0.2
		c0,0.2,0,0.3,0.1,0.4c0,0.1,0,0.2,0.1,0.3c0.1,0.3,0.3,0.4,0.3,0.6c0,0.2,0.1,0.5,0.2,0.6c0,0,0.1,0.1,0.1,0.2
		c0.2,0.4,0.4,0.6,0.7,1c0.1,0.1,0.3,0.2,0.4,0.4c0.1,0.1,0.1,0.4,0.2,0.5c0.2,0.2,0.6,0.3,0.9,0.5c0,0,0.1,0.1,0.1,0.2
		c0.2,0.2,0.4,0.4,0.8,0.5c0.2-0.4,0.6-0.4,0.8-0.8c0.2-0.4,0.3-1.1,0.4-1.5c0-0.2-0.1-0.5-0.2-0.6c0-0.2,0-0.3,0-0.6
		c0-0.3-0.1-0.5-0.1-0.7c0-0.1-0.2-0.2-0.2-0.3c-0.1-0.2,0-0.4,0-0.6c0,0-0.1-0.1-0.1-0.2c-0.1-0.2-0.2-0.5-0.2-0.6
		c0-0.2-0.1-0.5-0.2-0.6c0-0.1-0.1-0.2-0.1-0.3c0-0.2-0.1-0.5-0.2-0.6c0-0.1-0.1-0.2-0.1-0.3c0-0.2-0.1-0.5-0.2-0.6
		c0-0.1-0.1-0.2-0.1-0.3c0-0.2-0.2-0.8-0.3-0.9c0-0.1-0.1-0.2-0.1-0.3c0-0.1-0.2-0.2-0.2-0.3c-0.1-0.2,0-0.4,0-0.6
		c0-0.1-0.2-0.2-0.2-0.3c0-0.1,0.1-0.2,0.1-0.3c0-0.1-0.2-0.1-0.3-0.2c-0.1-0.2,0-0.3-0.1-0.4c-0.1-0.2-0.1-0.3-0.2-0.5
		c-0.1-0.3-0.1-0.4-0.1-0.7c0,0-0.2-0.1-0.3-0.2c-0.1-0.2,0-0.3-0.1-0.4c0-0.1-0.2-0.1-0.3-0.2c0,0,0.1-0.2,0.1-0.3
		c0-0.1-0.2-0.2-0.2-0.3c0-0.1-0.1-0.3-0.1-0.3c0-0.2-0.1-0.1-0.1-0.2c-0.2-0.3-0.2-0.4-0.3-0.6c0,0,0.1-0.2,0.1-0.3
		c-0.1-0.1-0.3-0.2-0.4-0.4c-0.1-0.2,0-0.4,0-0.6c0-0.7,0.4-1.4,0.4-1.9c0.9-0.7,1.8-1.4,2.7-2.1c0.1-0.1,0.3-0.1,0.4-0.2
		c0.3-0.2,0.4-0.4,0.6-0.6c0.1-0.1,0.3-0.2,0.4-0.3c0.2-0.2,0.5-0.2,0.7-0.4c0.1-0.1,0.2-0.3,0.2-0.4c0,0,0.1,0,0.2-0.1
		c0.1-0.1,0.1-0.2,0.2-0.2c0.1-0.1,0.3-0.1,0.4-0.2c0.3-0.2,0.4-0.4,0.6-0.6c0.3-0.2,0.4-0.4,0.6-0.6c0.1-0.1,0.3-0.1,0.4-0.2
		c0.1-0.1,0.1-0.3,0.3-0.4c0,0,0.1,0,0.2-0.1c0.1-0.1,0.1-0.2,0.2-0.2c0.9-0.8,1.9-1.8,1.8-3.3c-0.3,0-0.3-0.3-0.4-0.4
		c-0.1-0.1-0.7-0.3-0.8-0.2c-0.3,0.2-1-0.1-1.2,0.1c-0.5,0.2-1.1,0.3-1.6,0.5c-0.2,0.1-0.3,0.3-0.6,0.4c-0.4,0.2-0.8,0.1-0.9,0.4
		c-0.1,0.3-0.8,0.4-0.9,0.5c-0.1,0.1-0.1,0.3-0.2,0.4c-0.1,0-0.3,0-0.3,0.1c-0.1,0.1-0.1,0.3-0.2,0.4c-0.2,0.2-0.6,0.2-0.6,0.6
		c-0.2-0.1-0.5,0.4-0.5,0c0.3-2.9,1.1-5.3,0.8-7.9c-0.2-0.2-0.2-0.2-0.6-0.4c-0.2-0.1-0.8,0-0.6-0.4c-0.2,0-0.3-0.2-0.5-0.2
		c-0.2,0-0.1-0.1-0.1-0.2c-0.2-0.1-0.4-0.2-0.6-0.4c-0.6,0.1-1.2-0.3-1.8-0.3c-0.4,0-0.6,0.3-1,0.1c-0.3,0.2-0.8,0.7-0.8,1
		c0,0.2-0.4,0.2-0.4,0.3c0,0.1-0.2,0.1-0.2,0.1c-0.2,0.3-0.2,0.5-0.3,0.7c0,0,0,0.1,0,0.1c0,0.1-0.2,0.1-0.2,0.1
		c-0.3,0.7-0.4,1.5-0.6,2.4c-0.2,0.7-0.4,1.5-0.6,2.3c-0.3,1.6-0.6,3.5-0.9,5.3c-0.7,4-1.7,8.4-1.9,11.3c-0.1,1-0.3,1.8-0.3,2.6
		c0,0.6-0.2,1.5,0,1.7C205.3,34.3,205.2,34.5,205.2,34.5z"/>
	<path fill-rule="evenodd" clip-rule="evenodd" fill="#FFE400" d="M48.6,38.4c0.1,0.3,0.1,0.4,0.2,0.7c0.1,0.2,0,0.8,0.1,0.9
		c0.1,0.1,0.2-0.1,0.1,0.1c0,0,0.2,0.3,0.2,0.4c0,0.1-0.1,0.2-0.1,0.2c0,0.1,0.2,0.1,0.3,0.2c0.1,0.2,0,0.3,0,0.4
		c0.1,0.1,0.2,0.1,0.3,0.2c0.1,0.2-0.1,0.2,0.1,0.2c0.2,0,0.2,0.7,0.4,0.7c0.2,0,0.3,0.1,0.4,0.1c0.2,0,0.3-0.1,0.5-0.1
		c0.3,0,0.5,0.2,0.8,0.2c0.2,0,0.3,0.1,0.4,0.1c0.1,0,0.2-0.2,0.3-0.1c0.1,0,0.1,0.2,0.1,0.2c0.3,0.1,0.6,0,0.8,0.2
		c0.4-0.2,0.8-0.1,1.2-0.1c0,0,0,0.1,0.1,0.1c0.2,0,0.8-0.1,0.8-0.1c0.2-0.1,0.1,0.1,0.2,0.1c0.2,0,0.4-0.1,0.6-0.2
		c0,0,0.1,0.1,0.2,0.1c0.7,0,0.9-0.1,1.5,0.2c0.3,0.1,0.5,0.4,0.8,0.7c0.3,0.2,0.7,0.5,0.9,0.8c0.1,0.1,0.1,0.3,0.2,0.5
		c0.4,0.6,1.2,1.8,1.4,2.6c0.1,0.2,0,0.6,0.1,0.9c0.1,0.4,0.2,0.8,0.1,1c0,0.1-0.1,0.3-0.2,0.4c0,0.1,0,0.2,0,0.3
		c0,0.1-0.2,0.1-0.3,0.1c-0.1,0.1,0,0.4-0.1,0.5c-0.1,0.2-0.4,0.2-0.5,0.4c0,0-0.1,0.2-0.1,0.2c-0.1,0.2-0.2,0.3-0.3,0.5
		c-0.3,0.4-0.7,0.8-1.4,1c-0.7,0.2-1.2,0-1.6-0.1c-0.1,0-0.2,0.1-0.3,0.1c-0.3,0-0.5-0.2-0.8-0.2c-0.2,0-0.7,0-0.7-0.1
		c-0.1-0.1-0.1,0-0.2-0.1c-0.7-0.1-1.5-0.2-2-0.2c-0.2,0-0.3,0-0.5,0.1c-0.3,0.1-0.9-0.1-1.1,0.3c-0.3,0.5,0,0.7,0.1,1.2
		c0,0-0.1,0.1-0.1,0.2c0,0.1,0.2,0.2,0.3,0.2c0,0,0.1,0.2,0.1,0.2c0.3,0.3,0.7,0.5,0.9,0.6c0.3,0.3,0.5,0.3,0.9,0.4
		c0.3,0.1,0.7,0.3,0.9,0.3c0.2,0,0.3-0.1,0.5-0.1c0.1,0,0.2,0.2,0.3,0.2c0.1,0,0.2-0.1,0.3-0.1c0.1,0,0.3,0.1,0.4,0.1
		c0.2,0,0.4-0.1,0.6-0.2c0.1,0,0.3,0.1,0.4,0.1c0.3,0,0.7-0.1,0.8-0.1c1,0,4-1.6,4.6-2.2c0.5-0.4,1-0.7,1.3-1.1
		c0.1-0.1,0.1-0.3,0.2-0.4c0.1-0.1,0.3-0.2,0.4-0.3c0.1-0.1,0.1-0.3,0.2-0.4c0.3-0.4,0.5-0.7,0.7-1.1c0.3-0.5,0.4-0.8,0.5-1.1
		c0.1-0.4,0.4-0.9,0.3-1.2c-0.1-0.2,0-0.5,0-0.8c0-0.1,0-0.4,0-0.4c0-0.1,0.1-0.1,0.1-0.2c0-0.5-0.3-0.5-0.1-0.7
		c0,0-0.1-0.2-0.1-0.3c0,0,0.1,0,0.1-0.1c0,0-0.1-0.2-0.1-0.3c-0.2-0.8-1.3-3.1-1.8-3.6c-0.4-0.5-0.5-0.9-0.9-0.9
		c0,0-0.1-0.2-0.1-0.3c-0.6-0.7-1.1-0.9-1.8-1c-0.4-0.1-0.8-0.1-1.1-0.1c-0.2,0-0.4,0.1-0.6,0.1c0,0-0.1-0.1-0.2-0.1
		c-0.2,0-0.4,0-0.6,0c-0.4,0-0.7,0.1-1,0.2c-0.5-0.1-1.3-0.6-1.6-0.4c-0.2,0.1-0.1,0-0.2-0.1c-0.3,0-0.7,0-0.9,0
		c-0.2,0-0.2-0.2-0.3-0.3c-0.6-0.5-0.8-1.6-0.9-2.3c-0.1-0.3-0.2-0.8-0.1-1c0-0.1-0.1-0.2-0.1-0.2c0,0,0.1-0.1,0.1-0.1
		c0-0.1-0.1-0.2-0.1-0.3c0,0,0.1,0,0.1-0.1c0-0.1-0.1-0.2-0.1-0.2c0,0,0.1-0.1,0.1-0.1c0-0.1-0.1-0.2-0.1-0.2c0-0.2,0.2-0.4,0.3-0.6
		c0.1-0.2,0.1-0.2,0.2-0.4c0-0.1-0.1-0.2-0.1-0.2c0.1-0.4,0.5-0.8,0.7-1.2c0.2-0.3,0.2-0.7,0.3-0.9c0.1-0.1,0.3-0.2,0.4-0.3
		c0.5-1,0.6-2.2,1.5-2.2c0.7,0.6,0.5,1.3,0.6,2c0,0.7-0.3,1.4,0.1,2.1c0.9-0.3,2.1-0.2,2.3-0.8c0-0.1,0.3-0.1,0.3-0.1
		c0.1-0.1,0-0.3,0.2-0.4c0.2-0.1,0.1-0.1,0.1-0.2c0.1-0.3,0.3-0.8,0.3-1c-0.1-0.2,0.2-0.6,0.2-0.7c0,0-0.1-0.2-0.1-0.3
		c0,0,0.1,0,0.1-0.1c0,0-0.1-0.2-0.1-0.3c0,0,0.1,0,0.2-0.1c0,0-0.1-0.2-0.1-0.3c0,0,0.1,0,0.2-0.1c0,0-0.1-0.2-0.1-0.3
		c0-0.2,0.1-0.5,0.1-0.6c0-0.3-0.2-0.6-0.4-0.9c-0.4-0.5-1.1-0.3-1.4-0.7c-2.1,0.3-4.2,0.3-6.2,1.6c-0.3,0.2-0.5,0.5-0.6,0.6
		c-0.3,0.2-0.5,0.7-0.6,0.7c0,0.1-0.3,0.1-0.3,0.1c0,0.1,0,0.2,0,0.3c-0.1,0.2-0.3,0.4-0.4,0.7c-0.2,0.4-0.4,0.9-0.6,1.4
		c-0.2,0.3-0.5,0.4-0.4,0.7c0.1,0.1-0.1,0.1-0.1,0.2c-0.1,0.4-0.2,0.8-0.4,1.1c-0.1,0.2-0.3,0.5-0.4,0.7c0,0.1,0.1,0.3,0,0.4
		c0,0.1-0.1,0.3-0.2,0.4c-0.2,0.7-0.2,1.7-0.3,2.3c-0.1,0.3,0.1,0.6,0.1,0.9c0,0-0.1,0.1-0.1,0.1C48.4,38.2,48.5,38.4,48.6,38.4z"/>
	<path fill-rule="evenodd" clip-rule="evenodd" fill="#FFE400" d="M226.2,19.3c0.5,0,1.1,0.1,1.7,0.3c0.1-0.1,0.1-0.3,0.3-0.4
		c0.1,0,0.4,0,0.5,0c0.2-0.2,0.1-0.5,0.3-0.6c-0.7,0-0.8-0.5-1-0.6c-0.1,0-0.1-0.2-0.1-0.2c-0.8-0.4-1.5-0.5-2.4-0.5
		c-0.1,0.2,0,0.3,0.1,0.4c-0.3,0.1-0.7-0.1-0.8,0.4c0.3,0.1,0.6,0.2,0.9,0.2C225.3,19,226.3,18.9,226.2,19.3z"/>
	<path fill-rule="evenodd" clip-rule="evenodd" fill="#FFE400" d="M130.3,31.6c0.1,0.2,0.4,0.6,0.6,0.8c0.3,0.3,0.6,0.4,0.8,0.6
		c0,0,0.2-0.1,0.3,0c0,0,0,0.1,0,0.1c0,0,0.2-0.1,0.3,0c0,0,0,0.1,0,0.1c0.1,0.1,0.7,0,0.7,0c0.1,0,0.2,0.1,0.2,0.1
		c0.3,0,0.9-0.1,1.3-0.2c0.2,0,0.3-0.2,0.4-0.2c0.2-0.1,0.5,0,0.7-0.1c0.2-0.1,0.2-0.2,0.4-0.2c0.4-0.1,0.8-1.1,1.1-1.1
		c0.2,0,0.1-0.1,0.1-0.2c0.2-0.3,0.4-0.5,0.5-0.8c0.1-0.2,0.1-0.4,0.2-0.6c0,0,0.1,0,0.1,0c0,0,0-0.2,0-0.3c0,0,0.1,0,0.1,0
		c0,0-0.1-0.2,0-0.3c0-0.1,0.2-0.1,0.3-0.2c0.1-0.1,0.1-0.4,0.1-0.4c0.2-0.6,0.4-1.3,0.5-2c0.1-0.3,0.2-0.5,0.2-0.6
		c0.1-0.1,0-0.5,0.1-0.7c0.1-0.2,0.2-0.7,0.2-0.9c0.1-0.7,0-1.6,0.2-2.4c0.1-0.2-0.1-0.5-0.1-0.7c0.1-0.5,0.7-0.3,1-0.5
		c0.1-0.1,0.1-0.4,0.4-0.3c0.1,1.2,0.3,2.3,0.3,3.3c0,0.5-0.1,1,0,1.3c0,0,0.2,0.2,0.2,0.1c0,0.2-0.1,0.3-0.1,0.4
		c0,0.4,0.1,0.7,0.1,1.1c0,0.2,0.2,0.3,0.2,0.4c0,0.2-0.1,0.3-0.1,0.4c0.2,1.1,0.5,1.6,0.8,2.4c0.2,0.5,0.4,1,0.6,1.5
		c0.7,0.3,1.5,0.6,2.3,0.8c0.9,0.2,2,0.3,2.9,0.1c0.4-0.1,1.1-0.7,1.5-1.2c0.2-0.2,0.7-1,0.7-1.1c0-0.2,0.3-0.2,0.3-0.4
		c0-0.2,0.1-0.1,0.1-0.1c0.1-0.2,0.2-0.5,0.3-0.8c0.1-0.3,0.2-0.7,0.2-1c0.1-0.7,0.3-1.4,0.3-2c0.1-1-0.5-3.4,0-3.9
		c0.1-0.1-0.1-0.5-0.2-0.4c0.1-0.3,0.4-0.4,0.6-0.6c0.1-0.1,0.2-0.2,0.3-0.3c0.1,0,0.2,0,0.3,0c0,0,0.1-0.2,0.1-0.3
		c0.2-0.2,0.5-0.3,0.7-0.4c0.1-0.1,0.2-0.2,0.3-0.3c1.1-0.8,1.7-1.9,2.5-2.9c0-0.1,0.2-0.3,0.3-0.1c0.1,0.4-0.2,0.7-0.3,0.7
		c-0.1,0.1,0.2,0.2,0.2,0.1c0,0.1,0,0.3,0,0.4c-0.1,1.6,0,3.2-0.2,4.8c0,0.1-0.1,0.2-0.1,0.3c0,0.1,0,0.3,0,0.4
		c-0.1,0.8-0.1,1.6-0.2,2.4c-0.1,1-0.5,2.1,0,3c0.1,0.2,0.5,0.2,0.6,0.3c0.2,0.1,1.2,0.2,1.5,0.1c0.4-0.2,0.7-0.7,0.7-0.8
		c0-0.1,0-0.3,0-0.4c0-0.1,0.1-0.1,0.1-0.1c0-0.1-0.2-0.3-0.2-0.3c0-0.2,0.1-0.3,0.1-0.6c0-0.6,0.1-0.8,0.1-1.2c0-0.2,0-0.5,0-0.7
		c0-0.1,0.1-0.4,0.1-0.1c0.4,0.3,0.6,0.8,0.9,1.2c0.3,0.4,0.6,0.9,0.8,1.4c0.7,0.4,1.1,1.3,1.9,1.8c0,0,0.3,0.1,0.3,0.1
		c0.3,0,0.4,0.3,0.6,0.3c0.2,0,0.1,0.1,0.1,0.1c0.4,0.2,0.7,0.3,1,0.3c0.1,0,0.1,0.1,0.1,0.1c1.4,0.3,3.3,0,4.1-0.2
		c1.1-0.3,2.3-0.5,3.1-0.9c0.9,0.2,1.6,0.5,2.3,0.8c0.4,0.1,0.8,0.2,1.2,0.3c1,0.3,1.9,0.4,3.1,0.3c0.6,0,1.3,0.1,1.8,0
		c0.2,0,0.6-0.2,0.9-0.3c0.1,0,0.2-0.2,0.3-0.3c0.2-0.1,0.4,0,0.6-0.1c0.8-0.4,1.6-1.1,2.2-1.6c0.3-0.3,0.5-0.4,0.8-0.6
		c0.8-0.6,1.5-1.2,2.1-1.7c0.3-0.2,0.6-0.5,0.7-0.8c0.2,0,0.2-0.4,0.3-0.1c-0.1,0.7-0.1,1.6-0.2,2.1c0,0.1-0.2,0.1-0.2,0.1
		c-0.1,0.7,0.1,1,0,1.5c-0.1,0.5-0.1,0.4-0.1,0.7c0.1,0.6-0.2,1.4-0.2,1.8c0,0.1,0.1,0.1,0.1,0.2c0,0.3,0,0.6,0,1
		c0,0.1,0.2,0.2,0.3,0.3c0.1,0.2,0,0.4,0.1,0.6c0.1,0.1,0.4,0.4,0.4,0.5c0.1,0.1,0.5,0.1,0.7,0.2c0,0,0,0.1,0,0.1c0,0,0.2,0,0.3,0
		c0,0,0,0.1,0,0.1c0,0,0.2,0,0.3,0c0,0,0,0.1,0,0.1c0,0,0.2,0,0.3,0c0.6,0.3,1.4,0.1,2.3,0.3c0-0.2,0.2,0,0.3-0.1
		c0.1-0.1,0.1-0.3,0.2-0.4c0.1-0.1,0.3,0,0.5-0.1c0.1-0.1,0.1-0.3,0.2-0.4c0.1-0.1,0.3-0.2,0.3-0.2c0.2-0.3,0.5-1.2,0.3-1.2
		c-0.1-0.4-0.5-0.5-0.5-1c0-0.4-0.6,0.1-0.6,0.1c-0.1,0.1-0.3,0.1-0.5,0.2c-0.2,0.1-0.7,0.4-0.7,0c0-2.8,0.7-5.7,1-8.4
		c0.1-1,0.3-1.9,0.5-2.9c0.2-0.9,0.4-2.3,0.7-2.8c0.1-0.1,0-0.3,0-0.4c0.1-0.6,0.2-1,0.3-1.4c0.2-0.6,0.2-1,0.3-1.4
		c0.2-0.4,0.2-0.6,0.3-0.9c0-0.1,0.2-0.1,0.2-0.1c0.1-0.2,0-0.4,0.1-0.5c0-0.1,0.2-0.1,0.2-0.1c0.2-0.5,0.4-1.3,0.5-1.5
		c0.1-0.1,0-0.3,0.1-0.4c0.5-1.5,0.9-4.5,1-6.3c0-0.7,0.1-1.3-0.1-1.7c-0.2-0.4,0.1-0.5-0.6-0.4c0-0.4-0.7-0.3-0.8-0.7
		c-0.5-0.1-1-0.1-1.5-0.2c-0.3,0.3-0.6,0-0.7,0.5c0,0.2-0.2,0-0.3,0.1c0,0,0,0.2,0,0.3c-0.2,0.3-0.3,0.8-0.5,1.2
		c-0.1,0.2-0.2,0.4-0.2,0.5c0,0.2,0.2,0.2,0.1,0.4c0,0.1-0.2,0.2-0.2,0.1c0,0.5,0.2,1.2-0.2,1.4c0,0,0,0.2,0,0.3
		c-0.1,0.5-0.1,0.7-0.3,1.1c-0.2,0.6-0.5,1-0.6,1.3c-0.2,0.6-0.2,1.3-0.4,1.9c-0.1,0.5-0.4,1.6-0.7,1.7c0,0,0,0.2,0,0.3
		c-0.4,0.7-0.8,1.5-1,2.1c0,0.1-0.2,0.1-0.2,0.1c-0.2,0.4-0.1,0.7-0.3,1.1c-0.3,0.8-0.7,1.8-0.9,2.6c-1,0-1.8-0.3-2.6-0.1
		c-0.4,0.1-0.6,0.2-0.8,0.3c-0.1,0,0,0.2,0,0.3c-0.1,0.1-0.4,0.1-0.5,0.2c-0.1,0.2-0.1,0.4-0.2,0.5c0,0-0.1,0.1-0.2,0.1
		c-0.1,0.1-0.2,0.3-0.3,0.4c-0.1,0.1-0.2,0.2-0.3,0.4c-0.2,0.3-0.4,0.4-0.4,0.8c-0.6,0.2-0.8,1.1-0.9,1.7c0,0.1-0.2,0.1-0.2,0.1
		c-0.2,1.1-0.2,2.6,0,3.5c-0.4,0.3-1.2,0.8-1.4,1c0,0-0.2,0-0.3,0c-0.3,0.1-0.6,0.1-0.9,0.2c-0.1,0-0.1,0.2-0.2,0.3
		c-0.1,0-0.3,0-0.4,0c-0.7,0.1-1.3,0-1.6-0.1c-0.2-0.1-0.4-0.1-0.6-0.2c-0.2-0.1-0.4-0.1-0.6-0.2c0,0-0.1-0.2-0.1-0.3
		c-0.2-0.1-0.4-0.1-0.6-0.3c0.1-0.5,0.8-0.9,0.8-1.2c0-0.3,0.6-0.4,0.6-0.5c0.1-0.1,0.1-0.3,0.2-0.4c0.1-0.2,0.4-0.2,0.5-0.4
		c0,0,0-0.1,0-0.1c0-0.1,0.1-0.1,0.2-0.1c0.2-0.4,0.2-0.5,0.5-0.7c0,0,0-0.2,0-0.3c0,0,0.1,0,0.2,0c0,0,0-0.2,0-0.3
		c0.1-0.2,0.2-0.3,0.3-0.4c0,0,0-0.2,0-0.3c0,0,0.1,0,0.2,0c0,0,0-0.2,0-0.3c0.2-0.4,0.4-0.9,0.5-1.4c0.1-0.2,0.2-0.6,0.2-0.8
		c0.1-0.4,0.2-0.5,0.2-0.7c0,0-0.2-0.1-0.1-0.3c0,0,0.1-0.1,0.2-0.1c0-0.1-0.1-0.2-0.1-0.3c-0.1-0.1,0.2-0.5,0.2-0.5
		c0-0.1-0.1-0.2-0.1-0.3c0-0.2,0.1-0.4,0-0.6c-0.1-0.2-0.2-0.2-0.3-0.3c-0.1-0.1,0-0.3-0.1-0.4c-0.1-0.1-0.4-0.1-0.5-0.2
		c-0.3-0.3-0.5-0.6-0.9-0.7c-0.1,0-0.2,0-0.3,0c-0.4-0.1-0.4-0.3-0.8-0.3c-0.1,0-0.1-0.1-0.1-0.1c-1.2-0.2-2.6-0.2-3.6,0.1
		c-0.5,0.1-1,0.4-1.4,0.8c-0.1,0.1-0.1,0.3-0.2,0.4c-0.1,0.1-0.2,0.1-0.3,0.3c-0.2,0.2-0.3,0.5-0.5,0.7c-0.1,0.2-0.2,0.4-0.3,0.7
		c0,0.1-0.3,0.2-0.3,0.3c0,0.1,0,0.2,0,0.3c-0.1,0.3-0.2,0.7-0.3,1.1c0,0-0.1,0-0.2,0.1c-0.3,1.1,0.1,3.5-0.2,4.6
		c-0.1,0.4,0,0.1,0,0.6c0,0.1,0.1,0.1,0.1,0.1c0.1,0.3,0.1,0.5,0.1,0.7c0.2,0.4,0.4,0.9,0.6,1.3c-1.1,0.2-2.1,0.5-3.1,0.8
		c-0.4,0.1-0.5-0.4-0.7-0.6c-0.4-0.3-0.7-0.6-0.9-1c-0.1-0.1-0.1,0-0.1-0.3c0-0.2-0.1-0.1-0.1-0.1c-0.2-0.3-0.3-0.6-0.4-0.8
		c-0.1-0.1-0.2-0.2-0.3-0.3c0,0-0.1-0.2-0.2-0.3c0-0.2-0.2-0.4-0.3-0.6c0-0.1-0.1-0.2-0.2-0.3c0-0.2-0.2-0.4-0.3-0.6
		c0,0-0.1-0.1-0.2-0.1c-0.3-0.4-0.4-0.9-0.6-1.2c0.6,0,1.4-0.1,2-0.4c0.1,0,0.3-0.3,0.5-0.4c0.2-0.2,0.5-0.4,0.6-0.4
		c0.4,0,0.7-0.7,0.9-0.8c0.4-0.3,0.8-0.6,0.9-1c0.4-0.7,0.5-1.8,0.2-2.3c0,0-0.3-0.1-0.3-0.1c-0.3-0.3-0.5-0.4-0.9-0.7
		c-0.1-0.1-0.2-0.3-0.3-0.4c-0.2-0.1-0.8-0.2-0.9-0.3c-0.3-0.2-0.5-0.3-0.8-0.3c-0.1,0-0.1-0.1-0.2-0.1c-1.2-0.2-2.6,0.2-3.9,0
		c0.3-2.4,0.5-4.8,0.8-7.2c0.1-0.6,0.2-1.1,0.3-1.7c0-0.3-0.1-0.6,0-1c0-0.2,0.3-0.6,0.3-0.8c0.1-0.6,0-1.7,0.3-1.9c0,0,0-0.2,0-0.3
		c0.1-0.7-0.1-0.9-0.3-1.4c-0.1-0.1-0.1-0.1-0.2,0c-0.1,0.1-0.2-0.1-0.2-0.1c-0.4-0.1-0.7-0.2-0.8-0.3c-0.5-0.1-1,0-1.3,0.2
		c-0.7,0-0.1,0.4-0.5,0.4c-0.3,0-0.1,0.4-0.3,0.4c-0.4,0.4-0.4,1-0.5,1.3c0,0,0,0.1,0,0.1c0,0.1-0.1,0.1-0.2,0.1
		c-0.1,0.2-0.1,0.5-0.1,0.7c-0.3,0.7-0.5,1.5-0.8,2.2c0,0-0.1,0-0.2,0c-0.1,0.1,0,0.5,0,0.6c-0.1,0.4-0.3,1-0.4,1.1c0,0,0,0.4,0,0.4
		c0,0.1-0.1,0.1-0.2,0.1c-0.1,0.4-0.2,0.8-0.3,1.3c-0.2,0.5-0.4,1-0.4,1.4c0,0.3-0.2,0.6-0.3,0.8c-0.2,0.4-0.5,1-0.6,1.3
		c0,0,0,0.1,0,0.1c0,0.1-0.1,0.1-0.2,0.1c-0.1,0.2-0.1,0.3-0.1,0.6c0,0.1-0.1,0.1-0.2,0.1c-0.1,0.3-0.2,0.7-0.3,1
		c0,0-0.2,0.2-0.2,0.1c-0.3,0.3-0.3,0.8-0.4,1c-0.2,0.4-0.3,0.8-0.4,1.1c0,0-0.3,0.1-0.3,0.2c-0.2,0.2-0.1,0.4-0.3,0.6
		c0,0.1-0.2,0.1-0.3,0.2c0,0,0.1,0.2,0,0.3c-0.1,0.1-0.5,0.2-0.4,0.4c-0.4-0.1-0.3-0.5-0.5-0.8c-0.1-0.2-0.3-0.6-0.5-0.8
		c-0.1-0.1-0.3-0.2-0.3-0.3c0,0-0.2-0.2-0.2-0.3c0-0.2-0.1-0.1-0.2-0.1c-0.2-0.3-0.4-0.6-0.7-0.8c-0.4-0.3-1.1-0.5-1.6-0.6
		c-0.3-0.1-0.6-0.2-0.6-0.2c-0.1-0.1-0.5,0.1-0.6,0c-0.1,0-0.2-0.1-0.3-0.1c-0.1,0-0.2-0.1-0.2-0.1c-0.6,0-1.3,0-1.7,0.1
		c0,0,0,0.1,0,0.1c0,0-0.3,0-0.3,0c-0.2,0.1-0.2,0.2-0.3,0.3c-0.2,0.2-0.5,0.5-0.6,0.6c0,0-0.1,0.4-0.1,0.4c0,0.2,0,0.2-0.1,0.3
		c0,0,0,0.2,0,0.3c0,0.1-0.3,0.2-0.1,0.4c-0.7,0.7-1.4,1.4-2.6,1.8c-0.3-1-0.7-1.8-1.2-2.5c-0.3-0.2-0.9-0.1-1.3-0.3
		c-0.7-0.4-1.5-0.2-2.2-0.2c-1,0.1-2.7,0.3-3.1,0.8c0,0.1-0.3,0-0.3,0c-0.3,0.2-0.4,0.7-0.7,0.8c-0.4,0.1-0.3,0.4-0.4,0.6
		c0,0-0.3,0.1-0.3,0.2c0,0.1-0.1,0.4-0.1,0.4c0,0.1-0.1,0.1-0.1,0.2c-0.1,0.3,0,0.5,0,0.8c0,0.2-0.2,0.5-0.2,0.7
		c-0.1,0.2,0,0.3-0.1,0.6c0,0.1-0.1,0.1-0.1,0.2c-0.1,0.3,0,0.5,0,0.8c-0.1,0.5-0.2,1-0.2,1.6c-0.1,1.4,0.1,3,0.4,4.6
		C129.9,29.4,129.9,30.8,130.3,31.6z M185.3,22.4c0.1-0.2,0.3-0.2,0.3-0.4c0.2-0.4,0.4-0.7,0.6-1.1c0.1,0,0.1,0.2,0.1,0.3
		c-0.3,0.7-0.7,1.2-0.9,1.9C185.2,22.9,185.3,22.6,185.3,22.4z M172.7,22.6c0-0.1,0.2-0.1,0.2-0.3c0-0.3-0.2-0.4-0.1-1
		c0.2-1.7,1-3.1,1.9-4.2c0.2,0,0.3,0,0.5,0c0,0.2,0.3,0.2,0.3,0.4c0.2,0,0.1,0.2,0.1,0.3c0.1,0.1,0.2,0.3,0.1,0.7
		c0,0.2-0.2,0.2-0.2,0.4c0,0.2,0.2,0.3,0.1,0.6c0,0.2-0.1,0.5-0.2,0.8c-0.1,0.3-0.3,0.7-0.4,1c-0.1,0.4-0.3,1.2-0.5,1.5
		c0,0-0.1,0.4-0.2,0.4c0,0-0.1,0-0.1,0c0,0,0,0.2,0,0.3c0,0-0.1,0-0.2,0c0,0,0,0.2,0,0.3c0,0-0.1,0-0.2,0c0,0,0,0.2,0,0.3
		c0,0-0.1,0-0.1,0c0,0,0,0.2,0,0.3c-0.1,0-0.3,0.3-0.5,0.5c-0.5-0.2-0.5-1-0.5-1.7C172.7,23,172.7,22.7,172.7,22.6z M159.6,17.9
		c0.4-0.3,0.9-0.5,1.4-0.9c0.3-0.2,0.6-0.4,1.4-0.3c0.5,0.5,0.8,0.7,0.8,1.4c0,0.6-0.4,0.7-0.9,1.2c-0.5,0.5-0.8,0.9-1.2,1
		c-0.6,0.1-0.9-0.3-1.5-0.4C159.5,18.9,159.7,18.9,159.6,17.9z M148,21.7c-0.1,1.6,0.2,3.2,0.2,4.7c0,0.8-0.3,1.7-0.4,2.4
		c-0.1,0.4-0.1,0.8-0.2,1.1c0,0.1-0.1,0-0.1,0.1c0,0.3-0.4,0.2-0.4,0.7c-0.6-0.3-0.5-1.1-0.9-1.7c0-0.1-0.1,0-0.2-0.1
		c0-0.2-0.1-0.2-0.2-0.4c-0.1-0.2,0-0.4,0-0.6c-0.2-0.5-0.4-2.1-0.4-3.2c0-1,0-2.7-0.2-4C146,21.2,146.9,21.5,148,21.7z M133.9,18.2
		c0.1-0.1,0.4-0.1,0.4-0.3c0.2-0.1,0.3,0.1,0.5,0.1c0.2,0.8,0.7,1.9,0.6,2.6c-0.6,0-1-0.3-1.5-0.5c-0.1-0.5-0.1-1-0.2-1.5
		C133.9,18.4,133.9,18.3,133.9,18.2z M132.7,22.2c1,0.1,1.8,0.4,3,0.3c0.1,0.9,0.1,1.7,0,2.6c0,0-0.1,0-0.1,0.2
		c0,0.2,0.1,0.4,0.1,0.5c0,0-0.1,0-0.1,0.2c0,0.4,0,0.5,0,1c0,0.2,0.1,0.5,0.1,0.7c0,0-0.1,0-0.1,0.2c0,0.3,0,0.4-0.1,0.7
		c0,0.1-0.1,0.2-0.1,0.4c0,0.1-0.2,0.7-0.3,1c0,0.1,0,0.2,0,0.3c0,0.1-0.1,0.1-0.1,0.2c-0.1,0.3-0.4,0.7-0.6,1.1
		c-1.1-0.6-1-2.1-1.2-3.3c-0.1-1.2-0.3-2.6-0.3-3.7c0-0.6,0-1.3,0.1-1.8C132.7,22.5,132.7,22.4,132.7,22.2z"/>
	<path fill-rule="evenodd" clip-rule="evenodd" fill="#FFE400" d="M223.2,28.4c-0.3,1.1-0.5,2.4-0.5,3c0,0.1-0.1,0.2-0.1,0.3
		c-0.1,0.8-0.1,1.2-0.1,1.7c0,0.5,0,0.6-0.1,1c0,0.1,0.1,0.1,0.1,0.2c0,0.8-0.2,1.6-0.1,2.3c0.2,0.4,0.4,0.6,0.7,0.9
		c0.3,0.3,0.6,0.6,0.9,0.7c0.1,0,0.1,0.2,0.1,0.2c0.6,0.3,1.6,0.5,2.1,0.6c0,0,0-0.1,0-0.1c0.1-0.1,0.4,0.2,0.6,0.2
		c0.1,0,0.4-0.2,0.5-0.3c0.2-0.1,0.5-0.1,0.6-0.1c0.2-0.1,0.5-0.3,0.5-0.3c0.1,0,0-0.2,0.1-0.3c0,0,0.1,0,0.1,0c0.1,0,0-0.2,0.1-0.3
		c0.1-0.1,0.4-0.2,0.5-0.3c0.8-0.7,1.4-1.7,2-2.6c0.2-0.3,0.4-0.5,0.5-0.6c0,0,0.1-0.2,0.1-0.3c0.2-0.5,0.4-0.9,0.6-1
		c0,0,0.1-0.2,0.1-0.3c0.3-0.7,0.5-1.1,0.8-1.6c0.2-0.4,0.4-0.9,0.8-1.1c-0.3,0.9-0.5,1.9-0.6,2.4c0,0.9-0.5,1.8-0.7,2.7
		c-0.2,0.9,0,1.9-0.5,2.6c0.2,0.6,0.1,1.3,0,2c0,0.2,0.4,0.2,0.5,0.3c0.1,0.1-0.1,0.5,0,0.6c0,0.1,0.2,0.1,0.3,0.1
		c0.2,0.1,0.3,0.3,0.5,0.4c0.1,0,0,0.1,0.1,0.2c0.2,0.1,0.3,0.2,0.4,0.3c0,0,0.1,0,0.1,0c0.1,0,0.1,0.2,0.1,0.2c0.1,0,0.5,0,0.7,0.1
		c0.4,0.1,0.6,0.3,0.8,0.3c0.3,0,1.8-0.7,1.8-0.8c0.1-0.1,0.1,0,0.2-0.1c0.2-0.1,0.2-0.3,0.3-0.5c0.1-0.1,0.2-0.1,0.3-0.3
		c0.1-0.1,0.1,0,0.2-0.1c0.2-0.2,0.2-0.3,0.3-0.5c0.3-0.4,0.9-0.8,1.1-1.2c0.1-0.1,0.2,0,0.2-0.1c0.3-0.3,0.3-1.1,0.9-0.9
		c-0.3,0.7-0.5,1.4-0.5,1.9c0,0.4,0,0.7,0.1,0.8c0,0.1-0.1,0.2-0.1,0.3c0,0.1,0.2,0.2,0.2,0.4c-0.1,0.3,0.9,1.8,0.9,1.8
		c0.3,0.1,0.3,0.4,0.5,0.5c0.1,0.1,0,0.1,0.1,0.2c0.8,0.6,1.9,0.8,3,1.3c0.3-0.3,0.7-0.2,0.9-0.3c0.1-0.1,0.1-0.3,0.3-0.3
		c0.2-0.1,0.4-0.1,0.6-0.2c0.2-0.1,0.6-0.3,0.7-0.5c0.1-0.1,0.2,0,0.2-0.1c0.3-0.4,0.5-0.9,0.9-1c0,0,0.1-0.2,0.1-0.3
		c0.1-0.1,0.3-0.2,0.4-0.3c0,0,0.1-0.2,0.1-0.3c0.1-0.1,0.2-0.2,0.3-0.3c0.3-0.4,0.4-1,0.7-1.4c0-0.1,0.2-0.1,0.2-0.1
		c0.5-0.7,0.9-1.6,1.2-2.3c0-0.1,0.2-0.1,0.2-0.1c0.1-0.2,0-0.3,0-0.4c0.1-0.1,0.2-0.1,0.2-0.2c0.3-0.4,0.1-1,0.6-1.1
		c0.2,0.6-0.6,1.7-0.3,2.1c0.1,0.1-0.2,0.1-0.2,0.1c-0.1,0.2-0.2,0.4-0.1,0.6c0,0-0.1,0.2-0.1,0.3c-0.1,0.6-0.3,0.9-0.4,1.3
		c-0.1,0.5-0.3,1.5-0.2,1.7c0.2,0.3-0.3,0.6-0.2,0.8c0.1,0.1-0.3,0.7-0.3,0.8c0,0.3,0.3,0.4,0.3,0.6c0,0.4-0.3,0.4-0.3,0.8
		c0.5,0,0.6,0.5,1,0.7c0.7,0.3,0.9,0.2,1.4,0.3c1-1.3,2-3,2.9-4.2c0.3-0.3,0.3-0.6,0.5-0.8c0,0,0.3-0.1,0.4-0.1
		c0.3-0.3,0.2-0.5,0.4-0.6c0.6-0.3,0.6-1.7,1.6-1.7c0,0.5,0.2,1.1,0.1,1.4c0,0.1,0.1,0.1,0.1,0.2c0,0.5-0.3,0.6-0.2,0.8
		c0,0-0.1,0.2-0.1,0.3c0,0,0.1,0,0.1,0.1c0,0-0.1,0.2-0.1,0.3c0,0.3,0.1,0.6,0.2,0.7c0,0-0.1,0.2-0.1,0.3c0,0,0.1,0,0.1,0.1
		c0,0-0.1,0.2-0.1,0.3c0,0.5-0.1,1.2-0.4,1.8c0.2,0.2,0,0.4,0.1,0.6c0,0,0.2,0.2,0.2,0.2c0.1,0.4,0.1,0.7,0.2,1
		c-0.1,0.3,0,0.7,0,0.8c0,0-0.1,0.2-0.1,0.3c0,0.4,0.2,0.9,0.4,1.3c0.1,0.1,0.2,0.4,0.3,0.4c0.2,0.1,0.2,0.4,0.4,0.5
		c0.1,0.1,0,0.2,0.1,0.2c0.5,0.5,1.3,0.7,2.1,1.1c0.7,0,1.1-0.5,1.8-0.4c0,0.3,0.4,0.5,0.6,0.8c0.1,0.1,0,0.4,0.1,0.5
		c0.1,0.2,0.3,0.2,0.5,0.4c0.1,0.1,0.2,0.2,0.2,0.3c0.1,0.1,0.1,0.2,0.1,0.2c0.4,0.3,1.6,0.9,2.3,1.1c0.1,0.1,0.2,0,0.3,0
		c0.3,0.1,0.4,0.2,0.6,0.1c0.1,0,0.2,0.1,0.3,0.1c0,0,0-0.1,0.1-0.1c0.1,0,0.2,0.1,0.3,0.1c0,0,0-0.1,0.1-0.1c0,0,0.2,0.1,0.3,0.1
		c0,0,0-0.1,0.1-0.1c0.1,0,0.2,0.1,0.3,0.1c0.3,0,0.6-0.2,0.9-0.3c0.4-0.1,0.6-0.3,1-0.3c0.4-0.4,0.8-0.7,1.2-1.1
		c0.5-0.4,0.8-0.8,1.4-1c0,0.7-0.7,1.5-1,2.3c0,0.3,0.8,0.4,0.7,0.7c0.1,0.8,1.3,1.1,2.1,1.3c0.1-0.1,0.2-0.3,0.4-0.1
		c1.3-1.2,1.4-3.1,2.3-4.6c0.2-0.4,0.4-0.5,0.6-0.8c0.1-0.1,0.2,0,0.2,0c0.3-0.4,0.5-0.8,0.8-1.1c0.1-0.1,0.2-0.2,0.4-0.4
		c0.2-0.2,0.3-0.4,0.5-0.5c0,0,0.1,0.1,0.1,0.1c0.2,0,0.2-0.4,0.4-0.4c0.2,0,0.2-0.4,0.5-0.2c-0.2,0.4,0.2,0.7,0.2,0.9
		c0,0.3-0.2,0.4-0.2,0.7c0,0.1,0.2,0.2,0.2,0.3c0,0.1-0.1,0.2-0.1,0.2c-0.1,0.4,0,0.9,0.1,1.2c0,0.1,0,0.3,0,0.3
		c-0.1,0.2,0,0.5,0,0.6c0,0.1,0,0.3,0,0.3c-0.1,0.2,0,0.5,0,0.6c0,0.5,0.1,1,0.1,1.5c0,0.1,0.1,0,0.1,0.2c0,0.2-0.1,0.3-0.1,0.4
		c0,0.4,0.1,0.6,0.2,0.9c0,0.2,0.1,0.6,0.1,0.7c0.1,0.3,0.5,0.3,0.6,0.5c0,0.1-0.1,0.3,0,0.3c0.1,0.2,0.4,0.3,0.5,0.4
		c0.5,0.5,1.6,1.2,2.1,1.3c0,0,0.2-0.1,0.3-0.2c0.1,0,0.4-0.1,0.6-0.1c0.2-0.2-0.2-0.5-0.3-0.7c-0.2-0.3-0.4-0.5-0.7-0.7
		c0.2-0.5-0.3-1.3-0.1-1.7c0.1-0.1-0.1-0.1-0.1-0.2c0-0.2,0.1-0.5,0.1-0.8c0,0-0.1-0.1-0.1-0.1c0-0.1,0.1-0.2,0.1-0.2
		c0,0-0.1-0.1-0.1-0.1c0-0.1,0.2-0.5,0.1-0.6c0-0.1-0.1-0.3-0.1-0.4c0-0.1,0.1-0.4,0.1-0.4c0.1-0.1-0.1-0.1-0.1-0.2
		c0-0.4,0-0.7-0.1-0.8c0-0.1,0.1-0.2,0.1-0.2c0,0-0.1-0.1-0.1-0.1c0-0.1,0.1-0.2,0.1-0.2c0-0.2-0.2-0.4-0.2-0.6
		c0-0.1,0.2-0.2,0.2-0.4c0-0.1-0.2-0.2-0.2-0.3c0-0.3,0.1-0.5,0.1-0.8c0-0.2-0.2-0.4-0.2-0.6c0,0,0.1-0.1,0.1-0.1
		c0.1-0.2,0-0.5,0-0.6c0-0.2-0.2-0.4-0.2-0.6c-0.1-0.2-0.1-0.5-0.1-0.7c-0.7-0.6-1.3-1.2-2.4-1.6c-0.1,0.1-0.3,0.2-0.5,0.2
		c-0.2,0.1-0.3,0.1-0.5,0.2c-0.3,0.2-0.6,0.5-0.7,0.7c-0.1,0.1-0.2,0-0.2,0c-0.2,0.2-0.2,0.4-0.3,0.6c-0.3,0.4-0.4,0.5-0.6,0.8
		c-0.1,0.1-0.2,0-0.2,0c-0.1,0.2-0.1,0.6-0.5,0.5c0.4-1.3,0.7-2.6,0.8-3.9c-0.4-0.2-0.6-0.4-0.8-0.6c0,0,0-0.3,0-0.3
		c-0.6-0.5-1.4-0.8-1.6-0.8c-0.2-0.1-0.3-0.1-0.5-0.1c0,0-0.1-0.1-0.1-0.1c-0.1,0-0.1,0.2-0.1,0.2c-0.4,0.1-0.4,0-0.7,0.3
		c0,0-0.2,0.1-0.2,0c-0.1,0.1,0.1,0.1,0.1,0.2c0,0.2-0.3,0.1-0.3,0.2c-0.3,0.4-0.7,1.6-1,1.6c-0.1,0,0.1,0.2,0.1,0.2
		c-0.3,0.9-1,1.8-1.4,2.1c-0.1,0.1-0.2,0.2-0.3,0.3c-0.1,0-0.3,0-0.4,0.1c-0.1,0.1-0.1,0.2-0.1,0.2c-0.1,0.1-0.2,0-0.2,0.1
		c-0.2,0.2-0.3,0.5-0.5,0.7c0,0-0.1,0-0.2,0.1c-0.1,0.1-0.1,0.2-0.1,0.2c-0.1,0-0.3,0.1-0.4,0.1c-0.2,0.2-0.4,0.3-0.6,0.5
		c-0.7,0.5-1.6,0.8-2.2,1c-0.3-0.4-0.3-0.9-0.4-1.3c-0.1-0.4-0.2-0.9,0-1.4c0.3-0.7,1.2-1.3,1.7-2.1c0.7-1.1,1.3-2,0.1-3
		c-0.1,0.2-0.4,0-0.5,0c-0.2,0-0.3,0.2-0.5,0.4c0,0-0.1-0.1-0.1-0.1c-0.1,0-0.1,0.2-0.1,0.2c-0.1,0.1-0.2,0.1-0.3,0.2
		c-0.1,0.2-0.1,0.5-0.4,0.6c0.1-0.2,0.2-0.3,0.2-0.5c0.1-0.5,0-0.3,0.2-0.5c0.1-0.1,0.1-0.2,0.1-0.3c0.4-0.6,0.4-1,0.6-1.6
		c0.1-0.3,0.3-0.7,0.5-1c0.5,0.3,0.3,0.9,0.8,1.2c0.3,0.6,1,0.3,1.5,0.3c0.3-0.5-0.2-1-0.3-1.2c0-0.1,0.1-0.4,0-0.4
		c-0.1-0.1-0.4-0.2-0.6-0.3c0,0,0-0.1-0.1-0.2c0,0-0.1,0-0.1-0.1c-0.1-0.1-0.1-0.2-0.1-0.2c-0.7-0.5-1.9-0.8-2.1-0.8
		c-0.2,0-0.4,0-0.5-0.1c-0.4-0.1-0.5-0.1-0.7,0c-0.3,0.1-0.5,0.3-0.7,0.4c-0.1,0.1-0.3,0.1-0.4,0.1c-0.2,0.1-0.4,0.5-0.6,0.6
		c-0.1,0-0.3,0.1-0.4,0.1c-0.7,0.5-0.8,1.5-1.2,2.2c-0.1,0.2-0.2,0.2-0.4,0.4c-0.5,0.7-0.7,1.2-1.1,1.6c-0.1,0.4,0.2,0.7,0.2,1.1
		c-0.1,0.8,0.1,1.6,0.1,2.5c0,0.4,0.4,0.7,0.1,1.3c-0.1,0-1.4,0.5-1.5,0.4c0,0,0-0.3,0-0.3c0-0.1-0.2-0.2-0.2-0.3
		c0-0.2,0.2-0.5,0.1-0.7c0,0-0.1,0-0.1-0.1c0,0,0.1-0.2,0.1-0.3c0,0-0.1,0-0.1-0.1c0-0.1,0.1-0.2,0.1-0.3c0-0.1-0.2-0.2-0.2-0.3
		c0-0.1,0.1-0.3,0-0.4c0-0.2,0-0.5,0-0.6c-0.1-0.2-0.2-0.4-0.2-0.6c0-0.2-0.1-0.2-0.2-0.4c0-0.1,0.1-0.2,0.1-0.3c0,0-0.1,0-0.1-0.1
		c0-0.1,0.1-0.2,0.1-0.3c0-0.1-0.2-0.3-0.2-0.4c0-0.3,0.1-0.6,0-0.8c0-0.1,0.1-0.2,0.1-0.3c-0.1-0.3-0.3-0.5-0.2-0.7
		c0.1-0.1-0.1-0.1-0.1-0.2c0-0.2,0-0.5,0-0.8c0-0.1-0.2-0.2-0.2-0.3c0-0.2,0.1-0.3,0-0.4c0-0.1,0.1-0.2,0.1-0.3
		c0-0.1-0.2-0.2-0.2-0.3c0-0.6,0.1-1,0.1-1.5c-0.2-0.2-0.4-0.3-0.5-0.5c0,0-0.1,0-0.1-0.1c0-0.1,0.1-0.2,0.1-0.3
		c0-0.1-0.2-0.1-0.3-0.1c-0.4-0.3-0.9-0.6-1.7-0.9c-0.3,0.3-0.8,0.2-1,0.5c-0.1,0.1-0.1,0.2-0.3,0.2c0,0-0.1,0.3-0.2,0.4
		c-0.1,0.1-0.2,0-0.2,0.1c-0.2,0.2-0.2,0.5-0.5,0.5c0.4-1.2,0.6-2.4,1-3.6c0.5-1.3,1.2-2.9,1.4-3.9c0.1-0.2,0.2-0.4,0.3-0.6
		c0-0.1-0.1-0.2-0.1-0.2c0-0.1,0.2-0.1,0.3-0.2c0,0-0.1-0.1-0.1-0.2c0-0.1,0.1-0.2,0.1-0.3c0.3-1.4,0.8-2.8,0.8-4.1
		c-0.6-0.1-0.7-0.7-1.2-0.9c-0.5-0.2-0.9-0.3-1.6-0.5c0,0.5-0.4,0.3-0.7,0.3c-0.2,0.8-0.6,1.4-0.8,1.7c-0.4,0.6-0.8,0.9-1.1,1.5
		c-0.3,0.5-0.3,1.1-0.6,1.5c-0.1,0.2-0.5,0.5-0.6,0.8c-0.3,0.4-0.5,1-0.7,1c-0.1,0-0.1,0.4-0.2,0.5c0,0-0.1-0.1-0.1-0.1
		c-0.1,0-0.1,0.4-0.2,0.5c-0.2,0.3-0.5,0.6-0.7,0.9c-0.2,0.4-0.3,0.9-0.4,1.2c0,0.1-0.2,0.1-0.2,0.1c-0.5,1.1-0.8,1.9-1.3,3
		c-0.3,0.6-0.8,1.3-1.3,2c-0.3,0.4-0.3,0.5-0.5,0.9c0,0.1-0.2,0.1-0.2,0.1c-0.3,0.4-0.5,1-0.7,1.1c0,0-0.1,0.2-0.1,0.3
		c-0.2,0.2-0.4,0.3-0.5,0.4c-0.3,0.2-0.2,0.4-0.4,0.6c-0.8,0.8-1.2,1.1-1.5,0.5c-0.1-0.2-0.1-0.3-0.1-0.5c0-0.1-0.2-0.2-0.2-0.4
		c0-0.2,0.1-0.4,0-0.6c0-0.1-0.1,0-0.1-0.2c0-0.2,0-0.3,0-0.4c0-0.2,0-0.4,0-0.6c0.1-0.7,0.2-0.8,0.4-1.2c0.1-0.2,0.1-0.4,0.2-0.5
		c0.5-1.1,0.8-1.7,1.2-2.5c0.3-0.5,0.5-1.2,0.8-1.8c0,0,0.1,0.1,0.1,0.1c0,0,0.1-0.2,0.1-0.3c0.2-0.4,0.3-0.5,0.5-0.9
		c0.4-0.7,1-1.2,1.2-1.9c-0.6-0.3-1-0.8-2-1c-0.5,0.1-1.1,0.6-1.4,0.7c-0.1,0,0,0.2-0.1,0.3c-0.1,0.1-0.4,0.1-0.5,0.1
		c-0.1,0,0,0.2-0.1,0.3c-0.1,0.1-0.3,0.1-0.4,0.2c-0.1,0.1-0.1,0.1-0.2,0.2c-0.1,0.1-0.4,0.2-0.4,0.3c-0.1,0.1-0.1,0-0.2,0.1
		c-0.1,0.1-0.1,0.3-0.3,0.3c-0.1,0-0.3,0-0.3,0c-0.1,0.1-0.1,0.3-0.3,0.3c-0.2,0.1-0.6,0.2-0.8,0.3c0,0,0,0.1,0,0.1
		c-0.1,0.2-0.5,0.3-0.6,0.4c-0.1,0,0,0.2-0.1,0.3c-0.2,0.1-0.3,0-0.4,0.3c-0.1,0.1-0.1,0-0.2,0.1c-0.1,0.1-0.1,0.2-0.3,0.3
		c-0.1,0-0.3,0-0.3,0c-0.1,0.1-0.2,0.3-0.3,0.3c-0.2,0.2-0.5,0.5-0.7,0.5c-0.1,0-0.2,0.3-0.3,0.3c-0.2,0.1-0.2,0.3-0.3,0.5
		c0,0-0.3,0.1-0.4,0.2c-0.2,0.2-0.1,0.7-0.5,0.7c0.2-1.1,0.7-2.2,0.9-3.3c0.1-0.5,0-0.9,0.1-1.4c0.4-1.8,1.3-3.6,1.7-5.4
		c0.1-0.6,0-1.1,0.4-1.6c0.3-0.2,0.6-0.1,0.9-0.3c0.3-0.1,0.6-0.4,0.9-0.6c0.1-0.1,0.3-0.1,0.4-0.2c0.5-0.3,1-0.6,1.1-1.2
		c-0.9-0.5-2-0.2-2.6-0.8c0.7-1.9,0.9-3.7,1.2-5.4c-0.4-0.1-0.8-0.2-0.9-0.4c0-0.3-0.6-0.3-0.7-0.6c-0.7-0.1-1.2-0.5-2.1-0.5
		c-0.3,0.1-0.7,0.2-0.7,0.7c-0.4-0.1-0.5,0.4-0.8,0.5c0.1,0.7-0.5,1.3-0.6,1.5c-0.1,0.1-0.1,0.3-0.1,0.4c-0.4,0.8-0.7,1.3-1.2,1.8
		c-0.1,0.2-0.3,0.2-0.5,0.4c-0.2,0.2-0.1,0.4-0.3,0.5c-0.4,0.3-0.6,1-0.8,1.5c-1.5,0.1-2.9,0.4-4.6,0.1c-0.3,0.3-0.4,0.2-0.3,0.6
		c-0.3,0.1-0.8,0-0.8,0.5c0.3,0.1,0.5,0.4,1,0.4c-0.3,0.4,0.1,0.4,0.2,0.6c0.5,0.1,0.7,0.4,1.1,0.6c0.8,0.3,1.7,0.2,2.3,0.6
		c-0.5,0.7-0.8,1.6-1.1,2.3c-0.1,0.2-0.3,0.5-0.3,0.6c0,0.1-0.2,0.1-0.2,0.1c-0.4,0.7-0.8,1.3-1,1.9c-0.4,1-0.9,1.9-1.4,2.8
		c-0.1,0.1-0.2,0.1-0.2,0.2c-0.3,0.4-0.4,0.9-0.7,1.3c-0.3,0.4-0.8,1.2-1.1,1.3c-0.1,0,0,0.2-0.1,0.3c-0.1,0.1-0.3,0.1-0.4,0.2
		c-0.3,0.2-0.4,0.4-0.8,0.2c0-1.2,0.4-2.4,0.5-3.7c0.2-1.2,0.1-2.5,0.3-3.6c0.1-0.5,0.3-0.9,0.4-1.3c0-0.3-0.1-0.6-0.1-0.9
		c0-0.4,0.1-0.8,0.1-1.1c-0.5-0.3-0.9-0.6-1.7-0.7C223.9,26.4,223.5,27.4,223.2,28.4z"/>
</g>
</svg>
