<svg id="Layer_1" data-name="Layer 1" xmlns="http://www.w3.org/2000/svg" viewBox="0 0 33.25 50"><defs><style>.cls-1{fill:#ffe400;}.cls-2{fill:#444;}.cls-3{fill:#fff;}</style></defs><title>maps-icon</title><path class="cls-1" d="M655.21,504.25a15,15,0,1,0-29.47,2.64h0l6.6,25.54h0a5.64,5.64,0,0,0,10.58.92h0l10.92-24h0A15,15,0,0,0,655.21,504.25Z" transform="translate(-622.02 -487.28)"/><path class="cls-2" d="M635.23,537.28l-.54,0a6.29,6.29,0,0,1-5.41-4.28h0l-.1-.38-6.6-25.54a15.66,15.66,0,1,1,30.72-2.75h0a15.63,15.63,0,0,1-1.1,4.56h0l-.17.38-.16.35v0L640.72,534.1h0A6.29,6.29,0,0,1,635.23,537.28Zm-4.87-5.15,0,.14a5,5,0,0,0,9.38.82l.09-.2,10.48-23h0l.36-.76a14.33,14.33,0,0,0,1.32-4.89h0a14.39,14.39,0,1,0-28.22,2.53Z" transform="translate(-622.02 -487.28)"/><circle class="cls-3" cx="15.82" cy="15.9" r="9.98"/><path class="cls-2" d="M637.84,513.8a10.62,10.62,0,1,1,10.62-10.62A10.63,10.63,0,0,1,637.84,513.8Zm0-20a9.35,9.35,0,1,0,9.35,9.35A9.36,9.36,0,0,0,637.84,493.83Z" transform="translate(-622.02 -487.28)"/></svg>