<svg id="Layer_1" data-name="Layer 1" xmlns="http://www.w3.org/2000/svg" viewBox="0 0 76.94 68.43"><defs><style>.cls-1{fill:#fff;}.cls-2{fill:#ffe400;}</style></defs><title>base</title><path class="cls-1" d="M237.18,254.67l-.33-5q-.36-5.39,3.39-6.26a3.62,3.62,0,0,1,1.42-.08,2.36,2.36,0,0,1,1.08.45,2.83,2.83,0,0,1,.76.92A5.22,5.22,0,0,1,244,246a10.3,10.3,0,0,1,.23,1.63l.09,1.31-2.57.6-.09-1.4c0-.27,0-.51-.06-.71a5.79,5.79,0,0,0-.12-.66,2.35,2.35,0,0,0-.21-.59.88.88,0,0,0-.34-.34.68.68,0,0,0-.5-.05q-1.13.27-1,2.51l.44,6.56q.15,2.24,1.28,2a.94.94,0,0,0,.55-.36,1.58,1.58,0,0,0,.29-.72,6.14,6.14,0,0,0,.08-.85c0-.27,0-.58,0-.92l-.11-1.56,2.56-.6.08,1.28a13.07,13.07,0,0,1,0,1.63,7.68,7.68,0,0,1-.27,1.51,4.79,4.79,0,0,1-.58,1.32,3.71,3.71,0,0,1-1,1,4,4,0,0,1-1.43.63,3.57,3.57,0,0,1-1.51.06,2.43,2.43,0,0,1-1.12-.51,3.13,3.13,0,0,1-.77-1,5.91,5.91,0,0,1-.48-1.38A11.52,11.52,0,0,1,237.18,254.67Z" transform="translate(-208.29 -233.43)"/><path class="cls-1" d="M246.11,257.75l-1-15.2,2.61-.61.42,6.23,1.87-.44-.41-6.23,2.63-.61,1,15.2-2.63.61-.45-6.78-1.87.44.45,6.78Z" transform="translate(-208.29 -233.43)"/><path class="cls-1" d="M254.26,250.77l-.34-5.11q-.36-5.39,3.41-6.27t4.14,4.51l.34,5a11.88,11.88,0,0,1,0,1.71,7.33,7.33,0,0,1-.29,1.56,4.9,4.9,0,0,1-.62,1.34,3.8,3.8,0,0,1-1,1,4.35,4.35,0,0,1-1.48.63,3.68,3.68,0,0,1-1.5.07,2.44,2.44,0,0,1-1.13-.49,3.07,3.07,0,0,1-.78-1,5.56,5.56,0,0,1-.49-1.36A10.66,10.66,0,0,1,254.26,250.77Zm5-.46-.44-6.57q-.15-2.25-1.32-2a1.1,1.1,0,0,0-.58.35,1.48,1.48,0,0,0-.32.65,4.45,4.45,0,0,0-.12.75,5.89,5.89,0,0,0,0,.78l.44,6.57q.15,2.24,1.31,2T259.25,250.31Z" transform="translate(-208.29 -233.43)"/><path class="cls-1" d="M263,248.73l-.34-5.11q-.36-5.39,3.42-6.27t4.14,4.51l.33,5a11.58,11.58,0,0,1,0,1.71,7.25,7.25,0,0,1-.29,1.56,5,5,0,0,1-.62,1.34,3.76,3.76,0,0,1-1,1,4.31,4.31,0,0,1-1.47.63,3.71,3.71,0,0,1-1.5.07,2.42,2.42,0,0,1-1.12-.49,3.09,3.09,0,0,1-.78-1,5.67,5.67,0,0,1-.49-1.36A10.49,10.49,0,0,1,263,248.73Zm5-.46-.44-6.57q-.15-2.24-1.32-2a1.08,1.08,0,0,0-.58.35,1.49,1.49,0,0,0-.32.65,4.54,4.54,0,0,0-.11.75,5.59,5.59,0,0,0,0,.78l.44,6.57q.15,2.24,1.31,2T268,248.27Z" transform="translate(-208.29 -233.43)"/><path class="cls-1" d="M271.55,247.4l2.61-1.22c0,.31,0,.58.07.82a7.25,7.25,0,0,0,.13.75,3,3,0,0,0,.21.65,1,1,0,0,0,.32.38.56.56,0,0,0,.46.08c.52-.12.75-.57.7-1.35a3.84,3.84,0,0,0-1.74-2.82l-.86-.62c-.27-.19-.49-.36-.66-.49a6.63,6.63,0,0,1-.59-.56,3.69,3.69,0,0,1-.55-.72,4.51,4.51,0,0,1-.36-.9,5.22,5.22,0,0,1-.21-1.17,4.76,4.76,0,0,1,.8-3.16,4.19,4.19,0,0,1,2.58-1.69,2.56,2.56,0,0,1,2.41.6,3.57,3.57,0,0,1,1.15,2.55v.11c0,.07,0,.16,0,.25L275.37,240c0-.06,0-.16,0-.29s0-.24,0-.33a4.23,4.23,0,0,0-.07-.57,3.17,3.17,0,0,0-.16-.53.81.81,0,0,0-.28-.39.52.52,0,0,0-.43-.07.87.87,0,0,0-.62.55,2.13,2.13,0,0,0-.15,1,2.77,2.77,0,0,0,.18.86,2.2,2.2,0,0,0,.43.69,5.2,5.2,0,0,0,.51.49c.15.12.36.27.61.45l.54.38a9.41,9.41,0,0,1,1,.86,6.49,6.49,0,0,1,.79,1,4.63,4.63,0,0,1,.6,1.25,6.61,6.61,0,0,1,.27,1.55,4.22,4.22,0,0,1-.79,2.84,3.86,3.86,0,0,1-2.29,1.57,3.06,3.06,0,0,1-1.62,0,2.47,2.47,0,0,1-1.19-.79,4.57,4.57,0,0,1-.76-1.32A6.82,6.82,0,0,1,271.55,247.4Z" transform="translate(-208.29 -233.43)"/><path class="cls-1" d="M279.85,249.89l-1-15.2,5.39-1.26.14,2.11-2.78.65.28,4.14,2-.46L284,242l-2,.46.31,4.68,2.78-.65.14,2.11Z" transform="translate(-208.29 -233.43)"/><path class="cls-2" d="M218.61,282.87a5.76,5.76,0,0,1-1.9.89c-5.09,1.39-8.06-2.76-8.32-8.2-.33-6.89,3.63-15.88,13.07-18.45,5.84-1.59,11.21.36,11.54,7.14a12.53,12.53,0,0,1-3.84,9.71c4,.89,6.13,4.63,6.34,9,.3,6.15-3.22,13.44-10.38,15.4a14.71,14.71,0,0,1-7.3.45,9.8,9.8,0,0,1-4.7,3l.3-4.92a5,5,0,0,1,1.2-.48,5.42,5.42,0,0,1,3.09.06c2.08-3.19,3-9.87,3.66-19.15A116.81,116.81,0,0,1,223,262.1l2.93.07a70.83,70.83,0,0,0-1.56,12,14.53,14.53,0,0,1,2.69-.39,10.57,10.57,0,0,0,3.15-8.36c-.28-5.78-4.58-7.53-8.83-6.37-7.54,2.05-10.73,9.6-10.46,15.19.2,4.07,2.26,7.11,5.77,6.16a5.8,5.8,0,0,0,1.3-.54Zm13.87.69c-.19-3.92-1.9-7.44-5.14-8.2a12.6,12.6,0,0,1-3.11,1.41c-.58,10.1-2.51,16.36-4.94,20.1a12.86,12.86,0,0,0,5.74-.4C230.23,295,232.73,288.89,232.47,283.56Z" transform="translate(-208.29 -233.43)"/><path class="cls-2" d="M213,301.86l.3-5.05,0,0a4.92,4.92,0,0,1,1.22-.48,5.63,5.63,0,0,1,1.48-.2,5.16,5.16,0,0,1,1.59.24c1.84-2.86,2.92-8.58,3.63-19.08.52-7.88,1-12.28,1.62-15.2V262l3.06.07,0,.08a69.47,69.47,0,0,0-1.55,11.88,14.58,14.58,0,0,1,2.59-.37,10.41,10.41,0,0,0,3.11-8.29c-.2-4.16-2.57-6.65-6.34-6.65a9.24,9.24,0,0,0-2.41.34c-7.22,2-10.7,9.09-10.41,15.12.18,3.81,1.93,6.27,4.45,6.27a4.69,4.69,0,0,0,1.23-.17,5.64,5.64,0,0,0,1.28-.53l.08,0,.68,3.18,0,0a5.89,5.89,0,0,1-1.93.91,7.33,7.33,0,0,1-1.92.27c-3.69,0-6.23-3.35-6.48-8.53a19.4,19.4,0,0,1,2.88-10.89A17.15,17.15,0,0,1,221.43,257a14,14,0,0,1,3.69-.52,7.38,7.38,0,0,1,7.93,7.72,12.62,12.62,0,0,1-3.76,9.68,7.42,7.42,0,0,1,4.52,3.19,11.47,11.47,0,0,1,1.75,5.81,16.73,16.73,0,0,1-2.4,9.31,13.51,13.51,0,0,1-8,6.16,18.58,18.58,0,0,1-4.8.72,11.8,11.8,0,0,1-2.5-.26,9.89,9.89,0,0,1-4.7,3Zm.43-5-.29,4.79a9.81,9.81,0,0,0,4.58-3l0,0h0a11.55,11.55,0,0,0,2.51.27,18.46,18.46,0,0,0,4.77-.72c7.18-2,10.63-9.19,10.34-15.33-.23-4.76-2.58-8.08-6.29-8.9l-.13,0,.1-.09a12.46,12.46,0,0,0,3.81-9.66c-.23-4.83-3.08-7.59-7.8-7.59a13.93,13.93,0,0,0-3.65.52c-9,2.46-13.37,11.11-13,18.38.25,5.11,2.74,8.41,6.35,8.41a7.19,7.19,0,0,0,1.89-.27,5.8,5.8,0,0,0,1.85-.86l-.62-2.92a5.63,5.63,0,0,1-1.23.5,4.77,4.77,0,0,1-1.27.18c-2.6,0-4.4-2.51-4.58-6.4a16.35,16.35,0,0,1,2.31-9,13.66,13.66,0,0,1,8.2-6.3,9.29,9.29,0,0,1,2.44-.34,6.27,6.27,0,0,1,4.41,1.62,7.3,7.3,0,0,1,2.06,5.15,10.55,10.55,0,0,1-3.17,8.42h0a14.6,14.6,0,0,0-2.67.39l-.09,0v-.09a70.18,70.18,0,0,1,1.54-11.91l-2.79-.06c-.63,2.91-1.09,7.3-1.61,15.12-.71,10.58-1.8,16.32-3.67,19.19l0,0,0,0a5,5,0,0,0-1.6-.25,5.63,5.63,0,0,0-1.45.19A4.89,4.89,0,0,0,213.47,296.9Zm7.73.2h0a11.63,11.63,0,0,1-1.92-.16l-.1,0,.06-.09c2.75-4.23,4.41-11,4.93-20.07v0h0a12.44,12.44,0,0,0,3.09-1.4h0c3,.71,5,3.88,5.2,8.26.26,5.36-2.23,11.54-7.5,13A14.59,14.59,0,0,1,221.2,297.1Zm-1.8-.28a11.51,11.51,0,0,0,1.8.14,14.4,14.4,0,0,0,3.8-.56c5.2-1.42,7.66-7.53,7.41-12.84-.16-3.38-1.58-7.29-5.07-8.13a12.57,12.57,0,0,1-3.06,1.39C223.76,285.84,222.12,292.57,219.4,296.82Z" transform="translate(-208.29 -233.43)"/><path class="cls-2" d="M243.77,267.47l2.21-.6c-.69,5.18-1.09,9.34-1.35,13.12a6.28,6.28,0,0,0,0,1c0,.56.13.79.29.75.34-.09,1.56-2.23,2.83-7.22.19,0,1.19,0,1.21.2-1.61,6.44-3.31,9.53-4.74,9.92-1,.27-1.61-.65-1.73-3.2,0-.11,0-.26,0-.41-.6,2.45-1.6,4.71-3.4,5.2-1.52.41-2.24-1.42-2.37-4.12-.25-5.22,1.76-13.57,4.71-14.37,1.15-.31,1.84.33,2.14,1.93ZM239.27,281c.06,1.15.28,1.88.75,1.75,1.43-.39,2.9-6.91,2.74-10.35-.07-1.37-.39-2.26-1.08-2.07C240.37,270.68,239.1,277.63,239.27,281Z" transform="translate(-208.29 -233.43)"/><path class="cls-2" d="M238.64,286.32c-1.17,0-1.89-1.51-2-4.24-.25-5.1,1.68-13.61,4.76-14.45,1.09-.3,1.79.23,2.13,1.59l.2-1.81,2.34-.64v.1c-.63,4.7-1.06,8.87-1.35,13.12a6,6,0,0,0,0,.95v0c0,.51.12.69.19.69h0c.26-.07,1.46-2,2.78-7.17v0h0a1.53,1.53,0,0,1,.32,0c.22,0,1,0,1,.28h0c-1.5,6-3.19,9.54-4.78,10a1.4,1.4,0,0,1-.33,0c-.88,0-1.37-1.08-1.48-3.29-.76,2.85-1.85,4.43-3.33,4.83a1.54,1.54,0,0,1-.43.06Zm3.28-18.63a1.91,1.91,0,0,0-.51.08c-2.92.79-4.91,9.22-4.66,14.31.13,2.65.8,4.11,1.89,4.11h0a1.57,1.57,0,0,0,.4-.06c1.5-.41,2.59-2.09,3.35-5.15l.11-.44,0,.45c0,.15,0,.3,0,.41.12,2.4.65,3.42,1.65,3.14s2.69-1.85,4.69-9.85c0-.05-.32-.15-.84-.15h-.25c-1.25,4.89-2.48,7.12-2.86,7.23-.21.06-.34-.21-.37-.81v0a6.6,6.6,0,0,1,0-1c.29-4.22.71-8.36,1.33-13l-2.06.56-.29,2.56-.08-.44C243.22,268.33,242.71,267.69,241.92,267.69Zm-2,15.14h0c-.41,0-.65-.62-.71-1.83-.16-3.37,1.1-10.37,2.46-10.74l.19,0c.56,0,.9.75,1,2.16.16,3.31-1.26,10-2.79,10.42Zm1.94-12.46-.16,0c-1.2.33-2.53,7-2.36,10.6.05,1.1.26,1.7.58,1.7H240c1.36-.37,2.86-6.79,2.69-10.28C242.62,271.09,242.32,270.37,241.85,270.37Z" transform="translate(-208.29 -233.43)"/><path class="cls-2" d="M249.24,279.22c.44.7.83.9,1.42.74.78-.21,1.18-1,1.12-2.33-.11-2.3-1.12-4.27-1.93-6.71-.28,1.31-.63,2.57-.92,3.78,0,0-.88.05-.89-.25v0c.34-1.37.85-3.2,1.36-5.13a17.1,17.1,0,0,1-.54-3.45,20.25,20.25,0,0,1,.48-5.12l2.13-.09c-.15,2.07-.38,3.93-.67,5.66.24,3.09,3.47,6.1,3.67,10.25v.15c.53-1.31,1.6-5,2-6.6a10.24,10.24,0,0,1,.26,2.5c-1.21,4.83-2.74,9.56-6.1,10.48a2.52,2.52,0,0,1-3.19-1.68Z" transform="translate(-208.29 -233.43)"/><path class="cls-2" d="M249.82,283.23a2.58,2.58,0,0,1-2.45-1.84v0l1.9-2.24,0,.08c.34.54.63.76,1,.76a1.32,1.32,0,0,0,.34,0c.76-.21,1.13-1,1.07-2.26a16,16,0,0,0-1.25-4.81c-.2-.53-.4-1.08-.6-1.66-.17.75-.35,1.49-.54,2.2-.11.46-.23.91-.33,1.35v0h-.2c-.36,0-.8-.05-.81-.31v0h0c.19-.76.44-1.67.69-2.63.22-.8.44-1.63.66-2.49a17.13,17.13,0,0,1-.54-3.45,20.43,20.43,0,0,1,.48-5.14v-.05l2.26-.1v.08c-.15,2-.37,3.87-.67,5.66a11.79,11.79,0,0,0,1.61,4.25,14.89,14.89,0,0,1,2.05,5.84c.56-1.5,1.51-4.84,1.88-6.31v0h.06c.1,0,.23,0,.32,2.46v.12h0c-1.15,4.6-2.68,9.58-6.14,10.52A3.15,3.15,0,0,1,249.82,283.23Zm-2.31-1.85a2.42,2.42,0,0,0,2.31,1.71,3,3,0,0,0,.79-.11c3.4-.93,4.9-5.86,6-10.42v-.1a15.37,15.37,0,0,0-.17-2.22c-.43,1.66-1.44,5.18-2,6.45l-.11.27,0-.44a14.24,14.24,0,0,0-2-5.94,11.92,11.92,0,0,1-1.63-4.31h0c.3-1.76.51-3.59.66-5.58l-2,.09a20.25,20.25,0,0,0-.46,5,17.05,17.05,0,0,0,.54,3.44v0q-.34,1.3-.67,2.5c-.25,1-.5,1.87-.69,2.62v0c0,.11.28.18.68.18h.09c.1-.42.21-.86.32-1.3.2-.78.4-1.59.58-2.43l0-.24.08.23c.22.65.45,1.28.67,1.88a16.1,16.1,0,0,1,1.26,4.86c.08,1.7-.59,2.24-1.16,2.4a1.37,1.37,0,0,1-.37.06c-.4,0-.73-.22-1.07-.75Z" transform="translate(-208.29 -233.43)"/><path class="cls-2" d="M267.78,268.14c-1.84,5.33-3.38,11.15-7.6,12.3-2.7.74-4-1.92-4.13-5.4-.24-5,1.79-11.82,5.26-12.76,1.55-.42,2.39.7,2.47,2.4a9.49,9.49,0,0,1-5.25,8.44c0,.61,0,1.17,0,1.69.11,2.33.73,4,2.13,3.66,1.93-.53,3-5.82,5.06-11.06m1.74,5.27-8.82-1a9,9,0,0,0,3.1-6.21c0-.56-.23-.87-.54-.79C260,265,259,268.32,258.62,271.64Z" transform="translate(-208.29 -233.43)"/><path class="cls-2" d="M259.32,280.63a2.42,2.42,0,0,1-1.49-.49c-1.07-.81-1.73-2.62-1.84-5.1a21,21,0,0,1,1.24-7.94c1-2.71,2.46-4.45,4.07-4.89a1.8,1.8,0,0,1,1.64.23,2.9,2.9,0,0,1,.92,2.23,9.59,9.59,0,0,1-5.25,8.49,15.43,15.43,0,0,0,0,1.64c.08,1.79.45,3,1.06,3.44a1.09,1.09,0,0,0,1,.16c1.36-.37,2.31-3.19,3.51-6.77.46-1.38.94-2.8,1.5-4.25l.12,0c-.56,1.44-1,2.87-1.5,4.24-1.21,3.61-2.17,6.46-3.6,6.85a1.2,1.2,0,0,1-1.09-.18c-.81-.61-1.05-2.26-1.11-3.54a16.31,16.31,0,0,1,0-1.7v0l0,0a9.47,9.47,0,0,0,5.21-8.38,2.78,2.78,0,0,0-.87-2.13,1.7,1.7,0,0,0-1.53-.21c-3.29.9-5.47,7.44-5.21,12.69.12,2.44.76,4.21,1.79,5a2.49,2.49,0,0,0,2.25.35c3.77-1,5.42-5.92,7-10.66l.54-1.6.13,0c-.18.53-.37,1.07-.54,1.6-1.61,4.77-3.26,9.7-7.1,10.75A3.36,3.36,0,0,1,259.32,280.63Zm-.78-8.83,0-.17c.33-3.25,1.33-6.71,2.6-7.06a.37.37,0,0,1,.33.06,1.06,1.06,0,0,1,.29.79,9.11,9.11,0,0,1-3.12,6.26Zm2.73-7.1h-.08c-1.19.32-2.14,3.62-2.49,6.77a8.93,8.93,0,0,0,2.95-6,.94.94,0,0,0-.24-.69A.24.24,0,0,0,261.27,264.7Z" transform="translate(-208.29 -233.43)"/></svg>