<svg id="Layer_1" data-name="Layer 1" xmlns="http://www.w3.org/2000/svg" xmlns:xlink="http://www.w3.org/1999/xlink" viewBox="0 0 106 106"><defs><style>.cls-1{fill:none;}.cls-2,.cls-3{fill:#fff;}.cls-2,.cls-4{fill-rule:evenodd;}.cls-4,.cls-6{fill:#ffe400;}.cls-5{fill:#231f20;}.cls-7{clip-path:url(#clip-path);}.cls-8{fill:#70c658;}.cls-9{fill:#8eef6f;}.cls-10{clip-path:url(#clip-path-2);}</style><clipPath id="clip-path"><rect class="cls-1" x="66.61" y="42.89" width="25.45" height="23.09"/></clipPath><clipPath id="clip-path-2"><rect class="cls-1" x="17.35" y="62.26" width="25.45" height="23.1"/></clipPath></defs><title>base-icons</title><path class="cls-2" d="M39.83,46.7a3.36,3.36,0,0,1-4.85.25l-3.39-3.18a3.63,3.63,0,0,1-.24-5L47.55,20.3A3.36,3.36,0,0,1,52.41,20l3.4,3.18a3.63,3.63,0,0,1,.24,5Z"/><path d="M34.58,47.48l0,0-3.39-3.17a4.31,4.31,0,0,1-.29-6L47.07,19.84a4,4,0,0,1,5.74-.32l0,0,3.39,3.18a4.31,4.31,0,0,1,.28,6L40.31,47.15A4,4,0,0,1,34.58,47.48Zm17.37-27a2.74,2.74,0,0,0-3.91.22L31.83,39.21A2.94,2.94,0,0,0,32,43.27l3.42,3.2a2.73,2.73,0,0,0,3.91-.22L55.56,27.78a2.94,2.94,0,0,0-.19-4.06Z"/><polygon class="cls-3" points="48.05 20.95 55.45 20.67 55.27 27.88 48.36 27.35 48.05 20.95"/><path d="M47.74,28l-.37-7.67L56.12,20l-.21,8.63Zm1-6.37L49,26.72l5.65.43.14-5.79Z"/><path class="cls-4" d="M38.21,47.76c-3.47-3.25-2.49-10.21,2.19-15.55s11.31-7,14.78-3.78"/><path class="cls-5" d="M37.72,48.32c-3.77-3.53-2.8-11,2.14-16.62a16.81,16.81,0,0,1,8.21-5.34c3-.77,5.68-.25,7.54,1.46l.05.05-1,1.11c-1.5-1.4-3.72-1.81-6.27-1.16a15.37,15.37,0,0,0-7.48,4.88c-4.41,5-5.41,11.52-2.24,14.49Z"/><path class="cls-6" d="M30.57,40.16C34.9,44.21,42.16,43.24,46.78,38s4.86-12.82.52-16.87"/><path class="cls-5" d="M30.16,40.79l-.08-.08,1-1.11c4,3.76,10.84,2.81,15.19-2.14a13.48,13.48,0,0,0,3.43-8.41,9.53,9.53,0,0,0-2.86-7.4l1-1.12a11,11,0,0,1,3.34,8.56,15,15,0,0,1-3.81,9.37C42.47,44,34.79,45,30.16,40.79Z"/><polygon points="48.65 22 51.21 22.01 51.29 24.23 53.33 22.5 52.45 24.89 54 25.24 53.97 27.57 50.28 27.15 48.65 22"/><path class="cls-3" d="M67.22,53.63l1.93-.72L71,48.67l2.86-.78,1.85-1.79,3.6-2.45c-.1.06,6.12,3,6.12,3l2.61,3.77.75,2.5L91.49,54l-.55,2.54L80,57.64l-11.43-1.4S66.17,55.52,67.22,53.63Z"/><g class="cls-7"><path d="M73.64,50.87,74,52.65l1.21-.92-.58-.54Zm0,0"/><path d="M92,53.89c-.12-.47-.93-.91-2.33-1.27l-.49-2.15L86,45.77l-6.71-2.87-3.35,2-1.68,2.24-3.42.61-2.55,5.08c-1,.32-1.52.72-1.62,1.11a.61.61,0,0,0,0,.15,13.59,13.59,0,0,0,4.84,10.34H71V66H87.64v-1.6h-.47A13.59,13.59,0,0,0,92,54s0-.15,0-.15Zm-4.56.93a53.45,53.45,0,0,1-8.12.56,53.46,53.46,0,0,1-8.12-.56A13.63,13.63,0,0,1,68,54a11.3,11.3,0,0,1,2.43-.67l-.59-.49L71.72,49l2.57-.46L76.93,50l.1.06h.06l3.39-.12-3.24-.53-1.82-1.55,1.41-1.92,2.51-1.46,5.72,2.45,2.81,4.13.29,1.25-.66.9a13.21,13.21,0,0,1,3.11.79,13.63,13.63,0,0,1-3.2.81Zm0,0"/></g><path d="M83,50.09l-.59.89,1.75.16-.49-1.46Zm0,0"/><path d="M80.1,53.11l.73.85.75-.85-.74-.32Zm0,0"/><path d="M78.94,47.19l.8,0,.55-.6-1-.47Zm0,0"/><path class="cls-8" d="M18.08,72.44,20,71.73l1.87-4.25,2.86-.78,1.85-1.79,3.6-2.45c-.1.06,6.12,3,6.12,3l2.61,3.77.75,2.5,2.67,1.1-.55,2.54L30.88,76.45,19.45,75S17,74.33,18.08,72.44Z"/><path class="cls-9" d="M22.66,70.78c-.37.93-.77,1.87,0,2.76a5.25,5.25,0,0,0,2.49,1.22A1.51,1.51,0,0,0,27,72.92l-.58-1.57a1.54,1.54,0,0,0-1.85-1,1.51,1.51,0,0,0-1,1.85l.58,1.57,1.85-1.85-.72-.25-.36-.12q-.3-.11-.12,0,.57.23.45,1.1l.11-.3.27-.68a1.51,1.51,0,0,0-1-1.85,1.54,1.54,0,0,0-1.85,1Z"/><path class="cls-9" d="M31.15,67,31,67l-.09,0s.2.2.17.18,0,0,0-.1c-.11-.35,0,.1,0-.27a1.5,1.5,0,0,0-3,0,3.74,3.74,0,0,0,.57,2,2.94,2.94,0,0,0,1.76,1.15,1.5,1.5,0,1,0,.8-2.89Z"/><path class="cls-9" d="M35.18,76.26a3.67,3.67,0,0,0,1.58-1.88,4.41,4.41,0,0,0,.26-1c0-.21.06-.43.07-.64v-.22q0-.65-.28.38l-.66.39.13,0h-.8l.13,0L35,72.88q-.35-.23-.2-.41a1.55,1.55,0,0,0,1,1.85,1.51,1.51,0,0,0,1.85-1,2.74,2.74,0,0,0-.47-2.42,1.8,1.8,0,0,0-2.49-.11,2.44,2.44,0,0,0-.61,1.85,1.19,1.19,0,0,1-.42,1.07,1.5,1.5,0,0,0,1.51,2.59Z"/><g class="cls-10"><path d="M42.73,73.25c-.12-.47-.93-.91-2.33-1.27l-.49-2.16-3.2-4.69L30,62.26l-3.35,2L25,66.45l-3.42.61L19,72.14c-1,.32-1.52.72-1.62,1.12a.6.6,0,0,0,0,.15,13.6,13.6,0,0,0,4.84,10.34h-.47v1.6H38.38v-1.6h-.47A13.59,13.59,0,0,0,42.74,73.4v-.15Zm-4.56.93a53.83,53.83,0,0,1-8.12.56,53.78,53.78,0,0,1-8.12-.56,13.65,13.65,0,0,1-3.2-.81,11.49,11.49,0,0,1,2.43-.67l-.59-.49,1.9-3.86L25,67.89l2.63,1.48.11.06h.06l3.39-.12L28,68.77l-1.81-1.54,1.41-1.92,2.52-1.47,5.72,2.45,2.82,4.13.29,1.25-.66.9a13.35,13.35,0,0,1,3.11.79,13.68,13.68,0,0,1-3.2.81Zm0,0"/></g><path class="cls-5" d="M27.21,74.24c-1.92-.1-1.47-2.66-2.43-3.76-.92,0-1,.83-1.56,1.25a5,5,0,0,0,.35,2.5c-3-.62-.21-5.81,1.73-4.65A27.19,27.19,0,0,1,27.21,74.24Z"/><path class="cls-5" d="M30.84,70.3a1.5,1.5,0,0,1-1.56,1.61C29.44,71,29.83,70.33,30.84,70.3Z"/><path class="cls-5" d="M24.26,71.2c.76-.13.37.93.87,1.07-.3.53-.92-.1-1.39,0C23.73,71.73,24.11,71.57,24.26,71.2Z"/><path class="cls-5" d="M26.86,71.55a1.06,1.06,0,0,1,1,1.07C27.34,72.49,26.8,72.33,26.86,71.55Z"/><path class="cls-5" d="M32.4,72.63c0,.51.09,1.17-.17,1.43-.78.38-2.23.09-3.29.18C29.45,73,31,71.88,32.4,72.63Zm-2.6,1.25c.7,0,1.22-.17,1.21-.89C30.51,73.18,29.85,73.21,29.8,73.88Z"/><path class="cls-5" d="M23.57,72.63c.64-.13.74.3,1.39.18-.25.46-.41,1-1,1.08C23.89,73.37,23.6,73.13,23.57,72.63Z"/><path class="cls-5" d="M31,73c0,.72-.51.9-1.21.89C29.85,73.21,30.51,73.18,31,73Z"/><path class="cls-5" d="M25.13,73.16c.64-.12.3.77.69.9-.08.4-.85.07-1.21.18C24.61,73.7,25.06,73.63,25.13,73.16Z"/><path class="cls-5" d="M25.3,69.59c-1.95-1.17-4.71,4-1.73,4.65a5,5,0,0,1-.35-2.5c.51-.42.64-1.25,1.56-1.25,1,1.1.5,3.65,2.43,3.76A27.19,27.19,0,0,0,25.3,69.59Z"/><path class="cls-5" d="M23.74,72.27c.46-.1,1.08.53,1.39,0-.5-.14-.11-1.2-.87-1.07C24.11,71.57,23.73,71.73,23.74,72.27Z"/><path class="cls-5" d="M28.94,74.24c1.06-.09,2.51.21,3.29-.18.27-.26.15-.91.17-1.43C31,71.88,29.45,73,28.94,74.24Z"/><path class="cls-5" d="M23.92,73.88c.63-.06.79-.61,1-1.08-.64.13-.74-.3-1.39-.18C23.6,73.13,23.89,73.37,23.92,73.88Z"/><path class="cls-5" d="M24.61,74.24c.36-.11,1.14.22,1.21-.18-.39-.13-.05-1-.69-.9C25.06,73.63,24.61,73.7,24.61,74.24Z"/><path class="cls-5" d="M32.74,74.74c2.14-.11,1.64-3,2.71-4.19,1,0,1.17.92,1.74,1.4a5.51,5.51,0,0,1-.39,2.79c3.32-.69.24-6.49-1.93-5.19A30.32,30.32,0,0,0,32.74,74.74Z"/><path class="cls-5" d="M36,71.35c-.84-.14-.41,1-1,1.2.34.59,1-.12,1.55,0C36.61,71.94,36.19,71.77,36,71.35Z"/><path class="cls-5" d="M36.79,72.95c-.72-.14-.83.34-1.55.2.28.51.45,1.13,1.16,1.2C36.44,73.78,36.76,73.51,36.79,72.95Z"/><path class="cls-5" d="M35.05,73.54c-.71-.14-.33.85-.77,1,.08.44,1,.08,1.35.2C35.63,74.15,35.13,74.06,35.05,73.54Z"/><path class="cls-5" d="M32,69a1.26,1.26,0,0,0-1.23-1.26C30.73,68.65,31.36,68.84,32,69Z"/><path class="cls-5" d="M30.05,64.85c-1.5-.9-3.63,3.1-1.33,3.58a3.81,3.81,0,0,1-.27-1.93c.39-.33.49-1,1.2-1,.74.84.39,2.81,1.87,2.89A20.82,20.82,0,0,0,30.05,64.85Z"/><path class="cls-5" d="M28.85,66.92c.36-.08.83.41,1.07,0-.38-.11-.09-.92-.67-.83C29.13,66.38,28.85,66.5,28.85,66.92Z"/><path class="cls-5" d="M29,68.16c.49,0,.61-.47.8-.83-.49.1-.57-.23-1.07-.14C28.74,67.58,29,67.77,29,68.16Z"/><path class="cls-5" d="M29.52,68.43c.28-.08.87.17.93-.14-.3-.1,0-.79-.53-.69C29.87,68,29.52,68,29.52,68.43Z"/></svg>