<?xml version="1.0" encoding="utf-8"?>
<!-- Generator: Adobe Illustrator 21.1.0, SVG Export Plug-In . SVG Version: 6.00 Build 0)  -->
<svg version="1.1" id="Layer_1" xmlns="http://www.w3.org/2000/svg" xmlns:xlink="http://www.w3.org/1999/xlink" x="0px" y="0px"
	 viewBox="0 0 106 106" style="enable-background:new 0 0 106 106;" xml:space="preserve">
<style type="text/css">
	.st0{fill:#FFE500;}
	.st1{fill:#231F20;}
	.st2{fill:#FFFFFF;}
</style>
<title>filling-icons</title>
<path class="st0" d="M29.6,55.7L28,57.9v2.4l1.2,1.7l1.2,1.4l0.3,2l-0.6,1.8l-1,0.4c0,0-6.6,5-1.7,5.2s11-2.5,11-2.5L38,64.6
	L33.6,55c0,0-3.4-0.5-4,0.5"/>
<path class="st1" d="M36.5,56c-2.3-0.9-6.3-0.7-8.2,0.4c-1.4-1.1,0.1-4.4,1.6-2.8c0.5-0.8,1.5-1.1,2.4-0.6c0,0,0.1,0,0.1,0.1
	c0.8-0.5,1.8-0.3,2.5,0.3C36.3,52.6,37.4,54.7,36.5,56z"/>
<path class="st1" d="M26.6,57.5c-0.1,0.7-0.1,1.4,0,2.2c-0.9,0.2-1.8,0.2-2.7,0C24.4,58.6,25.4,57.8,26.6,57.5z"/>
<path class="st1" d="M26.6,60.3c0.4,0.8,0.8,1.7,1.4,2.4c-1.7,0-3.3-0.9-4.3-2.3C24.7,60.3,25.7,60.2,26.6,60.3z"/>
<ellipse class="st1" cx="31" cy="59" rx="1.4" ry="1.4"/>
<path class="st1" d="M39.9,59.6c-3.6-7.6-9.2-5.6-10.3-5l0,0c-2.4,1.3-3.2,4.3-1.9,6.7c0.2,0.4,0.5,0.8,0.8,1.1
	c2.6,2.7,0.8,5,0.5,5.3c-0.3,0.3-0.2,0.8,0.1,1.1c0.3,0.3,0.8,0.3,1,0c0,0,0,0,0,0c1.1-1.2,2.3-4.3-0.6-7.4
	c-1.1-1.1-1.4-2.8-0.6-4.1c0.5-1.1,1.7-1.7,2.9-1.5c0.1,0,0.1,0,0.2,0c1.5,0.4,3.5,1.8,3.6,6.2c0.2,7.4-2.7,9.2-2.7,9.2l0,0h-6.8
	c-0.4,0-0.8,0.5-0.7,0.9c0,0.4,0.3,0.7,0.7,0.7h14.2C40.5,72.9,43.5,67.2,39.9,59.6z"/>
<path class="st0" d="M72.3,79.9c0,0-3,2.2-1.8-0.5s5.4-7.5,5.4-7.5l3.1-0.2v2.8L72.3,79.9z"/>
<path class="st0" d="M73.8,72.1c0,0-3,2.2-1.8-0.5s-1-4.4-1-4.4l10.8,2.3l-2.7,6.6L73.8,72.1z"/>
<path d="M67.3,67.8c0.6,1.9,2,3.4,3.7,4.4c0.2,0.1,0.4,0.2,0.7,0.2c0.4-0.7,1-1.3,1.7-1.8c0.5-0.4,1.1-0.7,1.7-1
	c-0.2-0.1-0.3-0.2-0.5-0.3c-0.7-0.4-1.5-0.8-2.3-1.1c0.7,0.2,1.6,0.3,2.2,0.6c0.4,0.2,0.8,0.4,1.2,0.7c1.1-0.4,2.3-0.6,3.4-0.7
	c-1.1-1.6-2.6-2.8-4.4-3.5c-1.7-0.5-3.4-0.8-5.1-0.9c-1.1-0.1-2.1-0.5-3.1-1c-0.1-0.1-0.3,0-0.3,0.1c0,0.1,0,0.1,0,0.2
	C66.5,64.9,66.7,66.5,67.3,67.8L67.3,67.8z"/>
<path d="M85.9,67.8c-2,1.1-4.3,1.2-6.5,1.4c-1.1,0.1-2.2,0.3-3.2,0.6l-0.7,0.2c-0.7,0.2-1.3,0.6-1.9,1c-0.5,0.4-1,0.9-1.4,1.4
	c-0.6,0.9-1.1,1.9-1.4,2.9c-0.7,1.9-1,3.9-0.9,5.9c0,0.8,0.1,1.6,0.2,2.4c0,0.2,0.1,0.4,0.2,0.5c0.1,0.1,0.3,0.1,0.4,0
	c0.1-0.1,0.1-0.2,0.1-0.3c-0.4-1.8-0.2-3.8,0.6-5.5c0.8-1.8,2.3-3.2,4.2-3.7c0.5-0.2,1-0.3,1.5-0.5l0,0c0.1,0,0.1,0.1,0.1,0.1
	c0,0,0,0.1-0.1,0.1c-0.6,0.3-1.2,0.6-1.8,0.9c-2.8,1.5-4.1,5-3,5c0.1,0,0.2,0,0.3-0.1c1.6-0.7,3.6-0.7,5.3-1
	c0.6-0.1,1.2-0.3,1.8-0.5c2.3-1,4-2.9,4.9-5.2c0.7-1.7,1-3.8,1.6-5.5c0.1-0.2,0-0.3-0.2-0.4c0,0-0.1,0-0.1,0
	C85.9,67.7,85.9,67.7,85.9,67.8L85.9,67.8z"/>
<ellipse class="st0" cx="71.7" cy="39.1" rx="6.9" ry="7.2"/>
<path class="st2" d="M79.2,34.8c0,1.6-1.2,2.8-2.8,2.9c0,0,0,0,0,0h-8c-1.6,0-2.8-1.3-2.8-2.8c0,0,0,0,0,0l0,0
	c0-1.5,1.2-2.8,2.8-2.8h8C78,32,79.3,33.3,79.2,34.8L79.2,34.8z"/>
<path d="M82.2,30c-2.1-1.6-5-1.5-7,0.1c-2.2-0.7-4.5-0.7-6.7,0c-2-1.7-4.9-1.7-7-0.1c-0.2,0.1-0.3,0.4-0.2,0.6l1.1,5.4
	c-0.3,0.9-0.5,1.9-0.5,2.8c0,2.3,0.9,4.4,2.5,6.1c1.1,1.3,2.1,2.7,2.9,4.3c0.2,0.4,0.6,0.7,1.1,0.7h1.2c0.7,0,1.2-0.6,1.2-1.2
	c0,0,0,0,0,0V48c0.4,0,0.8,0.1,1.2,0.1c0.4,0,0.8,0,1.2-0.1v0.7c0,0.7,0.5,1.2,1.2,1.2c0,0,0,0,0,0h1.2c0.5,0,0.9-0.3,1.1-0.7
	c0.8-1.5,1.8-3,2.9-4.3c1.6-1.6,2.5-3.8,2.5-6.1c0-1-0.2-1.9-0.5-2.8l1.1-5.4C82.4,30.4,82.3,30.2,82.2,30L82.2,30z M67.7,36.1v-1.4
	c0-0.3,0.3-0.6,0.6-0.6c0,0,0,0,0,0h0.1c0.3,0,0.6,0.3,0.6,0.6c0,0,0,0,0,0v1.4c0,0.3-0.3,0.6-0.6,0.6c0,0,0,0,0,0h-0.1
	C67.9,36.7,67.7,36.4,67.7,36.1C67.7,36.1,67.7,36.1,67.7,36.1L67.7,36.1z M71.8,44.1c-2.2,0-4-1.4-4-3.2s1.8-3.2,4-3.2s4,1.4,4,3.2
	S74.1,44.1,71.8,44.1z M76.1,36.1c0,0.3-0.3,0.6-0.6,0.6c0,0,0,0,0,0h-0.1c-0.3,0-0.6-0.3-0.6-0.6v-1.4c0-0.3,0.2-0.6,0.5-0.6
	c0,0,0,0,0,0h0.1c0.3,0,0.6,0.3,0.6,0.6c0,0,0,0,0,0L76.1,36.1z"/>
<path d="M71,40.9c0,0.4-0.4,0.8-0.9,0.7c-0.4,0-0.8-0.4-0.7-0.9c0-0.4,0.4-0.7,0.8-0.7C70.7,40,71,40.4,71,40.9
	C71,40.9,71,40.9,71,40.9L71,40.9z"/>
<path d="M74.2,40.9c0,0.4-0.4,0.8-0.9,0.7c-0.4,0-0.8-0.4-0.7-0.9c0-0.4,0.4-0.7,0.8-0.7C73.9,40,74.2,40.4,74.2,40.9
	C74.2,40.9,74.2,40.9,74.2,40.9L74.2,40.9z"/>
<polygon class="st2" points="23.2,17.6 24.9,22.4 25.3,27.8 26.4,30.1 26.3,36 30.2,36.6 33.5,35.7 36.7,22.4 35.8,20.5 37.1,16.9 
	32.5,20.2 26.4,19.1 "/>
<polygon class="st0" points="23.5,17.4 25.1,21.8 28.3,20.4 33.2,21.1 35.8,21.8 37.4,17.4 36.3,17.4 32.7,20.1 27.1,19.6 "/>
<path d="M40.2,20.5H37c0.2-0.5,0.4-1,0.5-1.5c0.2-0.9,0.3-1.8,0.3-2.8l-0.1-1.8l-0.9,1.6c-0.4,0.8-1,1.5-1.7,2.1
	c-0.5,0.4-1.1,0.8-1.7,1.1c-0.3,0.1-0.7,0.3-1,0.3h-4c-1.9-0.5-3.5-1.7-4.4-3.5l-0.9-1.6L23,16.2c0,0.9,0.1,1.9,0.3,2.8
	c0.1,0.5,0.3,1,0.5,1.5h-3.2V21c0,1.1,0.4,2.1,1.1,2.9c0.8,0.8,1.8,1.2,2.8,1.3c-0.1,1.2,0.2,2.4,0.7,3.5c0.8,1.5,1,5.8,1,7.3v0.1
	l0.1,0.1c0.2,0.3,0.5,0.5,0.9,0.6c1,0.3,2.1,0.5,3.2,0.4c1.1,0,2.1-0.1,3.2-0.4c0.4-0.1,0.7-0.3,0.9-0.6l0.1-0.1V36
	c0-1.5,0.2-5.9,1-7.3c0.5-1.1,0.8-2.3,0.7-3.5c1.1,0,2.1-0.5,2.8-1.3c0.7-0.8,1.1-1.8,1.1-2.9L40.2,20.5z M25,20.5
	c-0.4-0.8-0.7-1.6-0.9-2.5c0.3,0.3,0.5,0.6,0.8,0.8c0.4,0.4,0.9,0.7,1.4,1c-0.4,0.2-0.7,0.4-1,0.7L25,20.5z M26.1,27.4
	c-0.4-0.3-0.5-0.9-0.2-1.3c0.2-0.4,0.7-0.7,1.1-0.5c0.4,0.3,0.5,0.9,0.2,1.3C27.1,27.3,26.5,27.5,26.1,27.4L26.1,27.4z M33.5,35.7
	c-0.3,0.2-0.6,0.3-0.9,0.3c-0.5-0.7-1.3-1.1-2.1-1l0,0c-0.8-0.1-1.7,0.3-2.1,1c-0.3,0-0.6-0.2-0.9-0.3c0-0.2,0-0.6,0-1
	c1.4-1.4,2.2-3.4,2.1-5.4c0.1-4.3-2.7-4.9-1.7-6.6c0.5-1,1.6-1.5,2.7-1.3c1.1-0.2,2.2,0.3,2.7,1.3c1,1.6-1.7,2.3-1.7,6.6
	c-0.1,2,0.7,4,2.1,5.4C33.5,35.2,33.5,35.5,33.5,35.7L33.5,35.7z M34.7,27.4c-0.5,0.2-1,0-1.2-0.5c0,0,0,0,0,0
	c-0.3-0.4-0.2-1,0.2-1.3c0.5-0.2,1,0,1.2,0.5c0,0,0,0,0,0C35.2,26.5,35.1,27.1,34.7,27.4z M35.8,20.5h-0.4c-0.3-0.3-0.6-0.5-1-0.7
	c0.5-0.3,1-0.6,1.4-1c0.3-0.3,0.6-0.5,0.8-0.8C36.5,18.9,36.2,19.7,35.8,20.5L35.8,20.5z"/>
</svg>
