<svg id="Layer_1" data-name="Layer 1" xmlns="http://www.w3.org/2000/svg" viewBox="0 0 94.37 68.12"><defs><style>.cls-1{fill:#fff;}.cls-2{fill:#ffe400;}</style></defs><title>sauces</title><path class="cls-1" d="M469.16,263.65l-.33-5q-.36-5.38,3.39-6.26a3.59,3.59,0,0,1,1.42-.08,2.38,2.38,0,0,1,1.08.45,2.81,2.81,0,0,1,.76.92,5.22,5.22,0,0,1,.48,1.3,10.16,10.16,0,0,1,.23,1.63l.09,1.31-2.57.6-.09-1.4c0-.28,0-.51-.06-.71a6.68,6.68,0,0,0-.12-.67,2.26,2.26,0,0,0-.21-.59.84.84,0,0,0-.34-.34.68.68,0,0,0-.5-.05q-1.13.26-1,2.51l.44,6.56q.15,2.24,1.28,2a.94.94,0,0,0,.55-.36,1.55,1.55,0,0,0,.29-.72,6,6,0,0,0,.08-.85c0-.27,0-.58,0-.92l-.1-1.56,2.55-.6.09,1.29a13,13,0,0,1,0,1.63,7.73,7.73,0,0,1-.27,1.51,4.85,4.85,0,0,1-.58,1.32,3.71,3.71,0,0,1-1,1,4,4,0,0,1-1.43.63,3.58,3.58,0,0,1-1.51.06,2.41,2.41,0,0,1-1.12-.51,3.15,3.15,0,0,1-.77-1,5.84,5.84,0,0,1-.48-1.37A11.52,11.52,0,0,1,469.16,263.65Z" transform="translate(-422.86 -242.41)"/><path class="cls-1" d="M478.09,266.73l-1-15.2,2.61-.61.41,6.23,1.88-.44-.42-6.23,2.63-.61,1,15.2-2.63.61-.45-6.78-1.87.44.45,6.78Z" transform="translate(-422.86 -242.41)"/><path class="cls-1" d="M486.24,259.75l-.34-5.11q-.36-5.39,3.42-6.27t4.14,4.51l.34,5a11.77,11.77,0,0,1,0,1.71,7.31,7.31,0,0,1-.29,1.55,5,5,0,0,1-.62,1.34,3.76,3.76,0,0,1-1,1,4.37,4.37,0,0,1-1.48.63,3.69,3.69,0,0,1-1.5.07,2.42,2.42,0,0,1-1.13-.49,3.09,3.09,0,0,1-.78-1,5.59,5.59,0,0,1-.49-1.36A10.53,10.53,0,0,1,486.24,259.75Zm5-.46-.44-6.57q-.15-2.24-1.32-2a1.08,1.08,0,0,0-.58.35,1.51,1.51,0,0,0-.32.65,4.81,4.81,0,0,0-.11.75,6.44,6.44,0,0,0,0,.78l.44,6.57q.15,2.24,1.31,2T491.23,259.29Z" transform="translate(-422.86 -242.41)"/><path class="cls-1" d="M495,257.71l-.34-5.11q-.36-5.38,3.42-6.27t4.14,4.51l.34,5a12.18,12.18,0,0,1,0,1.71,7.39,7.39,0,0,1-.29,1.56,5,5,0,0,1-.63,1.34,3.83,3.83,0,0,1-1,1,4.37,4.37,0,0,1-1.48.63,3.71,3.71,0,0,1-1.5.07,2.42,2.42,0,0,1-1.12-.49,3.07,3.07,0,0,1-.78-1,5.7,5.7,0,0,1-.49-1.36A10.53,10.53,0,0,1,495,257.71Zm5-.46-.44-6.57q-.15-2.24-1.32-2a1.07,1.07,0,0,0-.58.35,1.47,1.47,0,0,0-.32.65,4.59,4.59,0,0,0-.12.75,6.29,6.29,0,0,0,0,.78l.44,6.57q.15,2.24,1.31,2T500,257.25Z" transform="translate(-422.86 -242.41)"/><path class="cls-1" d="M503.54,256.39l2.61-1.22c0,.31,0,.58.07.82a7,7,0,0,0,.13.76,2.83,2.83,0,0,0,.21.64,1,1,0,0,0,.32.38.57.57,0,0,0,.46.08c.52-.12.75-.57.7-1.35a3.85,3.85,0,0,0-1.74-2.82l-.86-.62c-.28-.19-.5-.35-.66-.49a6.24,6.24,0,0,1-.59-.56,3.54,3.54,0,0,1-.54-.72,4.41,4.41,0,0,1-.36-.89,5.13,5.13,0,0,1-.21-1.17,4.76,4.76,0,0,1,.8-3.16,4.2,4.2,0,0,1,2.58-1.69,2.55,2.55,0,0,1,2.41.61,3.56,3.56,0,0,1,1.15,2.54v.11c0,.07,0,.16,0,.25L507.35,249c0-.06,0-.16,0-.29s0-.24,0-.33a4.42,4.42,0,0,0-.07-.57,3.35,3.35,0,0,0-.16-.53.79.79,0,0,0-.29-.38.52.52,0,0,0-.43-.07.86.86,0,0,0-.62.55,2.12,2.12,0,0,0-.15,1,2.8,2.8,0,0,0,.18.86,2.17,2.17,0,0,0,.43.68,4.88,4.88,0,0,0,.51.48q.23.19.61.45l.54.38a9.49,9.49,0,0,1,1,.86,6.52,6.52,0,0,1,.79,1,4.69,4.69,0,0,1,.6,1.25,6.75,6.75,0,0,1,.27,1.55,4.21,4.21,0,0,1-.79,2.84,3.85,3.85,0,0,1-2.29,1.57,3,3,0,0,1-1.62,0,2.47,2.47,0,0,1-1.19-.79,4.52,4.52,0,0,1-.76-1.32A6.84,6.84,0,0,1,503.54,256.39Z" transform="translate(-422.86 -242.41)"/><path class="cls-1" d="M511.83,258.87l-1-15.2,5.39-1.26.14,2.11-2.78.65.28,4.14,2-.46L516,251l-2,.46.31,4.68,2.78-.65.14,2.11Z" transform="translate(-422.86 -242.41)"/><path class="cls-2" d="M423.39,299a33.52,33.52,0,0,0,5.66-.68c0-.15,0-.33,0-.48-.4-7.37,3.11-15.54,10.64-17.38,5.73-1.4,8.64,2.5,9.3,7.63a38.8,38.8,0,0,0,3.9-4.29q-.22-2.09-.32-3.86C452,269.65,454,265.45,457,264.7c2.21-.54,3.18,1.21,3.29,3.21.22,4-1.27,8.9-4.16,13.73l.24,2.53c0,.48.09,1,.11,1.44.59,11-3.88,22.11-13.79,24.53-7.42,1.82-11.84-2.84-13.25-9a38,38,0,0,1-6.63,1Zm23.53-9.89c-.24-4.52-2.74-8.11-7.17-7-5.45,1.33-8.09,8.36-7.74,14.8,0,.22.06.47.07.73a40.21,40.21,0,0,0,14.87-7.8C447,289.64,446.94,289.42,446.92,289.16Zm-4.65,11.75a14.54,14.54,0,0,0,4.48-8.45,42.62,42.62,0,0,1-14.23,7.87c1.26,5.21,4.83,9.17,10.84,7.7,6.77-1.66,10.4-10.16,9.84-20.6,0-.44-.08-.92-.11-1.4a48.49,48.49,0,0,1-4,4.39c0,4.87-1.76,10.22-4.93,13Zm15-34.16c-1.73.42-2.07,2.5-1.87,6.2q.14,2.55.54,6.17a21.39,21.39,0,0,0,2.67-10.82C458.52,267.3,458.06,266.55,457.23,266.75Z" transform="translate(-422.86 -242.41)"/><path class="cls-2" d="M466.58,278.53l2.45-.6c-.77,5.18-1.21,9.34-1.5,13.12a5.55,5.55,0,0,0,0,1c0,.55.15.79.32.75.38-.1,1.73-2.23,3.14-7.22.21,0,1,.06,1,.28-1.79,6.44-3.34,9.45-4.93,9.83-1.1.27-1.78-.65-1.92-3.21,0-.11,0-.26,0-.41-.67,2.45-1.77,4.71-3.78,5.2-1.69.41-2.49-1.42-2.64-4.12-.28-5.22,2-13.57,5.24-14.37,1.28-.31,2,.32,2.38,1.93Zm-5,13.53c.06,1.15.31,1.87.83,1.75,1.59-.39,3.23-6.91,3-10.35-.07-1.37-.44-2.26-1.2-2.07C462.79,281.75,461.38,288.7,461.57,292.06Z" transform="translate(-422.86 -242.41)"/><path class="cls-2" d="M475.07,276.42s-.53,3.24-1.13,8.19a33.67,33.67,0,0,0-.41,5.46c.06,1.07.45,1.17.76,1.09.55-.13,1.47-2.57,2-6l.14-1.27c.35-3.28.86-6.17,1.17-8.13l2.94-.72c-.9,6.07-1.67,10.61-1.5,13.65.06,1.07.45,1.17.76,1.09.9-.22,1.92-2.57,3.22-7.2.17,0,1,0,1,.24v0c-1.29,4.59-2.27,9.18-5.1,9.88-1.52.37-2.27-.68-2.58-2.44-.66,2-1.6,3.47-2.94,3.8-1.83.45-2.55-1.18-2.68-3.66a33,33,0,0,1,.28-5.21c.61-5,1.14-8.12,1.14-8.12Z" transform="translate(-422.86 -242.41)"/><path class="cls-2" d="M488.44,280.46a10.7,10.7,0,0,0,.92-4.28c0-.78-.28-1.25-.76-1.13-1.8.44-3.11,5.23-2.92,8.74.13,2.33.92,4.09,2.68,3.66s3.41-2.86,4.71-7.3c.21-.05,1,.06,1,.28-.88,3.21-3.23,9.6-6.89,10.5-2.69.66-4-2-4.22-5.53-.27-5,1.82-11.73,5.65-12.67,2-.48,2.86,1,3,3.18a14.66,14.66,0,0,1-.87,5.28Z" transform="translate(-422.86 -242.41)"/><path class="cls-2" d="M503,277.73c.21-.05,1,.06,1,.28-1.46,5.27-3,9.54-6.37,10.38-3,.73-4.41-1.92-4.59-5.4-.27-5,2-11.82,5.85-12.76,1.73-.42,2.66.7,2.75,2.4a9.36,9.36,0,0,1-5.78,8.39c0,.19,0,.37,0,.56.12,2.22.8,3.86,2.39,3.47C500.27,284.54,501.84,281.83,503,277.73Zm-7.11,1.85c2.52-2,3.52-4.84,3.44-6.21,0-.55-.25-.87-.6-.79C497.27,272.94,496.09,276.41,495.84,279.59Z" transform="translate(-422.86 -242.41)"/><path class="cls-2" d="M504.29,282.54c.49.71.92.9,1.58.74.86-.21,1.31-1,1.24-2.33-.12-2.29-1.25-4.27-2.15-6.71-.31,1.31-.7,2.57-1,3.78,0,0-1,.05-1-.24v0c.38-1.37.95-3.2,1.51-5.13a15.33,15.33,0,0,1-.61-3.45,18.21,18.21,0,0,1,.53-5.12l2.37-.09a54.31,54.31,0,0,1-.75,5.66c.27,3.08,3.86,6.11,4.09,10.25V280a30.84,30.84,0,0,0,1.51-4.38c.21-.05,1,.06,1,.28-1.35,4.83-3.05,9.56-6.78,10.47a2.86,2.86,0,0,1-3.55-1.68Z" transform="translate(-422.86 -242.41)"/></svg>